<svg xmlns="http://www.w3.org/2000/svg" xmlns:xlink="http://www.w3.org/1999/xlink" width="380.086" height="349.447" viewBox="0 0 380.086 349.447">
  <defs>
    <linearGradient id="linear-gradient" x1="0.5" x2="0.5" y2="1" gradientUnits="objectBoundingBox">
      <stop offset="0" stop-color="#e017ce"/>
      <stop offset="1" stop-color="#4cc1fe"/>
    </linearGradient>
    <filter id="Path_484" x="0" y="18.995" width="380.086" height="330.453" filterUnits="userSpaceOnUse">
      <feOffset dy="10" input="SourceAlpha"/>
      <feGaussianBlur stdDeviation="10" result="blur"/>
      <feFlood flood-color="#818181" flood-opacity="0.161"/>
      <feComposite operator="in" in2="blur"/>
      <feComposite in="SourceGraphic"/>
    </filter>
    <clipPath id="clip-path">
      <path id="Path_491" data-name="Path 491" d="M204.88,232.217s-24.15-2.865-40.04,9.53-29.555,64.191-29.24,89,9.54,37.185,32.735,47.346,66.406,6.36,90.557-1.27,32.1-34.3,31.78-48.616-16.205-30.825-21.61-34.3-20.655-10.8-28.276-22.25S222.031,235.4,204.88,232.217Z" transform="translate(-135.594 -231.931)" fill="#dd1a75" stroke="#263238" stroke-linecap="round" stroke-linejoin="round" stroke-width="1"/>
    </clipPath>
    <clipPath id="clip-path-2">
      <path id="Path_499" data-name="Path 499" d="M208.571,234.95s-8.65,2.781-9.892,4.941-.306,17.309-.306,19.163,1.085-1.085,2.012-3.245,4.172-5.414,5.247-5.1,1.706,1.539,1.706,3.551,2.466,4.793,4.635,6.332,4.172,3.1,4.172,3.1,4.478-6.49,5.562-8.2.927-5.247,1.075-6.49,2.939,3.4,3.56,2.169-1.391-2.318-3.56-5.72-1.539-6.953-4.784-9.428S211.047,234.32,208.571,234.95Z" transform="translate(-198.035 -234.321)" fill="#fff" stroke="#263238" stroke-linecap="round" stroke-linejoin="round" stroke-width="1"/>
    </clipPath>
    <clipPath id="clip-path-3">
      <path id="Path_504" data-name="Path 504" d="M185.154,301.909s-5.331-7.648-11.82-8.344-14.37,4.635-14.6,6.49-1.854,11.82-.7,13.211,5.562,2.549,14.138-.232S184.227,306.776,185.154,301.909Z" transform="translate(-157.624 -293.503)" fill="#fff" stroke="#263238" stroke-linecap="round" stroke-linejoin="round" stroke-width="1"/>
    </clipPath>
    <clipPath id="clip-path-4">
      <path id="Path_509" data-name="Path 509" d="M167.109,303.617s-8.7,3.449-9.039,10.2c-.195,3.708,6.026,5.331,12.516,5.331s15.76-8.112,21.786-11.588,19.932-11.588,21.555-12.284,7.185,1.159,9.5,1.854a31.342,31.342,0,0,0,6.721.7s3.245,5.1,4.867,5.1-3.477-7.648-4.172-9.271-12.052-5.331-13.443-5.331-33.838,8.112-38.705,9.966S167.109,303.617,167.109,303.617Z" transform="translate(-158.065 -288.32)" fill="#fff" stroke="#263238" stroke-linecap="round" stroke-linejoin="round" stroke-width="1"/>
    </clipPath>
    <clipPath id="clip-path-5">
      <path id="Path_515" data-name="Path 515" d="M231.367,292.07,206.54,309.629l56.783-1.622,19.033-15.7Z" transform="translate(-206.54 -292.07)" fill="#fff" stroke="#263238" stroke-linecap="round" stroke-linejoin="round" stroke-width="1"/>
    </clipPath>
    <clipPath id="clip-path-6">
      <path id="Path_520" data-name="Path 520" d="M253.57,308.641s20.4-17.846,40.56-23.872,24.336-5.1,23.872,3.94-10.2,56.32-16.687,68.372-14.6,34.07-14.37,38.242,8.112,16.456,15.065,20.859,6.258,9.734,1.854,10.661-9.5,2.549-24.568-7.185-21.323-23.64-20.4-27.117,10.661-8.112,14.6-15.065,10.43-32.911,10.893-44.731a70.235,70.235,0,0,1,4.635-21.786s-25.495,4.635-32.911,9.271Z" transform="translate(-253.57 -280.942)" fill="#fff" stroke="#263238" stroke-linecap="round" stroke-linejoin="round" stroke-width="1"/>
    </clipPath>
    <clipPath id="clip-path-7">
      <path id="Path_527" data-name="Path 527" d="M273.5,377.477c-.3.519-.63,1.02-.983,1.52a23.817,23.817,0,0,1,13.035,5.433,40.963,40.963,0,0,1,3.171,3.069c4.441-5.97,9.438-24.8,15.074-32.55,14.564-20.016,13.739-57.2,14.2-66.24s-3.708-9.966-23.872-3.94-40.56,23.872-40.56,23.872l2.549,11.588c7.417-4.635,32.911-9.271,32.911-9.271a70.236,70.236,0,0,0-4.635,21.786C283.932,344.565,277.442,370.523,273.5,377.477Z" transform="translate(-253.57 -280.942)" fill="#263238" stroke="#263238" stroke-linecap="round" stroke-linejoin="round" stroke-width="1"/>
    </clipPath>
    <clipPath id="clip-path-8">
      <path id="Path_533" data-name="Path 533" d="M187.257,313.459s-7.417,4.172-9.966,8.807,8.418,12.358,20.006,11.894,32.837-13.053,32.837-13.053.232,20.4,4.172,27.812,22.018,25.495,29.2,30.13,31.289,22.018,35,24.8,10.661,7.88,12.284,8.112,18.542-20.4,22.482-27.349,7.417-21.555,6.026-24.8-4.172-.464-6.953,1.854-28.276,19.237-30.594,20.4a25.438,25.438,0,0,1-3.94,1.622s-20.859-19.932-31.984-35.229-12.052-35-16.224-42.414-10.2-10.661-19.237-9.734S202.554,302.1,187.257,313.459Z" transform="translate(-176.918 -296.153)" fill="#fff" stroke="#263238" stroke-linecap="round" stroke-linejoin="round" stroke-width="1"/>
    </clipPath>
    <clipPath id="clip-path-9">
      <path id="Path_538" data-name="Path 538" d="M296.148,382.28c-4.9-4.784-23.288-29.453-30.547-43.637-10.634-20.785-11.783-27.868-15.955-35.285s-10.467-7.991-19.469-7.064-25.216,2.605-45.056,13.86c0,0-8.344,4.524-10.884,9.159s6.74,16.307,22.871,14.833c11.551-1.057,32.837-13.053,32.837-13.053s.232,20.4,4.172,27.812,22.018,25.495,29.2,30.13c4.552,2.939,15.909,11,24.558,17.216C290.011,388.491,293.839,384.245,296.148,382.28Z" transform="translate(-173.821 -295.957)" fill="#263238" stroke="#263238" stroke-linecap="round" stroke-linejoin="round" stroke-width="1"/>
    </clipPath>
    <clipPath id="clip-path-10">
      <path id="Path_544" data-name="Path 544" d="M343.492,389.5c3.94-6.953,7.417-21.555,6.026-24.8-.807-1.854-2.077-1.734-3.551-.825.973,4.329,0,12.682-4.793,21.684-4.274,8.029-17.475,22.25-24.1,29.129a15.557,15.557,0,0,0,3.959,2.16C322.632,417.085,339.552,396.457,343.492,389.5Z" transform="translate(-317.07 -363.239)" fill="#fff" stroke="#263238" stroke-linecap="round" stroke-linejoin="round" stroke-width="1"/>
    </clipPath>
    <clipPath id="clip-path-11">
      <path id="Path_550" data-name="Path 550" d="M302.422,424.758a30.287,30.287,0,0,1-6.174-5.562c-4.784-2.04-11.171-4.635-16.771-8.121-6.026-3.708-4.635-6.026-8.112-9.5-2.67-2.67-7.917-3.013-10.2-3.032a6.406,6.406,0,0,0-1.854,2.568c-.927,3.477,5.331,17.383,20.4,27.117s20.164,8.112,24.568,7.185S309.375,429.161,302.422,424.758Z" transform="translate(-259.224 -398.54)" fill="#fff" stroke="#263238" stroke-linecap="round" stroke-linejoin="round" stroke-width="1"/>
    </clipPath>
    <clipPath id="clip-path-12">
      <path id="Path_554" data-name="Path 554" d="M303.583,426.527c-6.026-3.477-18.31-5.794-26.19-11.125s-5.794-9.966-11.588-13.674a5.887,5.887,0,0,0-6.49-.371c-.807,3.616,5.47,17.364,20.4,27.024s20.164,8.112,24.568,7.185c2.93-.621,4.2-3.18,2.689-6.119A12.647,12.647,0,0,0,303.583,426.527Z" transform="translate(-259.246 -400.556)" fill="#263238" stroke="#263238" stroke-linecap="round" stroke-linejoin="round" stroke-width="1"/>
    </clipPath>
    <clipPath id="clip-path-13">
      <path id="Path_565" data-name="Path 565" d="M206.72,221.978s1.085,11.709,1.539,15.408,1.483,14.323,2.549,17.837,6.879,9.623,7.417,8.214,3.43-10.967,2.281-16.687-1.5-10.606-.788-12.052S223,231.629,223,231.629a93.11,93.11,0,0,1-8.705-5.071C210.2,223.832,207.295,220.745,206.72,221.978Z" transform="translate(-206.72 -221.699)" fill="#fff" stroke="#263238" stroke-linecap="round" stroke-linejoin="round" stroke-width="1"/>
    </clipPath>
    <clipPath id="clip-path-14">
      <path id="Path_570" data-name="Path 570" d="M205.86,221.586s6.675,5.562,11.792,7.6,12.979,1.91,14.1-.751-1.947-23.733-4.589-29.277-5.46-5.637-10.124-6.063-13.99,3.375-15.631,7.88.232,10.884,1.585,14.666a27.812,27.812,0,0,0,2.865,5.943Z" transform="translate(-200.769 -193.065)" fill="#fff" stroke="#263238" stroke-linecap="round" stroke-linejoin="round" stroke-width="1"/>
    </clipPath>
    <clipPath id="clip-path-15">
      <path id="Path_587" data-name="Path 587" d="M207.807,217.634s-2.994-4.32-6.147-2.587-.7,7.9,1.2,10.04,5.562-1.854,5.943-2.855" transform="translate(-200.145 -214.637)" fill="#fff" stroke="#263238" stroke-linecap="round" stroke-linejoin="round" stroke-width="1"/>
    </clipPath>
  </defs>
  <g id="Group-1" transform="translate(12 -1372.921)">
    <path id="Path_485" data-name="Path 485" d="M385.354,317.031c6.935-56.6-26.644-131.83-61.465-162.887C261.042,98.055,208.83,108.9,168.224,128.992S121.8,216.137,93.77,246.48s-44,71.153-1.446,111.787,76.864,19.978,121.345,17.41,103.452,17.707,135.353.065C371.318,363.431,382.295,342.053,385.354,317.031Z" transform="translate(-48.184 1299.173)" fill="#fff" opacity="0.7"/>
    <g transform="matrix(1, 0, 0, 1, -12, 1372.92)" filter="url(#Path_484)">
      <path id="Path_484-2" data-name="Path 484" d="M385.354,317.031c6.935-56.6-26.644-131.83-61.465-162.887C261.042,98.055,208.83,108.9,168.224,128.992S121.8,216.137,93.77,246.48s-44,71.153-1.446,111.787,76.864,19.978,121.345,17.41,103.452,17.707,135.353.065C371.318,363.431,382.295,342.053,385.354,317.031Z" transform="translate(-36.18 -73.75)" opacity="0.3" fill="url(#linear-gradient)"/>
    </g>
    <line id="Line_101" data-name="Line 101" y1="208.537" transform="translate(161.164 1405.674)" fill="none" stroke="#263238" stroke-linecap="round" stroke-linejoin="round" stroke-width="1"/>
    <path id="Path_486" data-name="Path 486" d="M74.39,333.18H205.933l199.85,64.506" transform="translate(-48.783 1283.098)" fill="none" stroke="#263238" stroke-linecap="round" stroke-linejoin="round" stroke-width="1"/>
    <path id="Path_487" data-name="Path 487" d="M136.577,313.784h-9.085V163.542h18.755l-8.093-29.212H113.863l-8.093,29.212h18.755V313.784h-9.113a8.9,8.9,0,0,0-8.891,8.733s0,.046,0,.065h0v.074h0c.269,2.1,8.872,3.782,19.469,3.782s19.2-1.687,19.469-3.782h0A8.9,8.9,0,0,0,136.577,313.784Z" transform="translate(-51.071 1297.599)" fill="#263238"/>
    <path id="Path_488" data-name="Path 488" d="M269.59,93.136v176.9l133.193,21.916V71.22Zm129.735,50.655-67.677,3.838V86.164l67.677-10.773Zm-67.677,10.3,67.677-3.106v61.8l-67.677-3.161Zm-5.488,55.272-54.336-2.531v-50l54.29-2.485Zm0-122.328v60.927l-54.336,3.05V95.676ZM271.824,212.655l54.29,3.124v60.362l-54.29-8.64ZM331.6,277.012V216.094l67.677,3.894v67.8Z" transform="translate(-63.017 1302.201)" fill="#263238" stroke="#263238" stroke-linecap="round" stroke-linejoin="round" stroke-width="1"/>
    <ellipse id="Ellipse_34" data-name="Ellipse 34" cx="106.567" cy="33.199" rx="106.567" ry="33.199" transform="translate(54.069 1635.885)" fill="#a858e1"/>
    <ellipse id="Ellipse_35" data-name="Ellipse 35" cx="106.567" cy="33.199" rx="106.567" ry="33.199" transform="translate(54.069 1635.885)" fill="#fff" opacity="0.5"/>
    <path id="Path_489" data-name="Path 489" d="M204.88,232.217s-24.15-2.865-40.04,9.53-29.555,64.191-29.24,89,9.54,37.185,32.735,47.346,66.406,6.36,90.557-1.27,32.1-34.3,31.78-48.616-16.205-30.825-21.61-34.3-20.655-10.8-28.276-22.25S222.031,235.4,204.88,232.217Z" transform="translate(-53.246 1290.481)" fill="#a858e1"/>
    <g id="Group_138" data-name="Group 138" transform="translate(82.348 1522.413)" clip-path="url(#clip-path)">
      <path id="Path_490" data-name="Path 490" d="M263.323,375.864c-9.132-1.233-19.96-3.708-28.155-8.687-17.309-10.5-21.629-30.288-27.812-37.7s-17.309-6.8-22.25-14.833,3.087-67.361-11.125-71.07a32.346,32.346,0,0,0-8.872-1.27c-.083.074-.185.13-.269.2-15.89,12.4-29.555,64.191-29.24,89s9.54,37.185,32.735,47.346,66.406,6.36,90.557-1.27A38.134,38.134,0,0,0,263.323,375.864Z" transform="translate(-135.594 -232.687)" opacity="0.13"/>
    </g>
    <path id="Path_492" data-name="Path 492" d="M204.88,232.217s-24.15-2.865-40.04,9.53-29.555,64.191-29.24,89,9.54,37.185,32.735,47.346,66.406,6.36,90.557-1.27,32.1-34.3,31.78-48.616-16.205-30.825-21.61-34.3-20.655-10.8-28.276-22.25S222.031,235.4,204.88,232.217Z" transform="translate(-53.246 1290.481)" fill="none" stroke="#263238" stroke-linecap="round" stroke-linejoin="round" stroke-width="1"/>
    <path id="Path_493" data-name="Path 493" d="M197.481,244.177s-15.76,3.013-18.542,5.794-14.37,46.354-14.37,46.354a17.244,17.244,0,0,1,9.734.464c4.635,1.854,5.1,6.721,5.562,9.039a82.938,82.938,0,0,1,.7,8.344s46.845-4.181,56.811-6.49,25.133-3.384,25.133-3.384-25.624-57.794-29.564-59.88-20.4-2.318-22.713-1.854S197.481,244.177,197.481,244.177Z" transform="translate(-55.359 1289.72)" fill="#263238" stroke="#263238" stroke-linecap="round" stroke-linejoin="round" stroke-width="1"/>
    <line id="Line_102" data-name="Line 102" y1="32.216" x2="3.94" transform="translate(126.594 1555.221)" fill="none" stroke="#fff" stroke-linecap="round" stroke-linejoin="round" stroke-width="1"/>
    <line id="Line_103" data-name="Line 103" y1="6.953" x2="5.331" transform="translate(129.607 1556.843)" fill="none" stroke="#fff" stroke-linecap="round" stroke-linejoin="round" stroke-width="1"/>
    <path id="Path_494" data-name="Path 494" d="M203.82,280.687s15.065-4.867,25.031-4.867" transform="translate(-58.221 1287.281)" fill="none" stroke="#fff" stroke-linecap="round" stroke-linejoin="round" stroke-width="1"/>
    <path id="Path_495" data-name="Path 495" d="M219.081,266.74l-1.01,7.723s2.549,0,2.781,1.159a3.078,3.078,0,0,1-.927,2.318s7.185,3.94,8.112,8.575" transform="translate(-59.26 1287.943)" fill="none" stroke="#fff" stroke-linecap="round" stroke-linejoin="round" stroke-width="1"/>
    <path id="Path_496" data-name="Path 496" d="M208.571,234.95s-8.65,2.781-9.892,4.941-.306,17.309-.306,19.163,1.085-1.085,2.012-3.245,4.172-5.414,5.247-5.1,1.706,1.539,1.706,3.551,2.466,4.793,4.635,6.332,4.172,3.1,4.172,3.1,4.478-6.49,5.562-8.2.927-5.247,1.075-6.49,2.939,3.4,3.56,2.169-1.391-2.318-3.56-5.72-1.539-6.953-4.784-9.428S211.047,234.32,208.571,234.95Z" transform="translate(-57.799 1290.307)" fill="#fff"/>
    <g id="Group_139" data-name="Group 139" transform="translate(140.236 1524.628)" clip-path="url(#clip-path-2)">
      <path id="Path_497" data-name="Path 497" d="M198.68,239.932c-.816,1.446-.686,8.659-.5,13.906,1.975-2.54,6.045-7.342,8.4-6.434,3,1.159,4.153,9.7,4.153,9.7L208.7,235h-.13S199.922,237.781,198.68,239.932Z" transform="translate(-198.035 -234.37)" fill="#a858e1"/>
      <path id="Path_498" data-name="Path 498" d="M198.68,239.932c-.816,1.446-.686,8.659-.5,13.906,1.975-2.54,6.045-7.342,8.4-6.434,3,1.159,4.153,9.7,4.153,9.7L208.7,235h-.13S199.922,237.781,198.68,239.932Z" transform="translate(-198.035 -234.37)" fill="#fff" opacity="0.5"/>
    </g>
    <path id="Path_500" data-name="Path 500" d="M208.571,234.95s-8.65,2.781-9.892,4.941-.306,17.309-.306,19.163,1.085-1.085,2.012-3.245,4.172-5.414,5.247-5.1,1.706,1.539,1.706,3.551,2.466,4.793,4.635,6.332,4.172,3.1,4.172,3.1,4.478-6.49,5.562-8.2.927-5.247,1.075-6.49,2.939,3.4,3.56,2.169-1.391-2.318-3.56-5.72-1.539-6.953-4.784-9.428S211.047,234.32,208.571,234.95Z" transform="translate(-57.799 1290.307)" fill="none" stroke="#263238" stroke-linecap="round" stroke-linejoin="round" stroke-width="1"/>
    <path id="Path_501" data-name="Path 501" d="M185.154,301.909s-5.331-7.648-11.82-8.344-14.37,4.635-14.6,6.49-1.854,11.82-.7,13.211,5.562,2.549,14.138-.232S184.227,306.776,185.154,301.909Z" transform="translate(-54.852 1285.991)" fill="#fff"/>
    <g id="Group_140" data-name="Group 140" transform="translate(102.772 1579.494)" clip-path="url(#clip-path-3)">
      <path id="Path_502" data-name="Path 502" d="M163.47,313.043s-1.854-5.3-.927-7.148,4.635-4.635,6.925-7.417-5.4,1.567-5.776,0c-.287-1.261,4.07-3.782,5.785-4.719-5.4,1.038-10.559,4.793-10.745,6.286-.232,1.854-1.854,11.82-.7,13.211.593.714,2.067,1.372,4.524,1.456C163.118,313.757,163.47,313.043,163.47,313.043Z" transform="translate(-157.624 -293.522)" fill="#a858e1"/>
      <path id="Path_503" data-name="Path 503" d="M163.47,313.043s-1.854-5.3-.927-7.148,4.635-4.635,6.925-7.417-5.4,1.567-5.776,0c-.287-1.261,4.07-3.782,5.785-4.719-5.4,1.038-10.559,4.793-10.745,6.286-.232,1.854-1.854,11.82-.7,13.211.593.714,2.067,1.372,4.524,1.456C163.118,313.757,163.47,313.043,163.47,313.043Z" transform="translate(-157.624 -293.522)" fill="#fff" opacity="0.5"/>
    </g>
    <path id="Path_505" data-name="Path 505" d="M185.154,301.909s-5.331-7.648-11.82-8.344-14.37,4.635-14.6,6.49-1.854,11.82-.7,13.211,5.562,2.549,14.138-.232S184.227,306.776,185.154,301.909Z" transform="translate(-54.852 1285.991)" fill="none" stroke="#263238" stroke-linecap="round" stroke-linejoin="round" stroke-width="1"/>
    <path id="Path_506" data-name="Path 506" d="M167.109,303.617s-8.7,3.449-9.039,10.2c-.195,3.708,6.026,5.331,12.516,5.331s15.76-8.112,21.786-11.588,19.932-11.588,21.555-12.284,7.185,1.159,9.5,1.854a31.342,31.342,0,0,0,6.721.7s3.245,5.1,4.867,5.1-3.477-7.648-4.172-9.271-12.052-5.331-13.443-5.331-33.838,8.112-38.705,9.966S167.109,303.617,167.109,303.617Z" transform="translate(-54.885 1286.369)" fill="#fff"/>
    <g id="Group_141" data-name="Group 141" transform="translate(103.181 1574.689)" clip-path="url(#clip-path-4)">
      <path id="Path_507" data-name="Path 507" d="M185.289,302.653c13.248-6.629,32.114-14.333,32.114-14.333-1.391,0-33.838,8.112-38.705,9.966s-11.588,5.331-11.588,5.331-8.7,3.449-9.039,10.2c-.195,3.708,6.026,5.331,12.516,5.331s15.76-8.112,21.786-11.588l3.653-2.114C187.171,306.565,175.332,307.622,185.289,302.653Z" transform="translate(-158.065 -288.32)" fill="#a858e1"/>
      <path id="Path_508" data-name="Path 508" d="M185.289,302.653c13.248-6.629,32.114-14.333,32.114-14.333-1.391,0-33.838,8.112-38.705,9.966s-11.588,5.331-11.588,5.331-8.7,3.449-9.039,10.2c-.195,3.708,6.026,5.331,12.516,5.331s15.76-8.112,21.786-11.588l3.653-2.114C187.171,306.565,175.332,307.622,185.289,302.653Z" transform="translate(-158.065 -288.32)" fill="#fff" opacity="0.5"/>
    </g>
    <path id="Path_510" data-name="Path 510" d="M167.109,303.617s-8.7,3.449-9.039,10.2c-.195,3.708,6.026,5.331,12.516,5.331s15.76-8.112,21.786-11.588,19.932-11.588,21.555-12.284,7.185,1.159,9.5,1.854a31.342,31.342,0,0,0,6.721.7s3.245,5.1,4.867,5.1-3.477-7.648-4.172-9.271-12.052-5.331-13.443-5.331-33.838,8.112-38.705,9.966S167.109,303.617,167.109,303.617Z" transform="translate(-54.885 1286.369)" fill="none" stroke="#263238" stroke-linecap="round" stroke-linejoin="round" stroke-width="1"/>
    <path id="Path_511" data-name="Path 511" d="M240.384,249.07l-7.064,39.725,50.989.232,7.583-37.676a2.345,2.345,0,0,0-2.225-2.781l-46.91-1.409a2.336,2.336,0,0,0-2.373,1.91Z" transform="translate(-60.372 1289.371)" fill="#fff" stroke="#263238" stroke-linecap="round" stroke-linejoin="round" stroke-width="1"/>
    <path id="Path_512" data-name="Path 512" d="M231.367,292.07,206.54,309.629l56.783-1.622,19.033-15.7Z" transform="translate(-58.42 1286.096)" fill="#fff"/>
    <g id="Group_142" data-name="Group 142" transform="translate(148.12 1578.166)" clip-path="url(#clip-path-5)">
      <path id="Path_513" data-name="Path 513" d="M231.367,292.07,206.54,309.629l56.783-1.622,19.033-15.7Z" transform="translate(-206.54 -292.07)" fill="#a858e1"/>
      <path id="Path_514" data-name="Path 514" d="M231.367,292.07,206.54,309.629l56.783-1.622,19.033-15.7Z" transform="translate(-206.54 -292.07)" fill="#fff" opacity="0.5"/>
    </g>
    <path id="Path_516" data-name="Path 516" d="M231.367,292.07,206.54,309.629l56.783-1.622,19.033-15.7Z" transform="translate(-58.42 1286.096)" fill="none" stroke="#263238" stroke-linecap="round" stroke-linejoin="round" stroke-width="1"/>
    <path id="Path_517" data-name="Path 517" d="M253.57,308.641s20.4-17.846,40.56-23.872,24.336-5.1,23.872,3.94-10.2,56.32-16.687,68.372-14.6,34.07-14.37,38.242,8.112,16.456,15.065,20.859,6.258,9.734,1.854,10.661-9.5,2.549-24.568-7.185-21.323-23.64-20.4-27.117,10.661-8.112,14.6-15.065,10.43-32.911,10.893-44.731a70.235,70.235,0,0,1,4.635-21.786s-25.495,4.635-32.911,9.271Z" transform="translate(-61.849 1286.907)" fill="#fff"/>
    <g id="Group_143" data-name="Group 143" transform="translate(191.721 1567.849)" clip-path="url(#clip-path-6)">
      <path id="Path_518" data-name="Path 518" d="M253.57,308.641s20.4-17.846,40.56-23.872,24.336-5.1,23.872,3.94-10.2,56.32-16.687,68.372-14.6,34.07-14.37,38.242,8.112,16.456,15.065,20.859,6.258,9.734,1.854,10.661-9.5,2.549-24.568-7.185-21.323-23.64-20.4-27.117,10.661-8.112,14.6-15.065,10.43-32.911,10.893-44.731a70.235,70.235,0,0,1,4.635-21.786s-25.495,4.635-32.911,9.271Z" transform="translate(-253.57 -280.942)" fill="#a858e1"/>
      <path id="Path_519" data-name="Path 519" d="M253.57,308.641s20.4-17.846,40.56-23.872,24.336-5.1,23.872,3.94-10.2,56.32-16.687,68.372-14.6,34.07-14.37,38.242,8.112,16.456,15.065,20.859,6.258,9.734,1.854,10.661-9.5,2.549-24.568-7.185-21.323-23.64-20.4-27.117,10.661-8.112,14.6-15.065,10.43-32.911,10.893-44.731a70.235,70.235,0,0,1,4.635-21.786s-25.495,4.635-32.911,9.271Z" transform="translate(-253.57 -280.942)" fill="#fff" opacity="0.5"/>
    </g>
    <path id="Path_521" data-name="Path 521" d="M253.57,308.641s20.4-17.846,40.56-23.872,24.336-5.1,23.872,3.94-10.2,56.32-16.687,68.372-14.6,34.07-14.37,38.242,8.112,16.456,15.065,20.859,6.258,9.734,1.854,10.661-9.5,2.549-24.568-7.185-21.323-23.64-20.4-27.117,10.661-8.112,14.6-15.065,10.43-32.911,10.893-44.731a70.235,70.235,0,0,1,4.635-21.786s-25.495,4.635-32.911,9.271Z" transform="translate(-61.849 1286.907)" fill="none" stroke="#263238" stroke-linecap="round" stroke-linejoin="round" stroke-width="1"/>
    <path id="Path_522" data-name="Path 522" d="M273.5,377.477c-.3.519-.63,1.02-.983,1.52a23.817,23.817,0,0,1,13.035,5.433,40.963,40.963,0,0,1,3.171,3.069,202.713,202.713,0,0,1,12.59-30.417c6.49-12.052,16.224-59.333,16.687-68.372s-3.708-9.966-23.872-3.94-40.56,23.872-40.56,23.872l2.549,11.588c7.417-4.635,32.911-9.271,32.911-9.271a70.235,70.235,0,0,0-4.635,21.786C283.932,344.565,277.442,370.523,273.5,377.477Z" transform="translate(-61.849 1286.907)" fill="#fff" stroke="#263238" stroke-linecap="round" stroke-linejoin="round" stroke-width="1"/>
    <path id="Path_523" data-name="Path 523" d="M273.5,377.477c-.3.519-.63,1.02-.983,1.52a23.817,23.817,0,0,1,13.035,5.433,40.963,40.963,0,0,1,3.171,3.069c4.441-5.97,9.438-24.8,15.074-32.55,14.564-20.016,13.739-57.2,14.2-66.24s-3.708-9.966-23.872-3.94-40.56,23.872-40.56,23.872l2.549,11.588c7.417-4.635,32.911-9.271,32.911-9.271a70.236,70.236,0,0,0-4.635,21.786C283.932,344.565,277.442,370.523,273.5,377.477Z" transform="translate(-61.849 1286.907)" fill="#263238"/>
    <g id="Group_144" data-name="Group 144" transform="translate(191.721 1567.849)" clip-path="url(#clip-path-7)">
      <path id="Path_524" data-name="Path 524" d="M273.5,377.477c-.3.519-.63,1.02-.983,1.52a23.817,23.817,0,0,1,13.035,5.433,40.963,40.963,0,0,1,3.171,3.069c4.441-5.97,9.438-24.8,15.074-32.55,14.564-20.016,13.739-57.2,14.2-66.24s-3.708-9.966-23.872-3.94-40.56,23.872-40.56,23.872l2.549,11.588c7.417-4.635,32.911-9.271,32.911-9.271a70.236,70.236,0,0,0-4.635,21.786C283.932,344.565,277.442,370.523,273.5,377.477Z" transform="translate(-253.57 -280.942)" fill="#fff" opacity="0.53"/>
      <path id="Path_525" data-name="Path 525" d="M308.2,287.964c-.362-3.291-36.212,11.885-51.332,18.43-2.1,1.669-3.3,2.726-3.3,2.726l2.549,11.588c7.417-4.635,32.911-9.271,32.911-9.271a70.235,70.235,0,0,0-4.635,21.786c-.464,11.82-6.953,37.778-10.893,44.731-.3.519-.63,1.02-.983,1.52a26.255,26.255,0,0,1,7.417,1.919c5.553-11.848,11.533-25.634,14.36-36.416C299.4,325.51,308.666,292.136,308.2,287.964Z" transform="translate(-253.57 -281.42)" opacity="0.14"/>
      <path id="Path_526" data-name="Path 526" d="M291.82,311.752s6.953-14.138,12.979-19.932" transform="translate(-256.359 -281.735)" fill="none" stroke="#263238" stroke-linecap="round" stroke-linejoin="round" stroke-width="1"/>
    </g>
    <path id="Path_528" data-name="Path 528" d="M273.5,377.477c-.3.519-.63,1.02-.983,1.52a23.817,23.817,0,0,1,13.035,5.433,40.963,40.963,0,0,1,3.171,3.069c4.441-5.97,9.438-24.8,15.074-32.55,14.564-20.016,13.739-57.2,14.2-66.24s-3.708-9.966-23.872-3.94-40.56,23.872-40.56,23.872l2.549,11.588c7.417-4.635,32.911-9.271,32.911-9.271a70.236,70.236,0,0,0-4.635,21.786C283.932,344.565,277.442,370.523,273.5,377.477Z" transform="translate(-61.849 1286.907)" fill="none" stroke="#263238" stroke-linecap="round" stroke-linejoin="round" stroke-width="1"/>
    <path id="Path_529" data-name="Path 529" d="M220.6,330.039a79.728,79.728,0,0,0,21.925-4.125c10.485-3.82-8.585-10.81-15.89-6.99a10.856,10.856,0,0,0-6.035,11.116Z" transform="translate(-59.439 1284.218)" fill="#263238" stroke="#263238" stroke-linecap="round" stroke-linejoin="round" stroke-width="1"/>
    <path id="Path_530" data-name="Path 530" d="M187.257,313.459s-7.417,4.172-9.966,8.807,8.418,12.358,20.006,11.894,32.837-13.053,32.837-13.053.232,20.4,4.172,27.812,22.018,25.495,29.2,30.13,31.289,22.018,35,24.8,10.661,7.88,12.284,8.112,18.542-20.4,22.482-27.349,7.417-21.555,6.026-24.8-4.172-.464-6.953,1.854-28.276,19.237-30.594,20.4a25.438,25.438,0,0,1-3.94,1.622s-20.859-19.932-31.984-35.229-12.052-35-16.224-42.414-10.2-10.661-19.237-9.734S202.554,302.1,187.257,313.459Z" transform="translate(-56.259 1285.798)" fill="#fff"/>
    <g id="Group_145" data-name="Group 145" transform="translate(120.659 1581.951)" clip-path="url(#clip-path-8)">
      <path id="Path_531" data-name="Path 531" d="M293.85,401.567c6.193,4.431,11.579,8.344,13.183,9.549,3.708,2.781,10.661,7.88,12.284,8.112.575.083,3.078-2.466,6.239-6.091L299.014,396.06Z" transform="translate(-185.446 -303.439)" fill="#a858e1"/>
      <path id="Path_532" data-name="Path 532" d="M293.85,401.567c6.193,4.431,11.579,8.344,13.183,9.549,3.708,2.781,10.661,7.88,12.284,8.112.575.083,3.078-2.466,6.239-6.091L299.014,396.06Z" transform="translate(-185.446 -303.439)" fill="#fff" opacity="0.5"/>
    </g>
    <path id="Path_534" data-name="Path 534" d="M187.257,313.459s-7.417,4.172-9.966,8.807,8.418,12.358,20.006,11.894,32.837-13.053,32.837-13.053.232,20.4,4.172,27.812,22.018,25.495,29.2,30.13,31.289,22.018,35,24.8,10.661,7.88,12.284,8.112,18.542-20.4,22.482-27.349,7.417-21.555,6.026-24.8-4.172-.464-6.953,1.854-28.276,19.237-30.594,20.4a25.438,25.438,0,0,1-3.94,1.622s-20.859-19.932-31.984-35.229-12.052-35-16.224-42.414-10.2-10.661-19.237-9.734S202.554,302.1,187.257,313.459Z" transform="translate(-56.259 1285.798)" fill="none" stroke="#263238" stroke-linecap="round" stroke-linejoin="round" stroke-width="1"/>
    <path id="Path_535" data-name="Path 535" d="M296.148,382.28c-4.9-4.784-23.288-29.453-30.547-43.637-10.634-20.785-11.783-27.868-15.955-35.285s-10.467-7.991-19.469-7.064-25.216,2.605-45.056,13.86c0,0-8.344,4.524-10.884,9.159s6.74,16.307,22.871,14.833c11.551-1.057,32.837-13.053,32.837-13.053s.232,20.4,4.172,27.812,22.018,25.495,29.2,30.13c4.552,2.939,15.909,11,24.558,17.216C290.011,388.491,293.839,384.245,296.148,382.28Z" transform="translate(-56.034 1285.812)" fill="#263238"/>
    <g id="Group_146" data-name="Group 146" transform="translate(117.788 1581.769)" clip-path="url(#clip-path-9)">
      <path id="Path_536" data-name="Path 536" d="M296.148,382.28c-4.9-4.784-23.288-29.453-30.547-43.637-10.634-20.785-11.783-27.868-15.955-35.285s-10.467-7.991-19.469-7.064-25.216,2.605-45.056,13.86c0,0-8.344,4.524-10.884,9.159s6.74,16.307,22.871,14.833c11.551-1.057,32.837-13.053,32.837-13.053s.232,20.4,4.172,27.812,22.018,25.495,29.2,30.13c4.552,2.939,15.909,11,24.558,17.216C290.011,388.491,293.839,384.245,296.148,382.28Z" transform="translate(-173.821 -295.957)" fill="#fff" opacity="0.53"/>
      <path id="Path_537" data-name="Path 537" d="M249.561,349.675c-6.953-17.614-2.781-52.843-22.25-48.208-14.184,3.375-40.189,15.371-53.251,21.629,1.548,5.321,10.077,12.608,23.029,11.422,11.551-1.057,32.837-13.053,32.837-13.053s.232,20.4,4.172,27.812,22.018,25.495,29.2,30.13c4.552,2.939,15.909,11,24.558,17.216a33.134,33.134,0,0,1,3.235-7.76C273.832,376.1,253.446,359.512,249.561,349.675Z" transform="translate(-173.839 -296.328)" opacity="0.14"/>
      <line id="Line_104" data-name="Line 104" x1="0.695" y1="12.052" transform="translate(55.391 13.084)" fill="none" stroke="#263238" stroke-linecap="round" stroke-linejoin="round" stroke-width="1"/>
    </g>
    <path id="Path_539" data-name="Path 539" d="M296.148,382.28c-4.9-4.784-23.288-29.453-30.547-43.637-10.634-20.785-11.783-27.868-15.955-35.285s-10.467-7.991-19.469-7.064-25.216,2.605-45.056,13.86c0,0-8.344,4.524-10.884,9.159s6.74,16.307,22.871,14.833c11.551-1.057,32.837-13.053,32.837-13.053s.232,20.4,4.172,27.812,22.018,25.495,29.2,30.13c4.552,2.939,15.909,11,24.558,17.216C290.011,388.491,293.839,384.245,296.148,382.28Z" transform="translate(-56.034 1285.812)" fill="none" stroke="#263238" stroke-linecap="round" stroke-linejoin="round" stroke-width="1"/>
    <path id="Path_540" data-name="Path 540" d="M307.953,408.74c3.708,2.781,10.661,7.88,12.284,8.112s18.542-20.4,22.482-27.349,7.417-21.555,6.026-24.8-4.172-.464-6.953,1.854-28.276,19.237-30.594,20.4c-.612.306-1.168.556-1.659.77-.668,1.27-1.483,3.235-.927,4.561.927,2.086,4.867,4.867,4.867,4.867l-7.018,10.513Z" transform="translate(-65.706 1280.907)" fill="#263238" stroke="#263238" stroke-linecap="round" stroke-linejoin="round" stroke-width="1"/>
    <path id="Path_541" data-name="Path 541" d="M343.492,389.5c3.94-6.953,7.417-21.555,6.026-24.8-.807-1.854-2.077-1.734-3.551-.825.973,4.329,0,12.682-4.793,21.684-4.274,8.029-17.475,22.25-24.1,29.129a15.557,15.557,0,0,0,3.959,2.16C322.632,417.085,339.552,396.457,343.492,389.5Z" transform="translate(-66.48 1280.906)" fill="#fff"/>
    <g id="Group_147" data-name="Group 147" transform="translate(250.59 1644.145)" clip-path="url(#clip-path-10)">
      <path id="Path_542" data-name="Path 542" d="M321.237,420.321l.2-.1.056-.046a1.984,1.984,0,0,0,.315-.222l.111-.093.269-.222.148-.139.362-.334.223-.213.306-.3.26-.26.26-.26.658-.7.111-.111.408-.445.167-.176c.482-.528,1-1.1,1.539-1.715v-.046l.575-.649h0l-4.051-2.605c-2.3,2.5-4.441,4.765-6.147,6.536h0l.621.408.093.056.575.362h0l.927.528.26.148.26.139.3.148.195.093a2.4,2.4,0,0,0,.287.12l.139.056a1.409,1.409,0,0,0,.334.093.351.351,0,0,0,.176,0Z" transform="translate(-317.066 -366.772)" fill="#a858e1"/>
      <path id="Path_543" data-name="Path 543" d="M321.237,420.321l.2-.1.056-.046a1.984,1.984,0,0,0,.315-.222l.111-.093.269-.222.148-.139.362-.334.223-.213.306-.3.26-.26.26-.26.658-.7.111-.111.408-.445.167-.176c.482-.528,1-1.1,1.539-1.715v-.046l.575-.649h0l-4.051-2.605c-2.3,2.5-4.441,4.765-6.147,6.536h0l.621.408.093.056.575.362h0l.927.528.26.148.26.139.3.148.195.093a2.4,2.4,0,0,0,.287.12l.139.056a1.409,1.409,0,0,0,.334.093.351.351,0,0,0,.176,0Z" transform="translate(-317.066 -366.772)" fill="#fff" opacity="0.5"/>
    </g>
    <path id="Path_545" data-name="Path 545" d="M343.492,389.5c3.94-6.953,7.417-21.555,6.026-24.8-.807-1.854-2.077-1.734-3.551-.825.973,4.329,0,12.682-4.793,21.684-4.274,8.029-17.475,22.25-24.1,29.129a15.557,15.557,0,0,0,3.959,2.16C322.632,417.085,339.552,396.457,343.492,389.5Z" transform="translate(-66.48 1280.906)" fill="none" stroke="#263238" stroke-linecap="round" stroke-linejoin="round" stroke-width="1"/>
    <path id="Path_546" data-name="Path 546" d="M302.42,424.418c-6.953-4.4-14.833-16.687-15.065-20.859a6.581,6.581,0,0,1,.111-1.363,6.629,6.629,0,0,0-3.82,1.363,88.611,88.611,0,0,0-9.039-7.185,18.932,18.932,0,0,0-8.344-2.494c-3.365,2.781-6.49,5.006-6.981,6.9-.927,3.477,5.331,17.383,20.4,27.117s20.164,8.112,24.568,7.185S309.373,428.822,302.42,424.418Z" transform="translate(-62.259 1278.671)" fill="#263238" stroke="#263238" stroke-linecap="round" stroke-linejoin="round" stroke-width="1"/>
    <path id="Path_547" data-name="Path 547" d="M302.422,424.758a30.287,30.287,0,0,1-6.174-5.562c-4.784-2.04-11.171-4.635-16.771-8.121-6.026-3.708-4.635-6.026-8.112-9.5-2.67-2.67-7.917-3.013-10.2-3.032a6.406,6.406,0,0,0-1.854,2.568c-.927,3.477,5.331,17.383,20.4,27.117s20.164,8.112,24.568,7.185S309.375,429.161,302.422,424.758Z" transform="translate(-62.261 1278.332)" fill="#fff"/>
    <g id="Group_148" data-name="Group 148" transform="translate(196.962 1676.872)" clip-path="url(#clip-path-11)">
      <path id="Path_548" data-name="Path 548" d="M302.422,424.758a30.287,30.287,0,0,1-6.174-5.562c-4.784-2.04-11.171-4.635-16.771-8.121-6.026-3.708-4.635-6.026-8.112-9.5-2.67-2.67-7.917-3.013-10.2-3.032a6.406,6.406,0,0,0-1.854,2.568c-.927,3.477,5.331,17.383,20.4,27.117s20.164,8.112,24.568,7.185S309.375,429.161,302.422,424.758Z" transform="translate(-259.224 -398.54)" fill="#a858e1"/>
      <path id="Path_549" data-name="Path 549" d="M302.422,424.758a30.287,30.287,0,0,1-6.174-5.562c-4.784-2.04-11.171-4.635-16.771-8.121-6.026-3.708-4.635-6.026-8.112-9.5-2.67-2.67-7.917-3.013-10.2-3.032a6.406,6.406,0,0,0-1.854,2.568c-.927,3.477,5.331,17.383,20.4,27.117s20.164,8.112,24.568,7.185S309.375,429.161,302.422,424.758Z" transform="translate(-259.224 -398.54)" fill="#fff" opacity="0.5"/>
    </g>
    <path id="Path_551" data-name="Path 551" d="M302.422,424.758a30.287,30.287,0,0,1-6.174-5.562c-4.784-2.04-11.171-4.635-16.771-8.121-6.026-3.708-4.635-6.026-8.112-9.5-2.67-2.67-7.917-3.013-10.2-3.032a6.406,6.406,0,0,0-1.854,2.568c-.927,3.477,5.331,17.383,20.4,27.117s20.164,8.112,24.568,7.185S309.375,429.161,302.422,424.758Z" transform="translate(-62.261 1278.332)" fill="none" stroke="#263238" stroke-linecap="round" stroke-linejoin="round" stroke-width="1"/>
    <path id="Path_552" data-name="Path 552" d="M303.583,426.527c-6.026-3.477-18.31-5.794-26.19-11.125s-5.794-9.966-11.588-13.674a5.887,5.887,0,0,0-6.49-.371c-.807,3.616,5.47,17.364,20.4,27.024s20.164,8.112,24.568,7.185c2.93-.621,4.2-3.18,2.689-6.119A12.647,12.647,0,0,0,303.583,426.527Z" transform="translate(-62.263 1278.185)" fill="#263238"/>
    <g id="Group_149" data-name="Group 149" transform="translate(196.983 1678.74)" clip-path="url(#clip-path-12)">
      <path id="Path_553" data-name="Path 553" d="M303.583,426.527c-6.026-3.477-18.31-5.794-26.19-11.125s-5.794-9.966-11.588-13.674a5.887,5.887,0,0,0-6.49-.371c-.807,3.616,5.47,17.364,20.4,27.024s20.164,8.112,24.568,7.185c2.93-.621,4.2-3.18,2.689-6.119A12.647,12.647,0,0,0,303.583,426.527Z" transform="translate(-259.246 -400.556)" fill="#fff" opacity="0.53"/>
    </g>
    <path id="Path_555" data-name="Path 555" d="M303.583,426.527c-6.026-3.477-18.31-5.794-26.19-11.125s-5.794-9.966-11.588-13.674a5.887,5.887,0,0,0-6.49-.371c-.807,3.616,5.47,17.364,20.4,27.024s20.164,8.112,24.568,7.185c2.93-.621,4.2-3.18,2.689-6.119A12.647,12.647,0,0,0,303.583,426.527Z" transform="translate(-62.263 1278.185)" fill="none" stroke="#263238" stroke-linecap="round" stroke-linejoin="round" stroke-width="1"/>
    <path id="Path_556" data-name="Path 556" d="M182.24,380.528s4.45-5.4,5.08-1.27-.315,11.755-3.5,14.611-4.765-1.585-4.765-1.585l1.91-2.54s1.585,3.18,2.855-1.91-2.54-4.45-2.54-4.45Z" transform="translate(-56.416 1279.851)" fill="#fff" stroke="#263238" stroke-linecap="round" stroke-linejoin="round" stroke-width="1"/>
    <path id="Path_557" data-name="Path 557" d="M177.362,400.8c-2.633,1.947-11.218,1.947-13.841,0-5.562-4.126-4.635-24.058-4.635-24.058h23.047S182.934,396.672,177.362,400.8Z" transform="translate(-54.94 1279.921)" fill="#fff" stroke="#263238" stroke-linecap="round" stroke-linejoin="round" stroke-width="1"/>
    <path id="Path_558" data-name="Path 558" d="M161.61,370.545c0-2.5,2.327-2.5,2.327-5.016s-2.327-2.512-2.327-5.015,2.327-2.512,2.327-5.025-2.327-2.512-2.327-5.025,2.327-2.512,2.327-5.025" transform="translate(-55.143 1282.204)" fill="none" stroke="#263238" stroke-linecap="round" stroke-linejoin="round" stroke-width="1"/>
    <path id="Path_559" data-name="Path 559" d="M170.2,371.021c0-1.854,2.327-1.854,2.327-3.81s-2.327-1.9-2.327-3.81,2.327-1.9,2.327-3.81-2.327-1.91-2.327-3.82,2.327-1.9,2.327-3.81" transform="translate(-55.77 1281.728)" fill="none" stroke="#263238" stroke-linecap="round" stroke-linejoin="round" stroke-width="1"/>
    <path id="Path_560" data-name="Path 560" d="M179.65,370.545c0-2.5,2.318-2.5,2.318-5.016s-2.318-2.512-2.318-5.015,2.318-2.512,2.318-5.025-2.318-2.512-2.318-5.025,2.318-2.512,2.318-5.025" transform="translate(-56.459 1282.204)" fill="none" stroke="#263238" stroke-linecap="round" stroke-linejoin="round" stroke-width="1"/>
    <path id="Path_561" data-name="Path 561" d="M181.957,376.658c0,.584-5.155,1.048-11.524,1.048s-11.524-.464-11.524-1.048,5.155-1.048,11.524-1.048S181.957,376.074,181.957,376.658Z" transform="translate(-54.946 1280.004)" fill="#fff" stroke="#263238" stroke-linecap="round" stroke-linejoin="round" stroke-width="1"/>
    <path id="Path_562" data-name="Path 562" d="M206.72,221.978s1.085,11.709,1.539,15.408,1.483,14.323,2.549,17.837,6.879,9.623,7.417,8.214,3.43-10.967,2.281-16.687-1.5-10.606-.788-12.052S223,231.629,223,231.629a93.11,93.11,0,0,1-8.705-5.071C210.2,223.832,207.295,220.745,206.72,221.978Z" transform="translate(-58.433 1291.228)" fill="#fff"/>
    <g id="Group_150" data-name="Group 150" transform="translate(148.287 1512.926)" clip-path="url(#clip-path-13)">
      <path id="Path_563" data-name="Path 563" d="M221.6,232.261l-.927-1.8c-1.706-.927-4.079-2.3-6.332-3.81-4.125-2.781-7.027-5.905-7.6-4.635,0,0,1.085,11.709,1.539,15.408s1.483,14.323,2.549,17.837a11.987,11.987,0,0,0,1.493,2.892c-1.122-6.99.093-19.617.093-19.617Z" transform="translate(-206.721 -221.701)" fill="#a858e1"/>
      <path id="Path_564" data-name="Path 564" d="M221.6,232.261l-.927-1.8c-1.706-.927-4.079-2.3-6.332-3.81-4.125-2.781-7.027-5.905-7.6-4.635,0,0,1.085,11.709,1.539,15.408s1.483,14.323,2.549,17.837a11.987,11.987,0,0,0,1.493,2.892c-1.122-6.99.093-19.617.093-19.617Z" transform="translate(-206.721 -221.701)" fill="#fff" opacity="0.5"/>
    </g>
    <path id="Path_566" data-name="Path 566" d="M206.72,221.978s1.085,11.709,1.539,15.408,1.483,14.323,2.549,17.837,6.879,9.623,7.417,8.214,3.43-10.967,2.281-16.687-1.5-10.606-.788-12.052S223,231.629,223,231.629a93.11,93.11,0,0,1-8.705-5.071C210.2,223.832,207.295,220.745,206.72,221.978Z" transform="translate(-58.433 1291.228)" fill="none" stroke="#263238" stroke-linecap="round" stroke-linejoin="round" stroke-width="1"/>
    <path id="Path_567" data-name="Path 567" d="M205.86,221.586s6.675,5.562,11.792,7.6,12.979,1.91,14.1-.751-1.947-23.733-4.589-29.277-5.46-5.637-10.124-6.063-13.99,3.375-15.631,7.88.232,10.884,1.585,14.666a27.812,27.812,0,0,0,2.865,5.943Z" transform="translate(-57.999 1293.315)" fill="#fff"/>
    <g id="Group_151" data-name="Group 151" transform="translate(142.77 1486.38)" clip-path="url(#clip-path-14)">
      <path id="Path_568" data-name="Path 568" d="M217.844,221.336c-2.364-7.009-2.957-18.041-2.957-20.98,0-2.271,5.915-4.765,8.613-5.785-1.771-1.094-3.829-1.233-6.49-1.474-4.635-.417-13.99,3.375-15.63,7.88s.232,10.884,1.585,14.666a27.813,27.813,0,0,0,2.865,5.943s6.675,5.562,11.792,7.6a21.239,21.239,0,0,0,11.125,1.066C225.085,228.873,219.421,226.018,217.844,221.336Z" transform="translate(-200.767 -193.065)" fill="#a858e1"/>
      <path id="Path_569" data-name="Path 569" d="M217.844,221.336c-2.364-7.009-2.957-18.041-2.957-20.98,0-2.271,5.915-4.765,8.613-5.785-1.771-1.094-3.829-1.233-6.49-1.474-4.635-.417-13.99,3.375-15.63,7.88s.232,10.884,1.585,14.666a27.813,27.813,0,0,0,2.865,5.943s6.675,5.562,11.792,7.6a21.239,21.239,0,0,0,11.125,1.066C225.085,228.873,219.421,226.018,217.844,221.336Z" transform="translate(-200.767 -193.065)" fill="#fff" opacity="0.5"/>
    </g>
    <path id="Path_571" data-name="Path 571" d="M205.86,221.586s6.675,5.562,11.792,7.6,12.979,1.91,14.1-.751-1.947-23.733-4.589-29.277-5.46-5.637-10.124-6.063-13.99,3.375-15.631,7.88.232,10.884,1.585,14.666a27.812,27.812,0,0,0,2.865,5.943Z" transform="translate(-57.999 1293.315)" fill="none" stroke="#263238" stroke-linecap="round" stroke-linejoin="round" stroke-width="1"/>
    <path id="Path_572" data-name="Path 572" d="M229.164,208.634c.111,2.67-1.567,4.9-3.708,4.988s-4.014-2-4.116-4.635,1.567-4.9,3.708-5S229.062,205.937,229.164,208.634Z" transform="translate(-59.498 1292.519)" fill="none" stroke="#263238" stroke-linecap="round" stroke-linejoin="round" stroke-width="1"/>
    <path id="Path_573" data-name="Path 573" d="M235.107,207.506c.111,2.67-.751,4.867-1.919,4.914s-2.206-2.077-2.308-4.747.76-4.876,1.928-4.923S235,204.836,235.107,207.506Z" transform="translate(-60.194 1292.609)" fill="none" stroke="#263238" stroke-linecap="round" stroke-linejoin="round" stroke-width="1"/>
    <path id="Path_574" data-name="Path 574" d="M230.08,207.94s7.658,1.456,6.916,3.3-5.915,3.838-5.915,3.838" transform="translate(-60.136 1292.231)" fill="#fff" stroke="#263238" stroke-linecap="round" stroke-linejoin="round" stroke-width="1"/>
    <path id="Path_575" data-name="Path 575" d="M229.57,206.958s.111-.927,1.289-.343" transform="translate(-60.099 1292.341)" fill="none" stroke="#263238" stroke-linecap="round" stroke-linejoin="round" stroke-width="1"/>
    <line id="Line_105" data-name="Line 105" x1="13.925" y2="5.479" transform="translate(147.675 1501.876)" fill="none" stroke="#263238" stroke-linecap="round" stroke-linejoin="round" stroke-width="1"/>
    <path id="Path_576" data-name="Path 576" d="M221.28,204.755a3.532,3.532,0,0,1,3.467-2.1" transform="translate(-59.495 1292.616)" fill="none" stroke="#263238" stroke-linecap="round" stroke-linejoin="round" stroke-width="2"/>
    <line id="Line_106" data-name="Line 106" x1="2.142" y2="0.807" transform="translate(168.915 1495.341)" fill="none" stroke="#263238" stroke-linecap="round" stroke-linejoin="round" stroke-width="2"/>
    <path id="Path_577" data-name="Path 577" d="M224.14,219.488s2.781-.723,4.357.927" transform="translate(-59.703 1291.4)" fill="none" stroke="#263238" stroke-linecap="round" stroke-linejoin="round" stroke-width="1"/>
    <path id="Path_578" data-name="Path 578" d="M225.97,209.394c.13.927,0,1.724-.38,1.771s-.714-.667-.844-1.6.046-1.715.389-1.761S225.85,208.467,225.97,209.394Z" transform="translate(-59.744 1292.241)" fill="#263238"/>
    <path id="Path_579" data-name="Path 579" d="M206.374,212.882s-.927,1.854,1.687,1.947,4.394-1.177,3.124-2.781-3.152-3.106-1.214-5.2,5.7-3.857,3.588-6.193-9.892-.213-7.945-2.1,10.939-3.866,14.982-3.616,11.588-2.883,13.248-6.981-.658-11.672-6.091-11.264-9.484,5.219-11.894,5.562-7.352-2.336-11.5,0-4.283,9.048-4.635,9.873-5.97,2.049-6.962,7.732a15.148,15.148,0,0,0,3.912,12.8c2.327,2.531,3.375,3.5,3.375,3.5Z" transform="translate(-57.401 1294.511)" fill="#263238" stroke="#263238" stroke-linecap="round" stroke-linejoin="round" stroke-width="1"/>
    <path id="Path_580" data-name="Path 580" d="M194.739,204.65a4.4,4.4,0,0,0,.593,2.466" transform="translate(-57.559 1292.471)" fill="none" stroke="#fff" stroke-linecap="round" stroke-linejoin="round" stroke-width="0.75"/>
    <path id="Path_581" data-name="Path 581" d="M218.443,188.472s-2.021-4.422,3.134-4.422,5.9,6.49.556,8.844-16.956,2.948-23.223,5.72a8.149,8.149,0,0,0-3.189,2.253" transform="translate(-57.631 1293.973)" fill="none" stroke="#fff" stroke-linecap="round" stroke-linejoin="round" stroke-width="0.75"/>
    <path id="Path_582" data-name="Path 582" d="M209.306,205.76c-1.854.667-4.255,1.595-6.693,2.726-5.164,2.4-4.061,4.793-4.061,4.793" transform="translate(-57.83 1292.39)" fill="none" stroke="#fff" stroke-linecap="round" stroke-linejoin="round" stroke-width="0.75"/>
    <path id="Path_583" data-name="Path 583" d="M213.774,204.53s-.454.13-1.224.38" transform="translate(-58.858 1292.479)" fill="none" stroke="#fff" stroke-linecap="round" stroke-linejoin="round" stroke-width="0.75"/>
    <path id="Path_584" data-name="Path 584" d="M207.807,217.634s-2.994-4.32-6.147-2.587-.7,7.9,1.2,10.04,5.562-1.854,5.943-2.855" transform="translate(-57.953 1291.742)" fill="#fff"/>
    <g id="Group_152" data-name="Group 152" transform="translate(142.192 1506.38)" clip-path="url(#clip-path-15)">
      <path id="Path_585" data-name="Path 585" d="M207.807,217.634s-2.994-4.32-6.147-2.587-.7,7.9,1.2,10.04,5.562-1.854,5.943-2.855" transform="translate(-200.145 -214.637)" fill="#a858e1"/>
      <path id="Path_586" data-name="Path 586" d="M207.807,217.634s-2.994-4.32-6.147-2.587-.7,7.9,1.2,10.04,5.562-1.854,5.943-2.855" transform="translate(-200.145 -214.637)" fill="#fff" opacity="0.5"/>
    </g>
    <path id="Path_588" data-name="Path 588" d="M207.807,217.634s-2.994-4.32-6.147-2.587-.7,7.9,1.2,10.04,5.562-1.854,5.943-2.855" transform="translate(-57.953 1291.742)" fill="none" stroke="#263238" stroke-linecap="round" stroke-linejoin="round" stroke-width="1"/>
    <rect id="Rectangle_224" data-name="Rectangle 224" width="75.946" height="58.072" rx="5.12" transform="translate(40.839 1505.437)" fill="#fff" stroke="#263238" stroke-linecap="round" stroke-linejoin="round" stroke-width="1"/>
    <path id="Path_589" data-name="Path 589" d="M171.18,257.878l44.5,11.588-44.5-21.786" transform="translate(-55.841 1289.333)" fill="#fff" stroke="#263238" stroke-linecap="round" stroke-linejoin="round" stroke-width="1"/>
    <rect id="Rectangle_225" data-name="Rectangle 225" width="17.865" height="46.91" transform="translate(46.976 1511.018)" fill="#a858e1" stroke="#263238" stroke-linecap="round" stroke-linejoin="round" stroke-width="1"/>
    <rect id="Rectangle_226" data-name="Rectangle 226" width="2.234" height="46.91" transform="translate(110.611 1511.018)" fill="#a858e1" stroke="#263238" stroke-linecap="round" stroke-linejoin="round" stroke-width="1"/>
    <rect id="Rectangle_227" data-name="Rectangle 227" width="2.234" height="4.005" transform="translate(110.611 1532.461)" fill="#263238" stroke="#263238" stroke-linecap="round" stroke-linejoin="round" stroke-width="1"/>
    <line id="Line_107" data-name="Line 107" x2="35.183" transform="translate(70.431 1512.13)" fill="#fff" stroke="#263238" stroke-linecap="round" stroke-linejoin="round" stroke-width="1"/>
    <line id="Line_108" data-name="Line 108" x2="35.183" transform="translate(70.431 1517.155)" fill="#fff" stroke="#263238" stroke-linecap="round" stroke-linejoin="round" stroke-width="1"/>
    <line id="Line_109" data-name="Line 109" x2="35.183" transform="translate(70.431 1522.189)" fill="#fff" stroke="#263238" stroke-linecap="round" stroke-linejoin="round" stroke-width="1"/>
    <line id="Line_110" data-name="Line 110" x2="35.183" transform="translate(70.431 1527.214)" fill="#fff" stroke="#263238" stroke-linecap="round" stroke-linejoin="round" stroke-width="1"/>
    <line id="Line_111" data-name="Line 111" x2="35.183" transform="translate(70.431 1539.497)" fill="#fff" stroke="#263238" stroke-linecap="round" stroke-linejoin="round" stroke-width="1"/>
    <line id="Line_112" data-name="Line 112" x2="35.183" transform="translate(70.431 1543.966)" fill="#fff" stroke="#263238" stroke-linecap="round" stroke-linejoin="round" stroke-width="1"/>
    <line id="Line_113" data-name="Line 113" x2="35.183" transform="translate(70.431 1548.434)" fill="#fff" stroke="#263238" stroke-linecap="round" stroke-linejoin="round" stroke-width="1"/>
    <line id="Line_114" data-name="Line 114" x2="35.183" transform="translate(70.431 1557.705)" fill="#fff" stroke="#263238" stroke-linecap="round" stroke-linejoin="round" stroke-width="1"/>
    <line id="Line_115" data-name="Line 115" y1="46.901" x2="17.874" transform="translate(46.976 1511.018)" fill="none" stroke="#263238" stroke-linecap="round" stroke-linejoin="round" stroke-width="1"/>
    <ellipse id="Ellipse_36" data-name="Ellipse 36" cx="15.51" cy="6.953" rx="15.51" ry="6.953" transform="translate(300.717 1673.831)" fill="#a858e1"/>
    <ellipse id="Ellipse_37" data-name="Ellipse 37" cx="15.51" cy="6.953" rx="15.51" ry="6.953" transform="translate(300.717 1673.831)" fill="#fff" opacity="0.5"/>
    <path id="Path_590" data-name="Path 590" d="M368.025,291.245c1.659.723,5.72.63,5.72.63s-.871-2.661-.927-2.781c-.927-1.854-3.708-4.941-6-4.635a2.781,2.781,0,0,0-2.2,3.43C364.966,289.446,366.607,290.623,368.025,291.245Z" transform="translate(-69.941 1286.652)" fill="#263238"/>
    <path id="Path_591" data-name="Path 591" d="M421.238,276.5c-2.3-.241-5.034,2.9-5.878,4.793-.074.167-.927,2.846-.871,2.846h.046c-.436.491-.927,1.029-1.381,1.622-.927,1.1-1.91,2.355-2.911,3.8a47.709,47.709,0,0,0-3.013,4.8,35.666,35.666,0,0,0-2.577,5.8.175.175,0,0,0,0,.074c0-.677,0-2.577,0-2.726-.269-2.04-1.984-5.85-4.265-6.267a2.781,2.781,0,0,0-3.152,2.577c-.13,1.622,1.048,3.254,2.2,4.283,1.3,1.159,4.895,2.281,5.182,2.364a50.165,50.165,0,0,0-1.52,6.286c-.223,1.242-.4,2.494-.575,3.755v-1.187c-.269-2.049-1.984-5.85-4.255-6.267a2.781,2.781,0,0,0-3.161,2.568c-.13,1.632,1.048,3.254,2.2,4.283s4.218,2.067,5.034,2.327c-.056.482-.121.927-.185,1.446-.278,2.318-.538,4.635-.871,6.907-.121.8-.26,1.576-.4,2.355v-1.02c-.269-2.049-1.984-5.85-4.265-6.276a2.781,2.781,0,0,0-3.152,2.577c-.13,1.632,1.048,3.254,2.2,4.283a16.791,16.791,0,0,0,4.886,2.271c-.167.8-.343,1.595-.538,2.364-.148.519-.26,1.029-.436,1.539s-.324,1.02-.491,1.52c-.343.927-.7,1.947-1.057,2.865-.25.649-.5,1.261-.742,1.854.121-.8.334-2.355.334-2.485a10.624,10.624,0,0,0-1.418-5.173,4.383,4.383,0,0,0,0-.6,2.781,2.781,0,0,0-3.347-2.318c-2.234.593-3.653,4.515-3.764,6.573,0,.13.074,1.455.139,2.29-.111-.482-.213-.927-.334-1.455-.241-.992-.5-1.975-.779-3.022-.158-.51-.306-1.02-.464-1.53s-.362-1.038-.538-1.567c-.445-1.205-.927-2.41-1.493-3.616.871-.2,3.931-.983,5.164-1.928s2.522-2.475,2.5-4.107a2.726,2.726,0,0,0-2.948-2.781c-2.308.25-4.3,3.912-4.719,5.933,0,.13-.158,1.613-.222,2.429-.324-.723-.649-1.437-1-2.16-1.029-2.067-2.132-4.125-3.226-6.193-.343-.63-.667-1.261-.992-1.9.306-.065,3.968-.927,5.34-1.975,1.224-.927,2.522-2.475,2.512-4.107a2.781,2.781,0,0,0-2.957-2.781c-2.3.25-4.292,3.912-4.71,5.933,0,.148-.222,2.29-.25,2.837-.723-1.4-1.428-2.781-2.077-4.2a48.529,48.529,0,0,1-2.253-5.822c.139,0,3.968-.927,5.377-1.984,1.224-.927,2.522-2.475,2.512-4.107a2.781,2.781,0,0,0-2.957-2.781c-2.3.25-4.292,3.912-4.71,5.933,0,.167-.241,2.466-.25,2.883a1.323,1.323,0,0,0-.121-.352,35.011,35.011,0,0,1-1.168-6.156c-.13-1.14-.185-2.253-.223-3.328.732-.083,4.051-.528,5.433-1.363s2.781-2.179,2.948-3.81a2.781,2.781,0,0,0-2.633-3.106c-2.318,0-4.7,3.421-5.34,5.377,0,.111-.26,1.233-.417,2.058V289c0-1.743.111-3.347.223-4.765.074-.807.148-1.53.232-2.216.668-.454,3.337-2.346,4.163-3.708s1.465-3.217.862-4.728a2.726,2.726,0,0,0-3.764-1.548c-2.058,1.057-2.6,5.192-2.262,7.231,0,.176.807,2.874.844,2.855h0c-.083.649-.176,1.354-.26,2.114-.139,1.418-.287,3.022-.324,4.784a49.372,49.372,0,0,0,.13,5.664,35.9,35.9,0,0,0,1.057,6.258.176.176,0,0,0,0,.074c-.362-.565-1.437-2.132-1.53-2.243-1.354-1.567-4.876-3.782-7.009-2.883a2.781,2.781,0,0,0-1.214,3.884c.788,1.437,2.67,2.142,4.2,2.364,1.715.25,5.34-.8,5.627-.881a49.323,49.323,0,0,0,2.2,6.072c.5,1.159,1.038,2.308,1.595,3.449a7.313,7.313,0,0,0-.677-.927c-1.354-1.558-4.886-3.782-7.009-2.883a2.781,2.781,0,0,0-1.214,3.894c.788,1.428,2.67,2.142,4.19,2.364s4.635-.612,5.479-.844c.213.436.426.871.649,1.307,1.048,2.1,2.1,4.172,3.078,6.239.343.732.649,1.465.927,2.2-.287-.436-.538-.788-.584-.844-1.354-1.557-4.886-3.782-7.009-2.883a2.781,2.781,0,0,0-1.214,3.894c.788,1.428,2.67,2.132,4.19,2.355s4.357-.528,5.331-.8c.3.76.6,1.52.853,2.271.167.51.362.992.491,1.52s.287,1.029.436,1.539c.232.992.482,2.012.7,2.976.148.677.278,1.316.408,1.965-.334-.732-1.02-2.142-1.085-2.253-1.1-1.752-4.255-4.487-6.49-3.912a2.726,2.726,0,0,0-1.789,3.662c.556,1.53,2.308,2.512,3.782,2.967,1.632.491,5.229,0,5.674,0,.213,1.075.417,2.123.584,3.115.612,3.43.983,6.313,1.214,8.344a7.56,7.56,0,0,0,.111.983h-6.962l2.234,43.665a6.248,6.248,0,0,0,6.239,5.924h0a6.239,6.239,0,0,0,6.23-5.923l2.244-43.667h-6.49c.046-.1.093-.195.148-.3.927-1.854,2.123-4.524,3.458-7.778.417-1.029.853-2.142,1.279-3.282.436.093,4,.816,5.655.436,1.511-.334,3.328-1.187,4-2.67a2.781,2.781,0,0,0-1.511-3.792c-2.2-.732-5.562,1.761-6.768,3.421-.074.093-.732,1.252-1.14,1.984.167-.473.343-.927.519-1.409.352-.927.667-1.91,1.02-2.948.148-.5.306-1.011.454-1.53s.278-1.066.417-1.6c.3-1.252.538-2.531.751-3.829.834.306,3.82,1.344,5.368,1.233s3.467-.677,4.357-2.04a2.781,2.781,0,0,0-.927-3.968c-2.058-1.066-5.739.927-7.2,2.345-.093.093-1.029,1.261-1.53,1.91.13-.788.25-1.567.352-2.355.287-2.3.5-4.635.723-6.953l.223-2.123c.3.111,3.82,1.418,5.562,1.3,1.539-.111,3.467-.677,4.357-2.04a2.781,2.781,0,0,0-.927-3.968c-2.058-1.066-5.748.927-7.2,2.345-.111.111-1.455,1.789-1.771,2.234.158-1.567.343-3.124.584-4.635a48.839,48.839,0,0,1,1.326-6.109c.139.056,3.81,1.437,5.563,1.307,1.539-.1,3.467-.668,4.357-2.04a2.781,2.781,0,0,0-.927-3.968c-2.058-1.057-5.739.927-7.2,2.355-.111.111-1.557,1.919-1.789,2.262a1.239,1.239,0,0,1,.093-.352,35.042,35.042,0,0,1,2.42-5.785c.519-1.029,1.085-1.984,1.65-2.892.658.324,3.708,1.789,5.284,1.854s3.514-.287,4.552-1.548a2.781,2.781,0,0,0-.473-4.051c-1.928-1.279-5.8.26-7.417,1.548-.083.074-.927.927-1.483,1.483l.779-1.233c.973-1.456,1.947-2.726,2.781-3.847.5-.64.973-1.2,1.409-1.724.816,0,4.088-.111,5.516-.779s2.994-1.854,3.337-3.477a2.781,2.781,0,0,0-2.309-3.523Zm-25.467,61.78c-1.391,3.2-2.67,5.813-3.588,7.621l-.5.992h-.158c-.046-.352-.093-.742-.158-1.177-.278-2.04-.714-4.941-1.4-8.344-.222-1.094-.473-2.262-.742-3.449a32.694,32.694,0,0,0,3.171-1.483,19.609,19.609,0,0,0,4.635,2.967C396.587,336.378,396.179,337.36,395.771,338.278Z" transform="translate(-69.976 1287.577)" fill="#263238"/>
    <path id="Path_592" data-name="Path 592" d="M412.15,291.932s.732-2.7.76-2.874c.287-2.049-.371-6.165-2.448-7.176a2.781,2.781,0,0,0-3.708,1.65c-.556,1.539.148,3.421.992,4.719C408.711,289.772,412.141,291.932,412.15,291.932Z" transform="translate(-73.005 1286.854)" fill="#263238"/>
  </g>
</svg>
