<svg xmlns="http://www.w3.org/2000/svg" xmlns:xlink="http://www.w3.org/1999/xlink" width="389.857" height="395.855" viewBox="0 0 389.857 395.855">
  <defs>
    <linearGradient id="linear-gradient" x1="0.5" x2="0.5" y2="1" gradientUnits="objectBoundingBox">
      <stop offset="0" stop-color="#e017ce"/>
      <stop offset="1" stop-color="#4cc1fe"/>
    </linearGradient>
    <filter id="Path_725" x="0" y="0" width="389.857" height="395.855" filterUnits="userSpaceOnUse">
      <feOffset dy="10" input="SourceAlpha"/>
      <feGaussianBlur stdDeviation="10" result="blur"/>
      <feFlood flood-color="#818181" flood-opacity="0.161"/>
      <feComposite operator="in" in2="blur"/>
      <feComposite in="SourceGraphic"/>
    </filter>
  </defs>
  <g id="Group-2" transform="translate(11.69 -1934.915)">
    <path id="Path_726" data-name="Path 726" d="M354.948,193.253A198.966,198.966,0,0,0,309.539,95.6c-13.922-16.137-32.023-33.7-53.791-47.564C200.856,13.075,132.853,23.008,104.582,58.156S25.117,249.94,28.938,291.2,144.314,369.9,216.9,360.732,351.38,304.954,357.493,253.761C359.892,233.7,358.058,212.1,354.948,193.253Z" transform="translate(-10.426 1928.642)" fill="#fff" opacity="0.7"/>
    <g transform="matrix(1, 0, 0, 1, -11.69, 1934.92)" filter="url(#Path_725)">
      <path id="Path_725-2" data-name="Path 725" d="M354.948,193.253A198.966,198.966,0,0,0,309.539,95.6c-13.922-16.137-32.023-33.7-53.791-47.564C200.856,13.075,132.853,23.008,104.582,58.156S25.117,249.94,28.938,291.2,144.314,369.9,216.9,360.732,351.38,304.954,357.493,253.761C359.892,233.7,358.058,212.1,354.948,193.253Z" transform="translate(1.26 -6.27)" opacity="0.3" fill="url(#linear-gradient)"/>
    </g>
    <line id="Line_126" data-name="Line 126" x2="58.07" transform="translate(298.93 2284.789)" fill="none" stroke="#263238" stroke-miterlimit="10" stroke-width="1"/>
    <line id="Line_127" data-name="Line 127" x2="205.538" transform="translate(86.515 2284.789)" fill="none" stroke="#263238" stroke-miterlimit="10" stroke-width="1"/>
    <line id="Line_128" data-name="Line 128" x2="57.306" transform="translate(20.804 2284.789)" fill="none" stroke="#263238" stroke-miterlimit="10" stroke-width="1"/>
    <g id="Group_157" data-name="Group 157" transform="translate(18 1952.842)" opacity="0.3">
      <path id="Path_727" data-name="Path 727" d="M453.059,112.851,458.11,114l1.184-5.219-4.707-1.077v-.6a11.463,11.463,0,0,0-.917-4.494l3.783-3.01-3.339-4.187-3.606,2.9a11.324,11.324,0,0,0-4.669-2.338V91.09H440.49v4.875a11.462,11.462,0,0,0-4.485,2.185L431.932,94.9l-3.339,4.187,4.134,3.293a11.461,11.461,0,0,0-1.016,4.523l-5.471,1.245,1.192,5.219,5.448-1.238a11.46,11.46,0,0,0,2.682,3.522l-2.514,5.211,4.829,2.292,2.414-5.012a11.461,11.461,0,0,0,2.873.382,11.623,11.623,0,0,0,1.643-.13l2.43,5.043,4.821-2.33-2.292-4.707a11.461,11.461,0,0,0,3.293-3.553Zm-18.032-5.784a8.137,8.137,0,1,1,8.13,8.13A8.137,8.137,0,0,1,435.027,107.067Z" transform="translate(-122.204 -39.492)" fill="none" stroke="#000" stroke-miterlimit="10" stroke-width="1"/>
      <path id="Path_728" data-name="Path 728" d="M453.059,158.136l5.051,1.154,1.184-5.219-4.707-1.077v-.611a11.391,11.391,0,0,0-.917-4.485l3.782-3.056-3.308-4.172-3.637,2.9a11.461,11.461,0,0,0-4.669-2.346V136.36H440.49v4.867a11.4,11.4,0,0,0-4.485,2.193l-4.073-3.255-3.339,4.187,4.134,3.3a11.461,11.461,0,0,0-1.016,4.516l-5.471,1.253,1.192,5.219,5.448-1.245a11.46,11.46,0,0,0,2.682,3.522l-2.514,5.219,4.829,2.292,2.414-5.012a11.462,11.462,0,0,0,2.873.374,11.619,11.619,0,0,0,1.643-.13l2.43,5.043,4.821-2.292-2.292-4.707a11.461,11.461,0,0,0,3.293-3.568Zm-18.032-5.754a8.13,8.13,0,1,1,2.373,5.763A8.137,8.137,0,0,1,435.027,152.383Z" transform="translate(-122.204 -50.172)" fill="none" stroke="#000" stroke-miterlimit="10" stroke-width="1"/>
      <path id="Path_729" data-name="Path 729" d="M285.081,401l3.966.9.932-4.1-3.7-.841v-.481a9.032,9.032,0,0,0-.711-3.522l2.965-2.361-2.621-3.286-2.858,2.292a8.926,8.926,0,0,0-3.66-1.841v-3.82h-4.2v3.82a8.947,8.947,0,0,0-3.515,1.719l-3.2-2.552-2.621,3.286,3.24,2.583a8.879,8.879,0,0,0-.764,3.553l-4.332.963.94,4.1,4.271-.978a9.031,9.031,0,0,0,2.109,2.766l-1.971,4.088,3.782,1.826,1.895-3.935a8.589,8.589,0,0,0,3.545.2l1.9,3.958,3.82-1.826-1.78-3.66a8.864,8.864,0,0,0,2.567-2.85Zm-14.151-4.516a6.38,6.38,0,1,1,1.869,4.519A6.388,6.388,0,0,1,270.93,396.489Z" transform="translate(-83.929 -108.583)" fill="none" stroke="#000" stroke-miterlimit="10" stroke-width="1"/>
      <path id="Path_730" data-name="Path 730" d="M207.057,45.29l5.089,1.177,1.184-5.219-4.707-1.077V39.56a11.393,11.393,0,0,0-.917-4.485l3.782-3.056-3.339-4.187L204.5,30.773a11.461,11.461,0,0,0-4.669-2.346V23.56h-5.349v4.867a11.4,11.4,0,0,0-4.5,2.193l-4.073-3.255-3.331,4.172,4.134,3.3a11.461,11.461,0,0,0-1.016,4.516l-5.471,1.253,1.192,5.219,5.448-1.245a11.461,11.461,0,0,0,2.682,3.522l-2.514,5.211,4.829,2.292,2.414-4.967a11.462,11.462,0,0,0,2.873.374,11.622,11.622,0,0,0,1.643-.13l2.43,5.043,4.821-2.292-2.292-4.707a11.461,11.461,0,0,0,3.3-3.637Zm-18.032-5.754a8.131,8.131,0,1,1,0,.023Z" transform="translate(-64.166 -23.56)" fill="none" stroke="#000" stroke-miterlimit="10" stroke-width="1"/>
      <path id="Path_731" data-name="Path 731" d="M89.534,164.233l4.271.97,1.009-4.416-3.989-.917v-.512a9.666,9.666,0,0,0-.764-3.82l3.2-2.56-2.827-3.545-3.056,2.46a9.742,9.742,0,0,0-3.958-1.987V145.78H78.875v4.126a9.612,9.612,0,0,0-3.82,1.857L71.631,149,68.8,152.55l3.5,2.819a9.673,9.673,0,0,0-.856,3.82l-4.638,1.054,1.009,4.424,4.584-1.054A9.772,9.772,0,0,0,74.7,166.6l-2.124,4.409,4.088,1.971,2.04-4.248a9.52,9.52,0,0,0,2.437.321,10.453,10.453,0,0,0,1.391-.107l2.055,4.271,4.088-1.971-1.918-3.989A9.849,9.849,0,0,0,89.534,164.233Zm-15.282-4.875a6.887,6.887,0,1,0,.008,0Z" transform="translate(-37.408 -52.394)" fill="none" stroke="#000" stroke-miterlimit="10" stroke-width="1"/>
      <path id="Path_732" data-name="Path 732" d="M59.734,137.627l5.914,1.352,1.391-6.113-5.517-1.261V130.9a13.341,13.341,0,0,0-1.07-5.249l4.432-3.538-3.912-4.9-4.264,3.4a13.44,13.44,0,0,0-5.463-2.751v-5.7H45.01v5.7a13.409,13.409,0,0,0-5.242,2.583l-4.776-3.82-3.9,4.905,4.837,3.82a13.318,13.318,0,0,0-1.184,5.3L28.33,132.1l1.4,6.113,6.38-1.452a13.364,13.364,0,0,0,3.133,4.118L36.3,146.994l5.654,2.72,2.827-5.868a13.21,13.21,0,0,0,3.362.443,13.354,13.354,0,0,0,1.925-.153l2.842,5.906,5.647-2.72-2.651-5.486A13.349,13.349,0,0,0,59.734,137.627ZM38.622,130.9a9.52,9.52,0,1,1,9.52,9.52,9.52,9.52,0,0,1-9.52-9.52Z" transform="translate(-28.33 -44.462)" fill="none" stroke="#000" stroke-miterlimit="10" stroke-width="1"/>
      <path id="Path_733" data-name="Path 733" d="M178.433,335.35l1.635,5.028h5.287l-4.279,3.11,1.635,5.028-4.279-3.11-4.279,3.11,1.635-5.028-4.279-3.11H176.8Z" transform="translate(-62.109 -97.117)" fill="none" stroke="#000" stroke-miterlimit="10" stroke-width="1"/>
      <path id="Path_734" data-name="Path 734" d="M200.8,335.35l1.635,5.028h5.287l-4.271,3.11,1.627,5.028-4.279-3.11-4.271,3.11,1.635-5.028-4.279-3.11h5.287Z" transform="translate(-67.389 -97.117)" fill="none" stroke="#000" stroke-miterlimit="10" stroke-width="1"/>
      <path id="Path_735" data-name="Path 735" d="M223.183,335.35l1.635,5.028h5.287l-4.279,3.11,1.635,5.028-4.279-3.11-4.279,3.11,1.635-5.028-4.279-3.11h5.287Z" transform="translate(-72.666 -97.117)" fill="none" stroke="#000" stroke-miterlimit="10" stroke-width="1"/>
      <path id="Path_736" data-name="Path 736" d="M245.553,335.35l1.635,5.028h5.287l-4.279,3.11,1.635,5.028-4.279-3.11-4.279,3.11,1.635-5.028-4.279-3.11h5.287Z" transform="translate(-77.944 -97.117)" fill="none" stroke="#000" stroke-miterlimit="10" stroke-width="1"/>
      <path id="Path_737" data-name="Path 737" d="M267.923,335.35l1.635,5.028h5.287l-4.279,3.11,1.635,5.028-4.279-3.11-4.279,3.11,1.635-5.028L261,340.378h5.287Z" transform="translate(-83.221 -97.117)" fill="none" stroke="#000" stroke-miterlimit="10" stroke-width="1"/>
      <rect id="Rectangle_239" data-name="Rectangle 239" width="92.454" height="24.451" rx="7.5" transform="translate(103.663 233.381)" fill="none" stroke="#000" stroke-miterlimit="10" stroke-width="1"/>
      <path id="Path_738" data-name="Path 738" d="M37.853,228.81l1.032,3.171h3.331l-2.7,1.956,1.032,3.171-2.7-1.964-2.7,1.964,1.032-3.171-2.7-1.956h3.339Z" transform="translate(-29.547 -71.982)" fill="none" stroke="#000" stroke-miterlimit="10" stroke-width="1"/>
      <path id="Path_739" data-name="Path 739" d="M51.953,228.81l1.032,3.171h3.331l-2.7,1.956,1.032,3.171-2.7-1.964-2.7,1.964,1.032-3.171-2.7-1.956h3.331Z" transform="translate(-32.874 -71.982)" fill="none" stroke="#000" stroke-miterlimit="10" stroke-width="1"/>
      <path id="Path_740" data-name="Path 740" d="M66.045,228.81l1.032,3.171h3.331l-2.69,1.956,1.024,3.171-2.7-1.964-2.69,1.964,1.032-3.171-2.7-1.956h3.331Z" transform="translate(-36.2 -71.982)" fill="none" stroke="#000" stroke-miterlimit="10" stroke-width="1"/>
      <path id="Path_741" data-name="Path 741" d="M80.143,228.81l1.032,3.171h3.331l-2.7,1.956,1.032,3.171-2.7-1.964-2.7,1.964,1.032-3.171-2.7-1.956h3.331Z" transform="translate(-39.524 -71.982)" fill="none" stroke="#000" stroke-miterlimit="10" stroke-width="1"/>
      <path id="Path_742" data-name="Path 742" d="M94.243,228.81l1.032,3.171h3.331l-2.7,1.956,1.024,3.171-2.69-1.964-2.7,1.964,1.032-3.171-2.7-1.956h3.331Z" transform="translate(-42.851 -71.982)" fill="none" stroke="#000" stroke-miterlimit="10" stroke-width="1"/>
      <rect id="Rectangle_240" data-name="Rectangle 240" width="58.254" height="15.404" rx="7.5" transform="translate(0.329 153.771)" fill="none" stroke="#000" stroke-miterlimit="10" stroke-width="1"/>
    </g>
    <path id="Path_743" data-name="Path 743" d="M102.82,344.1s.764-2.667.764-2.842c.283-2.025-.367-6.113-2.422-7.091a2.7,2.7,0,0,0-3.683,1.627c-.55,1.528.145,3.377.978,4.661C99.42,341.96,102.82,344.1,102.82,344.1Z" transform="translate(-26.597 1856.06)" fill="#263238"/>
    <path id="Path_744" data-name="Path 744" d="M50.331,343.993c1.635.718,5.654.627,5.654.627s-.863-2.628-.94-2.781c-.879-1.841-3.66-4.89-5.929-4.585a2.7,2.7,0,0,0-2.147,3.393C47.321,342.22,48.933,343.381,50.331,343.993Z" transform="translate(-14.704 1855.281)" fill="#263238"/>
    <path id="Path_745" data-name="Path 745" d="M51.8,352.049c1.7.252,5.287-.764,5.57-.871a48.137,48.137,0,0,0,2.17,5.99c.5,1.146,1.024,2.292,1.574,3.408-.329-.481-.619-.9-.672-.963-1.337-1.528-4.821-3.736-6.93-2.842a2.712,2.712,0,0,0-1.2,3.82c.764,1.414,2.644,2.109,4.149,2.33s4.584-.6,5.417-.825c.214.428.42.863.634,1.291,1.039,2.063,2.086,4.118,3.056,6.174.336.718.649,1.444.955,2.162-.29-.42-.535-.764-.581-.825-1.337-1.528-4.829-3.744-6.93-2.85a2.7,2.7,0,0,0-1.2,3.82c.764,1.414,2.636,2.116,4.149,2.33a17.727,17.727,0,0,0,5.265-.764c.3.764.6,1.528.848,2.239.16.512.351.986.489,1.528s.283,1.024.42,1.528c.237.97.481,1.979.688,2.942.145.665.275,1.3.4,1.941-.329-.718-1-2.124-1.07-2.231-1.093-1.727-4.2-4.432-6.418-3.866a2.713,2.713,0,0,0-1.78,3.637c.558,1.528,2.292,2.483,3.752,2.934,1.6.489,5.158,0,5.6,0,.214,1.062.413,2.094.581,3.056.6,3.4.97,6.25,1.2,8.244.038.351.076.672.107.97H65.168L66.7,425.935H80.45l1.528-29.578H75.506l.145-.3c.879-1.826,2.094-4.462,3.415-7.687.42-1.016.848-2.109,1.276-3.24.428.084,3.943.764,5.585.436,1.528-.336,3.293-1.184,3.958-2.651a2.712,2.712,0,0,0-1.528-3.744c-2.162-.726-5.471,1.734-6.686,3.377-.069.1-.764,1.238-1.131,1.964.168-.466.344-.909.512-1.391.344-.94.665-1.887,1.009-2.911.153-.5.306-1.009.451-1.528s.275-1.054.413-1.589c.29-1.238.535-2.506.764-3.82.825.306,3.82,1.329,5.349,1.223s3.431-.665,4.309-2.017a2.712,2.712,0,0,0-.909-3.927c-2.032-1.047-5.677.886-7.121,2.33-.092.084-1.016,1.238-1.528,1.88.122-.764.252-1.528.344-2.33.283-2.292.5-4.585.718-6.877.069-.7.145-1.406.222-2.1.29.107,3.775,1.406,5.486,1.284,1.528-.107,3.431-.665,4.309-2.017a2.7,2.7,0,0,0-.909-3.927c-2.032-1.047-5.677.886-7.121,2.292-.107.115-1.436,1.773-1.75,2.208.16-1.528.336-3.056.573-4.585a46.609,46.609,0,0,1,1.322-6.036c.138.046,3.759,1.414,5.517,1.291,1.528-.107,3.431-.665,4.309-2.017a2.7,2.7,0,0,0-.909-3.92c-2.032-1.054-5.677.879-7.121,2.292-.1.092-1.108,1.352-1.574,1.964l-.115-.061a35.6,35.6,0,0,1,2.392-5.731c.527-1.016,1.077-1.964,1.635-2.865.649.321,3.637,1.773,5.226,1.834s3.484-.283,4.508-1.528a2.7,2.7,0,0,0-.474-4c-1.91-1.268-5.738.252-7.335,1.528-.092.069-.894.871-1.475,1.459.26-.4.52-.825.764-1.207.955-1.444,1.918-2.7,2.781-3.82.5-.627.955-1.184,1.4-1.7a18.166,18.166,0,0,0,5.448-.764c1.414-.649,2.965-1.857,3.293-3.438a2.7,2.7,0,0,0-2.292-3.331c-2.292-.245-4.974,2.873-5.807,4.737-.069.16-.9,2.812-.863,2.812h.053c-.436.489-.886,1.016-1.375,1.6-.886,1.093-1.88,2.338-2.873,3.759a46.833,46.833,0,0,0-2.98,4.753,35.337,35.337,0,0,0-2.552,5.731v-2.613c-.267-2.025-1.964-5.784-4.21-6.2a2.713,2.713,0,0,0-3.125,2.544c-.13,1.612,1.039,3.217,2.178,4.233,1.284,1.146,4.844,2.254,5.127,2.346A48.507,48.507,0,0,0,85,356.587c-.222,1.223-.4,2.46-.565,3.706v-1.169c-.267-2.025-1.964-5.784-4.21-6.2a2.7,2.7,0,0,0-3.125,2.544c-.13,1.6,1.039,3.217,2.178,4.233s4.172,2.04,4.974,2.292c-.061.481-.13.955-.183,1.436-.275,2.292-.535,4.584-.863,6.823-.115.764-.26,1.566-.4,2.338v-1.016c-.26-2.025-1.956-5.784-4.21-6.2a2.7,2.7,0,0,0-3.117,2.544c-.13,1.612,1.032,3.217,2.17,4.233a16.8,16.8,0,0,0,4.829,2.246c-.168.764-.329,1.582-.527,2.338-.145.512-.252,1.016-.428,1.528s-.329,1-.489,1.528c-.344.947-.688,1.925-1.047,2.835-.245.634-.489,1.238-.764,1.849.122-.764.336-2.33.336-2.46a10.56,10.56,0,0,0-1.406-5.112,3.9,3.9,0,0,0,0-.6,2.7,2.7,0,0,0-3.308-2.292c-2.216.588-3.614,4.462-3.721,6.5,0,.122.076,1.436.138,2.292-.115-.481-.214-.947-.336-1.444-.229-.978-.489-1.941-.764-2.988l-.458-1.528c-.145-.5-.359-1.024-.535-1.528-.436-1.2-.94-2.384-1.467-3.576.856-.2,3.882-.97,5.1-1.91s2.491-2.445,2.483-4.057a2.712,2.712,0,0,0-3.018-2.743c-2.292.252-4.248,3.874-4.661,5.868,0,.13-.16,1.6-.214,2.407-.329-.718-.649-1.429-1-2.132-1.016-2.048-2.109-4.088-3.186-6.113-.329-.627-.657-1.253-.978-1.88.306-.069,3.92-.909,5.28-1.948,1.215-.932,2.5-2.453,2.483-4.065a2.7,2.7,0,0,0-2.919-2.774c-2.292.252-4.248,3.874-4.661,5.868,0,.153-.222,2.292-.245,2.8-.718-1.375-1.421-2.758-2.055-4.149a47.317,47.317,0,0,1-2.231-5.761c.145,0,3.92-.894,5.349-1.964,1.207-.925,2.491-2.445,2.483-4.057a2.712,2.712,0,0,0-2.926-2.774c-2.292.252-4.248,3.874-4.653,5.868,0,.13-.176,1.742-.229,2.514h-.153a34.682,34.682,0,0,1-1.161-6.113c-.13-1.131-.191-2.223-.222-3.293.718-.084,4.011-.527,5.349-1.345s2.743-2.162,2.911-3.767a2.712,2.712,0,0,0-2.6-3.056c-2.292,0-4.646,3.385-5.28,5.349,0,.107-.26,1.215-.42,2.032v-1.436c0-1.734.107-3.316.214-4.714.069-.8.145-1.528.229-2.193.657-.451,3.308-2.292,4.118-3.652s1.444-3.186.848-4.684a2.7,2.7,0,0,0-3.721-1.528c-2.032,1.047-2.567,5.135-2.231,7.152a23.548,23.548,0,0,0,.833,2.819h.038c-.092.649-.176,1.337-.26,2.1-.138,1.4-.283,2.988-.321,4.722a48.62,48.62,0,0,0,.13,5.608,35.5,35.5,0,0,0,1.039,6.189v.069c-.359-.565-1.421-2.109-1.528-2.223-1.337-1.528-4.821-3.744-6.93-2.85a2.712,2.712,0,0,0-1.2,3.82C48.427,351.132,50.292,351.819,51.8,352.049Zm22.678,29.967a19.238,19.238,0,0,0,4.584,2.942c-.4,1.009-.81,1.979-1.215,2.888-1.368,3.163-2.636,5.746-3.545,7.534l-.5.978h-.153c-.046-.351-.1-.764-.153-1.161-.283-2.017-.718-4.882-1.4-8.3-.206-1.085-.458-2.231-.726-3.408a28.792,28.792,0,0,0,3.11-1.475Z" transform="translate(-14.786 1858.854)" fill="#263238"/>
    <path id="Path_746" data-name="Path 746" d="M50.331,343.993c1.635.718,5.654.627,5.654.627s-.863-2.628-.94-2.781c-.879-1.841-3.66-4.89-5.929-4.585a2.7,2.7,0,0,0-2.147,3.393C47.321,342.22,48.933,343.381,50.331,343.993Z" transform="translate(-14.704 1855.281)" fill="#263238" opacity="0.3"/>
    <path id="Path_747" data-name="Path 747" d="M102.82,344.1s.764-2.667.764-2.842c.283-2.025-.367-6.113-2.422-7.091a2.7,2.7,0,0,0-3.683,1.627c-.55,1.528.145,3.377.978,4.661C99.42,341.96,102.82,344.1,102.82,344.1Z" transform="translate(-26.597 1856.06)" fill="#263238" opacity="0.3"/>
    <path id="Path_748" data-name="Path 748" d="M51.8,352.049c1.7.252,5.287-.764,5.57-.871a48.137,48.137,0,0,0,2.17,5.99c.5,1.146,1.024,2.292,1.574,3.408-.329-.481-.619-.9-.672-.963-1.337-1.528-4.821-3.736-6.93-2.842a2.712,2.712,0,0,0-1.2,3.82c.764,1.414,2.644,2.109,4.149,2.33s4.584-.6,5.417-.825c.214.428.42.863.634,1.291,1.039,2.063,2.086,4.118,3.056,6.174.336.718.649,1.444.955,2.162-.29-.42-.535-.764-.581-.825-1.337-1.528-4.829-3.744-6.93-2.85a2.7,2.7,0,0,0-1.2,3.82c.764,1.414,2.636,2.116,4.149,2.33a17.727,17.727,0,0,0,5.265-.764c.3.764.6,1.528.848,2.239.16.512.351.986.489,1.528s.283,1.024.42,1.528c.237.97.481,1.979.688,2.942.145.665.275,1.3.4,1.941-.329-.718-1-2.124-1.07-2.231-1.093-1.727-4.2-4.432-6.418-3.866a2.713,2.713,0,0,0-1.78,3.637c.558,1.528,2.292,2.483,3.752,2.934,1.6.489,5.158,0,5.6,0,.214,1.062.413,2.094.581,3.056.6,3.4.97,6.25,1.2,8.244.038.351.076.672.107.97H65.168L66.7,425.935H80.45l1.528-29.578H75.506l.145-.3c.879-1.826,2.094-4.462,3.415-7.687.42-1.016.848-2.109,1.276-3.24.428.084,3.943.764,5.585.436,1.528-.336,3.293-1.184,3.958-2.651a2.712,2.712,0,0,0-1.528-3.744c-2.162-.726-5.471,1.734-6.686,3.377-.069.1-.764,1.238-1.131,1.964.168-.466.344-.909.512-1.391.344-.94.665-1.887,1.009-2.911.153-.5.306-1.009.451-1.528s.275-1.054.413-1.589c.29-1.238.535-2.506.764-3.82.825.306,3.82,1.329,5.349,1.223s3.431-.665,4.309-2.017a2.712,2.712,0,0,0-.909-3.927c-2.032-1.047-5.677.886-7.121,2.33-.092.084-1.016,1.238-1.528,1.88.122-.764.252-1.528.344-2.33.283-2.292.5-4.585.718-6.877.069-.7.145-1.406.222-2.1.29.107,3.775,1.406,5.486,1.284,1.528-.107,3.431-.665,4.309-2.017a2.7,2.7,0,0,0-.909-3.927c-2.032-1.047-5.677.886-7.121,2.292-.107.115-1.436,1.773-1.75,2.208.16-1.528.336-3.056.573-4.585a46.609,46.609,0,0,1,1.322-6.036c.138.046,3.759,1.414,5.517,1.291,1.528-.107,3.431-.665,4.309-2.017a2.7,2.7,0,0,0-.909-3.92c-2.032-1.054-5.677.879-7.121,2.292-.1.092-1.108,1.352-1.574,1.964l-.115-.061a35.6,35.6,0,0,1,2.392-5.731c.527-1.016,1.077-1.964,1.635-2.865.649.321,3.637,1.773,5.226,1.834s3.484-.283,4.508-1.528a2.7,2.7,0,0,0-.474-4c-1.91-1.268-5.738.252-7.335,1.528-.092.069-.894.871-1.475,1.459.26-.4.52-.825.764-1.207.955-1.444,1.918-2.7,2.781-3.82.5-.627.955-1.184,1.4-1.7a18.166,18.166,0,0,0,5.448-.764c1.414-.649,2.965-1.857,3.293-3.438a2.7,2.7,0,0,0-2.292-3.331c-2.292-.245-4.974,2.873-5.807,4.737-.069.16-.9,2.812-.863,2.812h.053c-.436.489-.886,1.016-1.375,1.6-.886,1.093-1.88,2.338-2.873,3.759a46.833,46.833,0,0,0-2.98,4.753,35.337,35.337,0,0,0-2.552,5.731v-2.613c-.267-2.025-1.964-5.784-4.21-6.2a2.713,2.713,0,0,0-3.125,2.544c-.13,1.612,1.039,3.217,2.178,4.233,1.284,1.146,4.844,2.254,5.127,2.346A48.507,48.507,0,0,0,85,356.587c-.222,1.223-.4,2.46-.565,3.706v-1.169c-.267-2.025-1.964-5.784-4.21-6.2a2.7,2.7,0,0,0-3.125,2.544c-.13,1.6,1.039,3.217,2.178,4.233s4.172,2.04,4.974,2.292c-.061.481-.13.955-.183,1.436-.275,2.292-.535,4.584-.863,6.823-.115.764-.26,1.566-.4,2.338v-1.016c-.26-2.025-1.956-5.784-4.21-6.2a2.7,2.7,0,0,0-3.117,2.544c-.13,1.612,1.032,3.217,2.17,4.233a16.8,16.8,0,0,0,4.829,2.246c-.168.764-.329,1.582-.527,2.338-.145.512-.252,1.016-.428,1.528s-.329,1-.489,1.528c-.344.947-.688,1.925-1.047,2.835-.245.634-.489,1.238-.764,1.849.122-.764.336-2.33.336-2.46a10.56,10.56,0,0,0-1.406-5.112,3.9,3.9,0,0,0,0-.6,2.7,2.7,0,0,0-3.308-2.292c-2.216.588-3.614,4.462-3.721,6.5,0,.122.076,1.436.138,2.292-.115-.481-.214-.947-.336-1.444-.229-.978-.489-1.941-.764-2.988l-.458-1.528c-.145-.5-.359-1.024-.535-1.528-.436-1.2-.94-2.384-1.467-3.576.856-.2,3.882-.97,5.1-1.91s2.491-2.445,2.483-4.057a2.712,2.712,0,0,0-3.018-2.743c-2.292.252-4.248,3.874-4.661,5.868,0,.13-.16,1.6-.214,2.407-.329-.718-.649-1.429-1-2.132-1.016-2.048-2.109-4.088-3.186-6.113-.329-.627-.657-1.253-.978-1.88.306-.069,3.92-.909,5.28-1.948,1.215-.932,2.5-2.453,2.483-4.065a2.7,2.7,0,0,0-2.919-2.774c-2.292.252-4.248,3.874-4.661,5.868,0,.153-.222,2.292-.245,2.8-.718-1.375-1.421-2.758-2.055-4.149a47.317,47.317,0,0,1-2.231-5.761c.145,0,3.92-.894,5.349-1.964,1.207-.925,2.491-2.445,2.483-4.057a2.712,2.712,0,0,0-2.926-2.774c-2.292.252-4.248,3.874-4.653,5.868,0,.13-.176,1.742-.229,2.514h-.153a34.682,34.682,0,0,1-1.161-6.113c-.13-1.131-.191-2.223-.222-3.293.718-.084,4.011-.527,5.349-1.345s2.743-2.162,2.911-3.767a2.712,2.712,0,0,0-2.6-3.056c-2.292,0-4.646,3.385-5.28,5.349,0,.107-.26,1.215-.42,2.032v-1.436c0-1.734.107-3.316.214-4.714.069-.8.145-1.528.229-2.193.657-.451,3.308-2.292,4.118-3.652s1.444-3.186.848-4.684a2.7,2.7,0,0,0-3.721-1.528c-2.032,1.047-2.567,5.135-2.231,7.152a23.548,23.548,0,0,0,.833,2.819h.038c-.092.649-.176,1.337-.26,2.1-.138,1.4-.283,2.988-.321,4.722a48.62,48.62,0,0,0,.13,5.608,35.5,35.5,0,0,0,1.039,6.189v.069c-.359-.565-1.421-2.109-1.528-2.223-1.337-1.528-4.821-3.744-6.93-2.85a2.712,2.712,0,0,0-1.2,3.82C48.427,351.132,50.292,351.819,51.8,352.049Zm22.678,29.967a19.238,19.238,0,0,0,4.584,2.942c-.4,1.009-.81,1.979-1.215,2.888-1.368,3.163-2.636,5.746-3.545,7.534l-.5.978h-.153c-.046-.351-.1-.764-.153-1.161-.283-2.017-.718-4.882-1.4-8.3-.206-1.085-.458-2.231-.726-3.408a28.792,28.792,0,0,0,3.11-1.475Z" transform="translate(-14.786 1858.854)" fill="#263238" opacity="0.3"/>
    <rect id="Rectangle_241" data-name="Rectangle 241" width="266.664" height="197.133" transform="translate(51.367 1977.629)" opacity="0.3"/>
    <rect id="Rectangle_242" data-name="Rectangle 242" width="269.53" height="198.027" transform="translate(57.977 1969.988)" fill="#fff" stroke="#263238" stroke-miterlimit="10" stroke-width="1"/>
    <rect id="Rectangle_243" data-name="Rectangle 243" width="44.408" height="198.027" transform="translate(57.977 1969.988)" fill="#a858e1" stroke="#263238" stroke-miterlimit="10" stroke-width="1"/>
    <rect id="Rectangle_244" data-name="Rectangle 244" width="269.53" height="16.26" transform="translate(57.977 1969.988)" fill="#263238" stroke="#263238" stroke-linecap="round" stroke-linejoin="round" stroke-width="1"/>
    <path id="Path_749" data-name="Path 749" d="M94.175,95A4.478,4.478,0,1,0,89.7,99.475,4.478,4.478,0,0,0,94.175,95Z" transform="translate(-23.751 1913.485)" fill="#fff" stroke="#263238" stroke-linecap="round" stroke-linejoin="round" stroke-width="1"/>
    <line id="Line_129" data-name="Line 129" x2="22.006" transform="translate(74.152 2008.856)" fill="none" stroke="#263238" stroke-linecap="round" stroke-linejoin="round" stroke-width="1"/>
    <path id="Path_750" data-name="Path 750" d="M94.175,121.845a4.478,4.478,0,1,0-4.478,4.47,4.478,4.478,0,0,0,4.478-4.47Z" transform="translate(-23.751 1907.153)" fill="#fff" stroke="#263238" stroke-linecap="round" stroke-linejoin="round" stroke-width="1"/>
    <line id="Line_130" data-name="Line 130" x2="22.006" transform="translate(74.152 2029.365)" fill="none" stroke="#263238" stroke-linecap="round" stroke-linejoin="round" stroke-width="1"/>
    <path id="Path_751" data-name="Path 751" d="M94.175,148.688a4.478,4.478,0,1,0-4.478,4.478A4.478,4.478,0,0,0,94.175,148.688Z" transform="translate(-23.751 1900.818)" fill="#fff" stroke="#263238" stroke-linecap="round" stroke-linejoin="round" stroke-width="1"/>
    <line id="Line_131" data-name="Line 131" x2="22.006" transform="translate(74.152 2049.88)" fill="none" stroke="#263238" stroke-linecap="round" stroke-linejoin="round" stroke-width="1"/>
    <path id="Path_752" data-name="Path 752" d="M94.175,175.538a4.478,4.478,0,1,0-4.478,4.478,4.478,4.478,0,0,0,4.478-4.478Z" transform="translate(-23.751 1894.484)" fill="#fff" stroke="#263238" stroke-linecap="round" stroke-linejoin="round" stroke-width="1"/>
    <line id="Line_132" data-name="Line 132" x2="22.006" transform="translate(74.152 2070.396)" fill="none" stroke="#263238" stroke-linecap="round" stroke-linejoin="round" stroke-width="1"/>
    <path id="Path_753" data-name="Path 753" d="M94.175,202.388a4.478,4.478,0,1,0-4.478,4.478A4.478,4.478,0,0,0,94.175,202.388Z" transform="translate(-23.751 1888.149)" fill="#fff" stroke="#263238" stroke-linecap="round" stroke-linejoin="round" stroke-width="1"/>
    <line id="Line_133" data-name="Line 133" x2="22.006" transform="translate(74.152 2090.911)" fill="none" stroke="#263238" stroke-linecap="round" stroke-linejoin="round" stroke-width="1"/>
    <g id="Group_158" data-name="Group 158" transform="translate(107.963 2105.169)" opacity="0.05">
      <rect id="Rectangle_245" data-name="Rectangle 245" width="176.434" height="6.327"/>
      <rect id="Rectangle_246" data-name="Rectangle 246" width="176.434" height="6.327" transform="translate(0 11.163)"/>
      <rect id="Rectangle_247" data-name="Rectangle 247" width="176.434" height="6.327" transform="translate(0 22.334)"/>
      <rect id="Rectangle_248" data-name="Rectangle 248" width="176.434" height="6.327" transform="translate(0 33.497)"/>
    </g>
    <rect id="Rectangle_249" data-name="Rectangle 249" width="10.116" height="29.547" transform="translate(181.399 2121.406)" fill="#a858e1"/>
    <rect id="Rectangle_250" data-name="Rectangle 250" width="10.116" height="41.742" transform="translate(170.159 2109.211)" fill="#263238"/>
    <rect id="Rectangle_251" data-name="Rectangle 251" width="10.116" height="26.735" transform="translate(158.92 2124.218)" fill="#a858e1"/>
    <rect id="Rectangle_252" data-name="Rectangle 252" width="10.116" height="10.789" transform="translate(147.68 2140.164)" fill="#263238"/>
    <rect id="Rectangle_253" data-name="Rectangle 253" width="10.116" height="31.893" transform="translate(136.44 2119.06)" fill="#a858e1"/>
    <rect id="Rectangle_254" data-name="Rectangle 254" width="10.116" height="25.329" transform="translate(125.201 2125.624)" fill="#263238"/>
    <rect id="Rectangle_255" data-name="Rectangle 255" width="10.116" height="9.383" transform="translate(113.961 2141.57)" fill="#a858e1"/>
    <rect id="Rectangle_256" data-name="Rectangle 256" width="10.116" height="29.547" transform="translate(204.978 2121.406)" fill="#263238"/>
    <rect id="Rectangle_257" data-name="Rectangle 257" width="10.116" height="41.742" transform="translate(216.218 2109.211)" fill="#a858e1"/>
    <rect id="Rectangle_258" data-name="Rectangle 258" width="10.116" height="26.735" transform="translate(227.465 2124.218)" fill="#263238"/>
    <rect id="Rectangle_259" data-name="Rectangle 259" width="10.116" height="10.789" transform="translate(238.705 2140.164)" fill="#a858e1"/>
    <rect id="Rectangle_260" data-name="Rectangle 260" width="10.116" height="31.893" transform="translate(249.945 2119.06)" fill="#263238"/>
    <rect id="Rectangle_261" data-name="Rectangle 261" width="10.116" height="25.329" transform="translate(261.184 2125.624)" fill="#a858e1"/>
    <rect id="Rectangle_262" data-name="Rectangle 262" width="10.116" height="9.383" transform="translate(272.424 2141.57)" fill="#263238"/>
    <line id="Line_134" data-name="Line 134" x2="32.817" transform="translate(63.906 2119.603)" fill="none" stroke="#263238" stroke-linecap="round" stroke-linejoin="round" stroke-width="1"/>
    <line id="Line_135" data-name="Line 135" x2="32.817" transform="translate(63.906 2125.494)" fill="none" stroke="#263238" stroke-linecap="round" stroke-linejoin="round" stroke-width="1"/>
    <line id="Line_136" data-name="Line 136" x2="32.817" transform="translate(63.906 2131.385)" fill="none" stroke="#263238" stroke-linecap="round" stroke-linejoin="round" stroke-width="1"/>
    <line id="Line_137" data-name="Line 137" x2="32.817" transform="translate(63.906 2137.276)" fill="none" stroke="#263238" stroke-linecap="round" stroke-linejoin="round" stroke-width="1"/>
    <line id="Line_138" data-name="Line 138" x2="32.817" transform="translate(63.906 2143.159)" fill="none" stroke="#263238" stroke-linecap="round" stroke-linejoin="round" stroke-width="1"/>
    <line id="Line_139" data-name="Line 139" x2="32.817" transform="translate(63.906 2149.05)" fill="none" stroke="#263238" stroke-linecap="round" stroke-linejoin="round" stroke-width="1"/>
    <line id="Line_140" data-name="Line 140" x2="14.403" transform="translate(69.866 1975.176)" fill="none" stroke="#fff" stroke-linecap="round" stroke-linejoin="round" stroke-width="1"/>
    <line id="Line_141" data-name="Line 141" x2="14.403" transform="translate(69.866 1979.088)" fill="none" stroke="#fff" stroke-linecap="round" stroke-linejoin="round" stroke-width="1"/>
    <line id="Line_142" data-name="Line 142" x2="14.403" transform="translate(69.866 1983)" fill="none" stroke="#fff" stroke-linecap="round" stroke-linejoin="round" stroke-width="1"/>
    <rect id="Rectangle_263" data-name="Rectangle 263" width="84.148" height="34.07" transform="translate(200.654 2062.381)" opacity="0.05"/>
    <path id="Path_754" data-name="Path 754" d="M351.521,198.615v5.891H267.38V185.572l13.456-3.782h18.934l7.58,9.673H320.8l10.521,7.152Z" transform="translate(-66.726 1891.952)" fill="#a858e1"/>
    <line id="Line_143" data-name="Line 143" x2="20.202" transform="translate(259.549 2068.692)" fill="none" stroke="#263238" stroke-linecap="round" stroke-linejoin="round" stroke-width="1"/>
    <path id="Path_755" data-name="Path 755" d="M350.16,190.449v1.727h-.925v-1.727H346.47v-.871l2.651-5.967h1.039v5.967h.688v.871Zm-2.812-.871h1.887v-4.141Z" transform="translate(-85.385 1891.523)" fill="#263238"/>
    <path id="Path_756" data-name="Path 756" d="M354.1,187.094a1.383,1.383,0,0,1,1.268-.711c1.108,0,1.6.81,1.6,2.032V190.1c0,1.307-.627,2.162-1.933,2.162s-1.926-.856-1.926-2.162v-.581H354v.642c0,.764.321,1.23,1,1.23s1.009-.458,1.009-1.23v-1.666c0-.764-.321-1.238-1.009-1.238a.925.925,0,0,0-.963.917v.2h-.894l.237-4.76h3.37v.856h-2.514Z" transform="translate(-86.952 1891.523)" fill="#263238"/>
    <path id="Path_757" data-name="Path 757" d="M361.735,184.933v2.7c0,.833-.39,1.383-1.223,1.383s-1.223-.55-1.223-1.383v-2.7c0-.825.39-1.383,1.223-1.383S361.735,184.108,361.735,184.933Zm-1.834-.038v2.819c0,.466.176.764.611.764s.611-.306.611-.764v-2.789c0-.466-.183-.764-.611-.764S359.9,184.429,359.9,184.895Zm4.661-1.3-3.377,8.565H360.6l3.377-8.565Zm1.383,4.523v2.7c0,.833-.374,1.383-1.223,1.383s-1.223-.55-1.223-1.383v-2.7c0-.818.39-1.368,1.223-1.368S365.945,187.3,365.945,188.119Zm-1.834,0v2.774c0,.466.183.764.611.764s.611-.321.611-.764v-2.774c0-.466-.183-.764-.611-.764s-.611.267-.611.734Z" transform="translate(-88.41 1891.537)" fill="#263238"/>
    <path id="Path_758" data-name="Path 758" d="M146.4,85.42V79.8H145.25V79.17h2.988V79.8h-1.154V85.42Z" transform="translate(-37.914 1916.162)" fill="#263238"/>
    <path id="Path_759" data-name="Path 759" d="M151.168,79.17c.986,0,1.4.5,1.4,1.429v.512a1.161,1.161,0,0,1-.764,1.284c.573.168.764.634.764,1.307v.97a1.581,1.581,0,0,0,.122.764h-.7a1.574,1.574,0,0,1-.115-.764v-.993c0-.7-.329-.925-.909-.925h-.5V85.42h-.7V79.17Zm-.176,2.926c.558,0,.886-.176.886-.856v-.6c0-.558-.206-.856-.726-.856h-.68v2.292Z" transform="translate(-38.98 1916.162)" fill="#263238"/>
    <path id="Path_760" data-name="Path 760" d="M156.614,81.944v.619h-1.528v2.223h1.872v.634H154.39V79.17h2.567V79.8h-1.872v2.139Z" transform="translate(-40.07 1916.162)" fill="#263238"/>
    <path id="Path_761" data-name="Path 761" d="M159.209,85.42h-.619V79.17h.879l1.452,4.523V79.17h.611v6.25h-.726l-1.6-5.051Z" transform="translate(-41.061 1916.162)" fill="#263238"/>
    <path id="Path_762" data-name="Path 762" d="M164.847,79.17c.97,0,1.414.588,1.414,1.528v3.148c0,.955-.443,1.528-1.414,1.528H163.38v-6.2Zm0,5.616c.5,0,.764-.313.764-.879V80.691c0-.573-.237-.886-.764-.886h-.764v4.982Z" transform="translate(-42.191 1916.162)" fill="#263238"/>
    <g id="Group_159" data-name="Group 159" transform="translate(106.511 2004.761)" opacity="0.3">
      <line id="Line_144" data-name="Line 144" y1="3.018" transform="translate(0.749 40.122)" fill="none" stroke="#000" stroke-linecap="round" stroke-linejoin="round" stroke-width="0.5"/>
      <line id="Line_145" data-name="Line 145" x2="213.423" transform="translate(0 32.962)" fill="none" stroke="#000" stroke-linecap="round" stroke-linejoin="round" stroke-width="0.5" opacity="0.3"/>
      <line id="Line_146" data-name="Line 146" x2="213.423" transform="translate(0 39.931)" fill="none" stroke="#000" stroke-linecap="round" stroke-linejoin="round" stroke-width="0.5" opacity="0.3"/>
      <line id="Line_147" data-name="Line 147" x2="213.423" transform="translate(0 26.368)" fill="none" stroke="#000" stroke-linecap="round" stroke-linejoin="round" stroke-width="0.5" opacity="0.3"/>
      <line id="Line_148" data-name="Line 148" x2="213.423" transform="translate(0 19.782)" fill="none" stroke="#000" stroke-linecap="round" stroke-linejoin="round" stroke-width="0.5" opacity="0.3"/>
      <line id="Line_149" data-name="Line 149" x2="213.423" transform="translate(0 13.188)" fill="none" stroke="#000" stroke-linecap="round" stroke-linejoin="round" stroke-width="0.5" opacity="0.3"/>
      <line id="Line_150" data-name="Line 150" x2="213.423" transform="translate(0 6.594)" fill="none" stroke="#000" stroke-linecap="round" stroke-linejoin="round" stroke-width="0.5" opacity="0.3"/>
      <line id="Line_151" data-name="Line 151" x2="213.423" fill="none" stroke="#000" stroke-linecap="round" stroke-linejoin="round" stroke-width="0.5" opacity="0.3"/>
      <line id="Line_152" data-name="Line 152" y1="3.018" transform="translate(18.33 40.122)" fill="none" stroke="#000" stroke-linecap="round" stroke-linejoin="round" stroke-width="0.5" opacity="0.3"/>
      <line id="Line_153" data-name="Line 153" y1="3.018" transform="translate(35.912 40.122)" fill="none" stroke="#000" stroke-linecap="round" stroke-linejoin="round" stroke-width="0.5"/>
      <line id="Line_154" data-name="Line 154" y1="3.018" transform="translate(53.493 40.122)" fill="none" stroke="#000" stroke-linecap="round" stroke-linejoin="round" stroke-width="0.5"/>
      <line id="Line_155" data-name="Line 155" y1="3.018" transform="translate(71.075 40.122)" fill="none" stroke="#000" stroke-linecap="round" stroke-linejoin="round" stroke-width="0.5"/>
      <line id="Line_156" data-name="Line 156" y1="3.018" transform="translate(88.656 40.122)" fill="none" stroke="#000" stroke-linecap="round" stroke-linejoin="round" stroke-width="0.5"/>
      <line id="Line_157" data-name="Line 157" y1="3.018" transform="translate(106.238 40.122)" fill="none" stroke="#000" stroke-linecap="round" stroke-linejoin="round" stroke-width="0.5"/>
      <line id="Line_158" data-name="Line 158" y1="3.018" transform="translate(123.819 40.122)" fill="none" stroke="#000" stroke-linecap="round" stroke-linejoin="round" stroke-width="0.5"/>
      <line id="Line_159" data-name="Line 159" y1="3.018" transform="translate(141.401 40.122)" fill="none" stroke="#000" stroke-linecap="round" stroke-linejoin="round" stroke-width="0.5"/>
      <line id="Line_160" data-name="Line 160" y1="3.018" transform="translate(158.982 40.122)" fill="none" stroke="#000" stroke-linecap="round" stroke-linejoin="round" stroke-width="0.5"/>
      <line id="Line_161" data-name="Line 161" y1="3.018" transform="translate(176.564 40.122)" fill="none" stroke="#000" stroke-linecap="round" stroke-linejoin="round" stroke-width="0.5"/>
      <line id="Line_162" data-name="Line 162" y1="3.018" transform="translate(194.145 40.122)" fill="none" stroke="#000" stroke-linecap="round" stroke-linejoin="round" stroke-width="0.5"/>
      <line id="Line_163" data-name="Line 163" y1="3.018" transform="translate(211.727 40.122)" fill="none" stroke="#000" stroke-linecap="round" stroke-linejoin="round" stroke-width="0.5"/>
    </g>
    <path id="Path_763" data-name="Path 763" d="M355.039,129.7V92.13l.092-3.37-11.255,2.292-14.128,4.516L312.6,97.455l-17.895,5.272-16.955-2.071-19.209-5.463-18.46,8.451-14.51-5.44-19.4,2.453-16.2-6.785-18.651,26.185L153.811,99.152l-8.711,8.611V129.7Z" transform="translate(-37.878 1913.9)" fill="#a858e1"/>
    <path id="Path_764" data-name="Path 764" d="M355.039,129.7V92.13l.092-3.37-11.255,2.292-14.128,4.516L312.6,97.455l-17.895,5.272-16.955-2.071-19.209-5.463-18.46,8.451-14.51-5.44-19.4,2.453-16.2-6.785-18.651,26.185L153.811,99.152l-8.711,8.611V129.7Z" transform="translate(-37.878 1913.9)" fill="#fff" opacity="0.5"/>
    <path id="Path_765" data-name="Path 765" d="M355.132,135.555v-12.63l.046-1.551-11.354-4.592-14.128-3.2-17.146,1.887-17.895,3.2L277.7,116.216l-19.209-1.88-18.46.374-14.51,4.149-19.4,3.385-16.2-3.385-18.651,1.689-17.513,1.887-8.481,1.131h-.4v11.988Z" transform="translate(-37.826 1908.044)" opacity="0.15"/>
    <circle id="Ellipse_46" data-name="Ellipse 46" cx="1.131" cy="1.131" r="1.131" transform="translate(114.794 2029.349)" fill="#263238"/>
    <path id="Path_766" data-name="Path 766" d="M180.2,122.351a1.123,1.123,0,1,0-.329.8A1.131,1.131,0,0,0,180.2,122.351Z" transform="translate(-45.626 1906.242)" fill="#263238"/>
    <circle id="Ellipse_47" data-name="Ellipse 47" cx="1.131" cy="1.131" r="1.131" transform="translate(150.965 2025.773)" fill="#263238"/>
    <circle id="Ellipse_48" data-name="Ellipse 48" cx="1.131" cy="1.131" r="1.131" transform="translate(167.164 2029.158)" fill="#263238"/>
    <circle id="Ellipse_49" data-name="Ellipse 49" cx="1.131" cy="1.131" r="1.131" transform="translate(186.564 2025.773)" fill="#263238"/>
    <circle id="Ellipse_50" data-name="Ellipse 50" cx="1.131" cy="1.131" r="1.131" transform="translate(201.074 2021.625)" fill="#263238"/>
    <circle id="Ellipse_51" data-name="Ellipse 51" cx="1.131" cy="1.131" r="1.131" transform="translate(219.534 2021.25)" fill="#263238"/>
    <path id="Path_767" data-name="Path 767" d="M319.492,116.651a1.123,1.123,0,1,0-.329.8A1.131,1.131,0,0,0,319.492,116.651Z" transform="translate(-78.487 1907.587)" fill="#263238"/>
    <circle id="Ellipse_52" data-name="Ellipse 52" cx="1.131" cy="1.131" r="1.131" transform="translate(255.698 2025.583)" fill="#263238"/>
    <circle id="Ellipse_53" data-name="Ellipse 53" cx="1.131" cy="1.131" r="1.131" transform="translate(273.593 2022.381)" fill="#263238"/>
    <circle id="Ellipse_54" data-name="Ellipse 54" cx="1.131" cy="1.131" r="1.131" transform="translate(290.739 2020.494)" fill="#263238"/>
    <path id="Path_768" data-name="Path 768" d="M406.032,117.421a1.123,1.123,0,1,0-.329.8,1.131,1.131,0,0,0,.329-.8Z" transform="translate(-98.903 1907.405)" fill="#263238"/>
    <g id="Group_160" data-name="Group 160" transform="translate(114.794 2003.821)" opacity="0.3">
      <circle id="Ellipse_55" data-name="Ellipse 55" cx="1.131" cy="1.131" r="1.131" transform="translate(0 8.099)"/>
      <circle id="Ellipse_56" data-name="Ellipse 56" cx="1.131" cy="1.131" r="1.131" transform="translate(17.52 29.005)"/>
      <path id="Path_769" data-name="Path 769" d="M204.612,95.1a1.131,1.131,0,1,0-1.131,1.131A1.131,1.131,0,0,0,204.612,95.1Z" transform="translate(-166.178 -91.151)"/>
      <circle id="Ellipse_57" data-name="Ellipse 57" cx="1.131" cy="1.131" r="1.131" transform="translate(52.37 9.605)"/>
      <path id="Path_770" data-name="Path 770" d="M251.2,100.771a1.123,1.123,0,1,0-.329.8A1.131,1.131,0,0,0,251.2,100.771Z" transform="translate(-177.17 -92.488)"/>
      <circle id="Ellipse_58" data-name="Ellipse 58" cx="1.131" cy="1.131" r="1.131" transform="translate(86.28 12.149)"/>
      <circle id="Ellipse_59" data-name="Ellipse 59" cx="1.131" cy="1.131" r="1.131" transform="translate(104.74 4.141)"/>
      <circle id="Ellipse_60" data-name="Ellipse 60" cx="1.131" cy="1.131" r="1.131" transform="translate(123.949 9.605)"/>
      <circle id="Ellipse_61" data-name="Ellipse 61" cx="1.131" cy="1.131" r="1.131" transform="translate(140.904 11.675)"/>
      <circle id="Ellipse_62" data-name="Ellipse 62" cx="1.131" cy="1.131" r="1.131" transform="translate(158.799 6.403)"/>
      <circle id="Ellipse_63" data-name="Ellipse 63" cx="1.131" cy="1.131" r="1.131" transform="translate(175.945 4.516)"/>
      <circle id="Ellipse_64" data-name="Ellipse 64" cx="1.131" cy="1.131" r="1.131" transform="translate(190.073)"/>
    </g>
    <path id="Path_771" data-name="Path 771" d="M400.861,83.069V84.8h-.925V83.069H397.17v-.863l2.651-5.975h1.039v5.975h.688v.863Zm-2.812-.863h1.887V78.018Z" transform="translate(-97.346 1916.856)" fill="#263238"/>
    <path id="Path_772" data-name="Path 772" d="M404.763,79.722a1.368,1.368,0,0,1,1.268-.711c1.108,0,1.6.764,1.6,2.032v1.673c0,1.307-.627,2.162-1.933,2.162s-1.925-.856-1.925-2.162v-.55h.894V82.8c0,.764.321,1.238,1,1.238s1.009-.466,1.009-1.238V81.112c0-.764-.321-1.238-1.009-1.238a.924.924,0,0,0-.955.917v.2h-.894l.229-4.76h3.377v.856h-2.514Z" transform="translate(-98.903 1916.856)" fill="#263238"/>
    <path id="Path_773" data-name="Path 773" d="M412.4,77.573v2.7c0,.833-.39,1.383-1.223,1.383s-1.223-.55-1.223-1.383v-2.7c0-.818.39-1.383,1.223-1.383S412.4,76.74,412.4,77.573Zm-1.834,0v2.789c0,.466.176.764.611.764s.611-.306.611-.764V77.52c0-.466-.183-.764-.611-.764s-.611.3-.611.764Zm4.661-1.3-3.377,8.565h-.573l3.377-8.565Zm1.383,4.531v2.69c0,.833-.374,1.383-1.223,1.383s-1.223-.55-1.223-1.383V80.752c0-.825.39-1.375,1.223-1.375s1.223.55,1.223,1.375Zm-1.834,0v2.774c0,.466.183.764.611.764s.611-.321.611-.764V80.713c0-.466-.183-.764-.611-.764s-.611.3-.611.764Z" transform="translate(-100.361 1916.865)" fill="#263238"/>
    <path id="Path_774" data-name="Path 774" d="M401.271,127.035c0,2.583-2.9,3.507-2.911,5.478v.138h2.812v.871H397.42v-.764c0-2.758,2.9-3.3,2.9-5.708,0-.886-.29-1.345-1-1.345s-1,.5-1,1.261v.764h-.894v-.7c0-1.314.6-2.185,1.918-2.185S401.271,125.729,401.271,127.035Z" transform="translate(-97.405 1905.386)" fill="#263238"/>
    <path id="Path_775" data-name="Path 775" d="M403.52,127.025c0-1.307.642-2.155,1.956-2.155s1.971.848,1.971,2.155v4.416c0,1.314-.649,2.17-1.971,2.17s-1.956-.856-1.956-2.17Zm.94,4.477c0,.764.329,1.238,1.016,1.238s1.016-.466,1.016-1.238v-4.523c0-.764-.321-1.245-1.016-1.245s-1.016.458-1.016,1.245Z" transform="translate(-98.844 1905.381)" fill="#263238"/>
    <path id="Path_776" data-name="Path 776" d="M412.245,126.3v2.7c0,.833-.39,1.383-1.223,1.383s-1.223-.55-1.223-1.383v-2.7c0-.818.39-1.383,1.223-1.383S412.245,125.485,412.245,126.3Zm-1.834,0v2.8c0,.458.168.764.611.764s.611-.306.611-.764v-2.8c0-.458-.183-.764-.611-.764s-.627.267-.627.726Zm4.661-1.291-3.377,8.565h-.581l3.362-8.6Zm1.383,4.523v2.69c0,.833-.382,1.383-1.223,1.383s-1.23-.55-1.23-1.383v-2.69c0-.818.4-1.368,1.23-1.368s1.207.512,1.207,1.33Zm-1.841,0v2.781c0,.466.191.764.619.764s.611-.313.611-.764v-2.781c0-.458-.191-.764-.611-.764s-.634.229-.634.688Z" transform="translate(-100.326 1905.369)" fill="#263238"/>
    <rect id="Rectangle_264" data-name="Rectangle 264" width="5.54" height="5.54" transform="translate(161.365 2067.293)" fill="#263238"/>
    <line id="Line_164" data-name="Line 164" x2="22.495" transform="translate(170.358 2070.067)" fill="none" stroke="#263238" stroke-linejoin="round" stroke-width="1"/>
    <rect id="Rectangle_265" data-name="Rectangle 265" width="5.54" height="5.54" transform="translate(161.365 2077.333)" fill="#a858e1"/>
    <line id="Line_165" data-name="Line 165" x2="22.495" transform="translate(170.358 2080.1)" fill="none" stroke="#263238" stroke-linejoin="round" stroke-width="1"/>
    <rect id="Rectangle_266" data-name="Rectangle 266" width="5.54" height="5.54" transform="translate(161.365 2087.366)" fill="#7d7d7d"/>
    <line id="Line_166" data-name="Line 166" x2="22.495" transform="translate(170.358 2090.132)" fill="none" stroke="#263238" stroke-linejoin="round" stroke-width="1"/>
    <path id="Path_777" data-name="Path 777" d="M185.56,202.2A19.729,19.729,0,0,0,193.2,171.64" transform="translate(-47.423 1894.347)" fill="none" stroke="#a858e1" stroke-linejoin="round" stroke-width="7"/>
    <path id="Path_778" data-name="Path 778" d="M153.9,202a19.736,19.736,0,0,0,24.191,7.389" transform="translate(-39.954 1887.185)" fill="none" stroke="#7d7d7d" stroke-linejoin="round" stroke-width="7"/>
    <path id="Path_779" data-name="Path 779" d="M184.741,169.335a19.729,19.729,0,0,0-31.847,23.22" transform="translate(-38.948 1896.629)" fill="none" stroke="#263238" stroke-linejoin="round" stroke-width="7"/>
    <line id="Line_167" data-name="Line 167" x2="17.268" transform="translate(122.121 2076.226)" fill="none" stroke="#263238" stroke-linejoin="round" stroke-width="1"/>
    <line id="Line_168" data-name="Line 168" x2="17.268" transform="translate(122.121 2081.322)" fill="none" stroke="#263238" stroke-linejoin="round" stroke-width="1"/>
    <line id="Line_169" data-name="Line 169" x2="22.701" transform="translate(294.827 2074.522)" fill="none" stroke="#263238" stroke-linecap="round" stroke-linejoin="round" stroke-width="1"/>
    <line id="Line_170" data-name="Line 170" x2="22.701" transform="translate(294.827 2077.127)" fill="none" stroke="#263238" stroke-linecap="round" stroke-linejoin="round" stroke-width="1"/>
    <path id="Path_780" data-name="Path 780" d="M411.113,165.345A12.225,12.225,0,0,0,389,172.527h24.451a11.7,11.7,0,0,0-2.338-7.182Z" transform="translate(-95.419 1897.02)" fill="#a858e1"/>
    <path id="Path_781" data-name="Path 781" d="M405,174.082l9.88-7.182a11.7,11.7,0,0,1,2.33,7.182Z" transform="translate(-99.193 1895.465)" fill="none" stroke="#fff" stroke-linecap="round" stroke-linejoin="round" stroke-width="0.5"/>
    <path id="Path_782" data-name="Path 782" d="M405,172.714l3.82-11.614a11.691,11.691,0,0,1,6.113,4.432Z" transform="translate(-99.193 1896.833)" fill="none" stroke="#fff" stroke-linecap="round" stroke-linejoin="round" stroke-width="0.5"/>
    <path id="Path_783" data-name="Path 783" d="M403.835,172.521l-3.775-11.614a11.713,11.713,0,0,1,7.549,0Z" transform="translate(-98.028 1897.026)" fill="none" stroke="#fff" stroke-linecap="round" stroke-linejoin="round" stroke-width="0.5"/>
    <path id="Path_784" data-name="Path 784" d="M401.95,172.714l-9.88-7.182a11.69,11.69,0,0,1,6.113-4.432Z" transform="translate(-96.143 1896.833)" fill="none" stroke="#fff" stroke-linecap="round" stroke-linejoin="round" stroke-width="0.5"/>
    <path id="Path_785" data-name="Path 785" d="M401.225,174.082H389a11.706,11.706,0,0,1,2.338-7.182Z" transform="translate(-95.418 1895.465)" fill="none" stroke="#fff" stroke-linecap="round" stroke-linejoin="round" stroke-width="0.5"/>
    <path id="Path_786" data-name="Path 786" d="M406.025,175.84a1.482,1.482,0,1,0-1.475,1.475,1.467,1.467,0,0,0,1.475-1.475Z" transform="translate(-98.736 1893.708)" fill="#263238"/>
    <line id="Line_171" data-name="Line 171" y1="7.312" x2="5.02" transform="translate(305.814 2062.235)" fill="none" stroke="#263238" stroke-linecap="round" stroke-linejoin="round" stroke-width="1"/>
    <line id="Line_172" data-name="Line 172" x2="22.701" transform="translate(294.827 2098.972)" fill="none" stroke="#263238" stroke-linecap="round" stroke-linejoin="round" stroke-width="1"/>
    <line id="Line_173" data-name="Line 173" x2="22.701" transform="translate(294.827 2101.578)" fill="none" stroke="#263238" stroke-linecap="round" stroke-linejoin="round" stroke-width="1"/>
    <path id="Path_787" data-name="Path 787" d="M411.113,197.355A12.225,12.225,0,0,0,389,204.53h24.451A11.66,11.66,0,0,0,411.113,197.355Z" transform="translate(-95.419 1889.468)" fill="#a858e1"/>
    <path id="Path_788" data-name="Path 788" d="M405,206.085l9.88-7.175a11.66,11.66,0,0,1,2.346,7.175Z" transform="translate(-99.193 1887.914)" fill="none" stroke="#fff" stroke-linecap="round" stroke-linejoin="round" stroke-width="0.5"/>
    <path id="Path_789" data-name="Path 789" d="M405,204.714l3.82-11.614a11.66,11.66,0,0,1,6.113,4.439Z" transform="translate(-99.193 1889.284)" fill="none" stroke="#fff" stroke-linecap="round" stroke-linejoin="round" stroke-width="0.5"/>
    <path id="Path_790" data-name="Path 790" d="M403.835,204.521l-3.775-11.614a11.713,11.713,0,0,1,7.549,0Z" transform="translate(-98.028 1889.477)" fill="none" stroke="#fff" stroke-linecap="round" stroke-linejoin="round" stroke-width="0.5"/>
    <path id="Path_791" data-name="Path 791" d="M401.95,204.714l-9.88-7.175a11.66,11.66,0,0,1,6.113-4.439Z" transform="translate(-96.143 1889.284)" fill="none" stroke="#fff" stroke-linecap="round" stroke-linejoin="round" stroke-width="0.5"/>
    <path id="Path_792" data-name="Path 792" d="M401.225,206.085H389a11.668,11.668,0,0,1,2.338-7.175Z" transform="translate(-95.418 1887.914)" fill="none" stroke="#fff" stroke-linecap="round" stroke-linejoin="round" stroke-width="0.5"/>
    <path id="Path_793" data-name="Path 793" d="M406.025,207.842a1.482,1.482,0,1,0-1.475,1.482,1.467,1.467,0,0,0,1.475-1.482Z" transform="translate(-98.736 1886.156)" fill="#263238"/>
    <line id="Line_174" data-name="Line 174" x1="4.913" y1="6.945" transform="translate(300.901 2087.053)" fill="none" stroke="#263238" stroke-linecap="round" stroke-linejoin="round" stroke-width="1"/>
    <line id="Line_175" data-name="Line 175" x1="22.708" transform="translate(294.093 2123.423)" fill="none" stroke="#263238" stroke-linecap="round" stroke-linejoin="round" stroke-width="1"/>
    <line id="Line_176" data-name="Line 176" x1="22.708" transform="translate(294.093 2126.029)" fill="none" stroke="#263238" stroke-linecap="round" stroke-linejoin="round" stroke-width="1"/>
    <path id="Path_794" data-name="Path 794" d="M391.353,229.362a12.225,12.225,0,0,1,22.1,7.175H389A11.683,11.683,0,0,1,391.353,229.362Z" transform="translate(-95.419 1881.913)" fill="#a858e1"/>
    <path id="Path_795" data-name="Path 795" d="M401.225,238.085l-9.88-7.175A11.684,11.684,0,0,0,389,238.085Z" transform="translate(-95.418 1880.364)" fill="none" stroke="#fff" stroke-linecap="round" stroke-linejoin="round" stroke-width="0.5"/>
    <path id="Path_796" data-name="Path 796" d="M401.947,236.714,398.173,225.1a11.66,11.66,0,0,0-6.113,4.439Z" transform="translate(-96.141 1881.735)" fill="none" stroke="#fff" stroke-linecap="round" stroke-linejoin="round" stroke-width="0.5"/>
    <path id="Path_797" data-name="Path 797" d="M403.849,236.521l3.82-11.614a11.713,11.713,0,0,0-7.549,0Z" transform="translate(-98.042 1881.928)" fill="none" stroke="#fff" stroke-linecap="round" stroke-linejoin="round" stroke-width="0.5"/>
    <path id="Path_798" data-name="Path 798" d="M405,236.714l9.88-7.175a11.66,11.66,0,0,0-6.113-4.439Z" transform="translate(-99.193 1881.735)" fill="none" stroke="#fff" stroke-linecap="round" stroke-linejoin="round" stroke-width="0.5"/>
    <path id="Path_799" data-name="Path 799" d="M405,238.085h12.225a11.675,11.675,0,0,0-2.33-7.175Z" transform="translate(-99.193 1880.364)" fill="none" stroke="#fff" stroke-linecap="round" stroke-linejoin="round" stroke-width="0.5"/>
    <path id="Path_800" data-name="Path 800" d="M403.07,239.842a1.482,1.482,0,1,1,1.482,1.482A1.482,1.482,0,0,1,403.07,239.842Z" transform="translate(-98.738 1878.606)" fill="#263238"/>
    <line id="Line_177" data-name="Line 177" x1="8.986" y1="3.606" transform="translate(296.829 2114.842)" fill="none" stroke="#263238" stroke-linecap="round" stroke-linejoin="round" stroke-width="1"/>
    <line id="Line_178" data-name="Line 178" x2="22.701" transform="translate(294.827 2147.874)" fill="none" stroke="#263238" stroke-linecap="round" stroke-linejoin="round" stroke-width="1"/>
    <line id="Line_179" data-name="Line 179" x2="22.701" transform="translate(294.827 2150.479)" fill="none" stroke="#263238" stroke-linecap="round" stroke-linejoin="round" stroke-width="1"/>
    <path id="Path_801" data-name="Path 801" d="M411.117,261.362a12.225,12.225,0,0,0-22.1,7.182h24.451a11.7,11.7,0,0,0-2.353-7.182Z" transform="translate(-95.424 1874.363)" fill="#a858e1"/>
    <path id="Path_802" data-name="Path 802" d="M405,270.092l9.88-7.182a11.7,11.7,0,0,1,2.33,7.182Z" transform="translate(-99.193 1872.814)" fill="none" stroke="#fff" stroke-linecap="round" stroke-linejoin="round" stroke-width="0.5"/>
    <path id="Path_803" data-name="Path 803" d="M405,268.722l3.82-11.622a11.706,11.706,0,0,1,6.113,4.439Z" transform="translate(-99.193 1874.185)" fill="none" stroke="#fff" stroke-linecap="round" stroke-linejoin="round" stroke-width="0.5"/>
    <path id="Path_804" data-name="Path 804" d="M403.835,268.529l-3.775-11.622a11.713,11.713,0,0,1,7.549,0Z" transform="translate(-98.028 1874.378)" fill="none" stroke="#fff" stroke-linecap="round" stroke-linejoin="round" stroke-width="0.5"/>
    <path id="Path_805" data-name="Path 805" d="M401.95,268.722l-9.88-7.182a11.706,11.706,0,0,1,6.113-4.439Z" transform="translate(-96.143 1874.185)" fill="none" stroke="#fff" stroke-linecap="round" stroke-linejoin="round" stroke-width="0.5"/>
    <path id="Path_806" data-name="Path 806" d="M401.225,270.092H389a11.706,11.706,0,0,1,2.338-7.182Z" transform="translate(-95.418 1872.814)" fill="none" stroke="#fff" stroke-linecap="round" stroke-linejoin="round" stroke-width="0.5"/>
    <path id="Path_807" data-name="Path 807" d="M406.025,271.85a1.482,1.482,0,1,0-1.475,1.475A1.482,1.482,0,0,0,406.025,271.85Z" transform="translate(-98.736 1871.057)" fill="#263238"/>
    <line id="Line_180" data-name="Line 180" x1="11.117" y1="0.023" transform="translate(294.697 2142.884)" fill="none" stroke="#263238" stroke-linecap="round" stroke-linejoin="round" stroke-width="1"/>
    <path id="Path_808" data-name="Path 808" d="M352.121,50.657c.993.138,1.452.909,1.452,2.01v.222h-.856v-.283c0-.726-.29-1.169-.947-1.169s-.932.443-.932,1.169c0,1.834,2.743,1.841,2.743,4.149,0,1.093-.466,1.88-1.459,2.017v.619h-.764v-.619c-1.016-.138-1.467-.909-1.467-2.017v-.5h.848v.558c0,.764.306,1.154.963,1.154s.955-.42.955-1.154c0-1.819-2.735-1.841-2.735-4.141,0-1.123.458-1.857,1.436-2.01V50h.764Z" transform="translate(-86.192 1923.044)" fill="#fff"/>
    <path id="Path_809" data-name="Path 809" d="M359.5,52.755v.214a1.628,1.628,0,0,1-.993,1.681,1.635,1.635,0,0,1,.993,1.7v.627c0,1.253-.588,2.071-1.849,2.071s-1.834-.818-1.834-2.071v-.558h.856v.627c0,.764.306,1.177.955,1.177s.963-.428.963-1.261v-.627c0-.81-.344-1.192-1.032-1.215h-.489v-.825h.535a.986.986,0,0,0,.986-1.123v-.374c0-.84-.3-1.276-.963-1.276s-.955.458-.955,1.192v.42h-.856v-.374c0-1.245.588-2.055,1.834-2.055S359.5,51.51,359.5,52.755Z" transform="translate(-87.591 1922.879)" fill="#fff"/>
    <path id="Path_810" data-name="Path 810" d="M365.483,52.771c0,2.46-2.774,3.354-2.781,5.234v.122h2.682v.833H361.8v-.7c0-2.636,2.766-3.148,2.766-5.448,0-.848-.275-1.291-.955-1.291s-.955.481-.955,1.207v.726H361.8v-.672c0-1.245.573-2.078,1.834-2.078S365.483,51.518,365.483,52.771Z" transform="translate(-89.002 1922.879)" fill="#fff"/>
    <path id="Path_811" data-name="Path 811" d="M368.136,61.154H367.8V60h.871v1.07l-.451,1.108h-.374Z" transform="translate(-90.417 1920.685)" fill="#fff"/>
    <path id="Path_812" data-name="Path 812" d="M371.072,54.141a1.314,1.314,0,0,1,1.215-.68c1.047,0,1.528.764,1.528,1.941V57c0,1.253-.588,2.071-1.841,2.071S370.14,58.252,370.14,57v-.55H371v.619c0,.764.3,1.177.955,1.177s.955-.443.955-1.177v-1.6c0-.764-.3-1.177-.955-1.177a.879.879,0,0,0-.924.871v.191h-.848l.222-4.546h3.217v.818h-2.4Z" transform="translate(-90.969 1922.853)" fill="#fff"/>
    <path id="Path_813" data-name="Path 813" d="M379.729,52.748V52.9h-.848v-.214c0-.764-.306-1.169-.97-1.169s-.993.443-.993,1.322v1.834a1.322,1.322,0,0,1,1.322-.879c1.047,0,1.528.764,1.528,1.941v1.238c0,1.253-.619,2.071-1.864,2.071a1.824,1.824,0,0,1-1.9-2.071V52.809c0-1.3.581-2.109,1.88-2.109S379.729,51.495,379.729,52.748ZM376.917,55.8v1.238c0,.764.306,1.177.97,1.177s.97-.443.97-1.177V55.8c0-.764-.321-1.177-.97-1.177S376.917,55.071,376.917,55.8Z" transform="translate(-92.352 1922.879)" fill="#fff"/>
    <path id="Path_814" data-name="Path 814" d="M385.669,52.755v4.172c0,1.3-.581,2.117-1.895,2.117s-1.841-.81-1.841-2.055v-.153h.856v.206c0,.764.313,1.169.963,1.169s1.009-.443,1.009-1.307V55.071a1.307,1.307,0,0,1-1.322.863c-1.047,0-1.528-.764-1.528-1.925V52.755c0-1.245.611-2.055,1.872-2.055A1.8,1.8,0,0,1,385.669,52.755Zm-2.85-.046v1.23c0,.764.313,1.177.97,1.177s.97-.443.97-1.177V52.71c0-.764-.306-1.177-.97-1.177s-.97.428-.97,1.177Z" transform="translate(-93.746 1922.879)" fill="#fff"/>
    <path id="Path_815" data-name="Path 815" d="M388.4,61.154h-.336V60h.871v1.07l-.451,1.108h-.374Z" transform="translate(-95.197 1920.685)" fill="#fff"/>
    <path id="Path_816" data-name="Path 816" d="M394.145,52.681v.252a1.62,1.62,0,0,1-.932,1.689,1.658,1.658,0,0,1,.932,1.727v.6a1.925,1.925,0,1,1-3.82,0v-.6a1.635,1.635,0,0,1,.948-1.727,1.6,1.6,0,0,1-.947-1.689v-.252a1.925,1.925,0,1,1,3.82,0Zm-2.957,0v.4c0,.764.39,1.146,1.031,1.146s1.024-.351,1.024-1.146v-.4c0-.84-.382-1.23-1.024-1.23s-1.031.413-1.031,1.253Zm0,3.538v.688c0,.84.374,1.238,1.031,1.238s1.016-.4,1.024-1.238v-.672c0-.764-.344-1.177-1.024-1.177s-1.031.413-1.031,1.177Z" transform="translate(-95.727 1922.923)" fill="#fff"/>
    <path id="Path_817" data-name="Path 817" d="M400.052,52.755v4.172c0,1.3-.588,2.117-1.895,2.117s-1.841-.81-1.841-2.055v-.153h.848v.206c0,.764.313,1.169.97,1.169s.986-.4.986-1.307V55.071a1.322,1.322,0,0,1-1.322.863c-1.054,0-1.528-.764-1.528-1.925V52.755c0-1.245.611-2.055,1.872-2.055A1.814,1.814,0,0,1,400.052,52.755Zm-2.85-.046v1.23c0,.764.313,1.177.97,1.177s.947-.443.947-1.177V52.71c0-.764-.306-1.177-.97-1.177s-.947.428-.947,1.177Z" transform="translate(-97.134 1922.879)" fill="#fff"/>
    <path id="Path_818" data-name="Path 818" d="M405.983,52.755v.214a1.62,1.62,0,0,1-.993,1.681,1.635,1.635,0,0,1,.993,1.7v.627c0,1.253-.581,2.071-1.849,2.071s-1.834-.818-1.834-2.071v-.558h.856v.627c0,.764.306,1.177.955,1.177s.963-.428.963-1.261v-.627c0-.81-.344-1.192-1.032-1.215h-.489v-.825h.535a.986.986,0,0,0,.986-1.123v-.374c0-.84-.29-1.276-.963-1.276s-.955.458-.955,1.192v.42H402.3v-.374c0-1.245.588-2.055,1.834-2.055S405.983,51.51,405.983,52.755Z" transform="translate(-98.557 1922.879)" fill="#fff"/>
    <path id="Path_819" data-name="Path 819" d="M409.159,60v1.131h-.879V60Z" transform="translate(-99.967 1920.685)" fill="#fff"/>
    <path id="Path_820" data-name="Path 820" d="M410.56,52.755c0-1.245.619-2.055,1.872-2.055s1.88.81,1.88,2.055v4.218c0,1.253-.619,2.071-1.88,2.071s-1.872-.818-1.872-2.071Zm.9,4.279c0,.764.313,1.177.97,1.177s.97-.443.97-1.177V52.71c0-.764-.306-1.192-.97-1.192s-.97.443-.97,1.192Z" transform="translate(-100.505 1922.879)" fill="#fff"/>
    <path id="Path_821" data-name="Path 821" d="M420.215,52.755v.214a1.628,1.628,0,0,1-.986,1.681,1.628,1.628,0,0,1,.986,1.7v.627c0,1.253-.581,2.071-1.841,2.071s-1.834-.818-1.834-2.071v-.558h.856v.627c0,.764.3,1.177.955,1.177s.955-.428.955-1.261v-.627c0-.81-.336-1.192-1.024-1.215h-.489v-.825h.535a.986.986,0,0,0,.978-1.123v-.374c0-.84-.29-1.276-.955-1.276s-.955.458-.955,1.192v.42h-.856v-.374c0-1.245.581-2.055,1.834-2.055S420.215,51.51,420.215,52.755Z" transform="translate(-101.916 1922.879)" fill="#fff"/>
    <path id="Path_822" data-name="Path 822" d="M417.668,230.52A16.992,16.992,0,0,0,415.376,234c-.5,1.329-.833,3.156-1.528,4.149s-2.988.665-2.988,2.162a7.412,7.412,0,0,0,.993,3.156s.5,4.814,1.161,5.975,7.641,0,7.641,0,2.659-3.989,2.659-8.137S420.319,230.887,417.668,230.52Z" transform="translate(-100.576 1880.456)" fill="#fff" stroke="#263238" stroke-miterlimit="10" stroke-width="1"/>
    <path id="Path_823" data-name="Path 823" d="M417.74,240.123c-.069.588-.306,1.047-.535,1.024s-.359-.527-.29-1.123.306-1.047.527-1.024S417.824,239.527,417.74,240.123Z" transform="translate(-102 1878.456)" fill="#263238"/>
    <path id="Path_824" data-name="Path 824" d="M417.6,236.588s1.834-.458,1.834,1.834" transform="translate(-102.166 1879.033)" fill="none" stroke="#263238" stroke-miterlimit="10" stroke-width="1"/>
    <path id="Path_825" data-name="Path 825" d="M436.654,380l-.665,13.753s4.485,8.137,4.653,15.771,3.652,25.566,3.652,25.566l.665,10.3-1.666.16-1.33-2.651s-.657,2.819-1.161,2.819-4.478-.329-4.646-1.528-.5-1.826.5-1.987,3.82-6.808,3.82-6.808-6.976-16.107-8.3-19.255a76.312,76.312,0,0,1-2.659-8.306s-.993-5.479-2.162-11.117-2.155-15.939-2.155-15.939Z" transform="translate(-103.959 1845.191)" fill="#fff" stroke="#263238" stroke-miterlimit="10" stroke-width="1"/>
    <path id="Path_826" data-name="Path 826" d="M443.8,452.2c-.833,2.491-2.162,6.311-2.162,6.311l-1.658.5c-.993.16-.665.825-.5,1.987s4.149,1.528,4.646,1.528,1.161-2.819,1.161-2.819l1.329,2.651,1.666-.16-.665-10.3S444.631,449.711,443.8,452.2Z" transform="translate(-107.284 1828.438)" fill="#263238" stroke="#263238" stroke-miterlimit="10" stroke-width="1"/>
    <path id="Path_827" data-name="Path 827" d="M411.151,376.524s.168,4.485,1.33,6.64,2.292,9.627,2.292,9.627-.168,11.79,1.658,17.574,4.317,24.741,4.317,24.741-4.974,5.975-5.639,6.64-4.485,2.292-3.652,2.988,5.478,1.161,6.968.993,6.311-3.652,6.808-3.981.665,4.317.665,4.317h1.994l.5-6.976a9.566,9.566,0,0,0-.168-3.652,20.406,20.406,0,0,0-1.658-2.819l.825-20.753s1.329-6.976.336-11.622-2.292-12.118-2.292-12.118l.665-9.933.5-6.472s-1.994-1.528-6.976-1.528a61.846,61.846,0,0,0-9.627.833Z" transform="translate(-100.371 1847.505)" fill="#fff" stroke="#263238" stroke-miterlimit="10" stroke-width="1"/>
    <path id="Path_828" data-name="Path 828" d="M428.845,458.576a9.565,9.565,0,0,0-.168-3.652,16.223,16.223,0,0,0-1.261-2.223,14.182,14.182,0,0,0-3.224,2.72c-1.322,1.666-4.149,5.15-5.639,5.975a8.729,8.729,0,0,1-4.05.542c-1.314.764-3.2,1.8-2.59,2.292.825.665,5.478,1.161,6.968.993s6.311-3.652,6.808-3.981.665,4.317.665,4.317h1.994Z" transform="translate(-100.797 1828.04)" fill="#263238" stroke="#263238" stroke-miterlimit="10" stroke-width="1"/>
    <path id="Path_829" data-name="Path 829" d="M406.3,331.053s-.825,12.944-.657,19.583.993,17.436.993,17.436,2.988.993,4.814,1.49a11.459,11.459,0,0,0,2.659.5l2.155-3.82,1.528,4.149s3.484.328,7.969.328,8.626-1.987,8.963-2.483a11.548,11.548,0,0,1,1.161-1.329l-1.528-15.771s2.988-7.809,3.156-11.79-1.8-8.795-1.8-8.795-7.8,2.483-14.113,1.322-15.106-3.148-15.106-3.148Z" transform="translate(-99.34 1857.286)" fill="#a858e1" stroke="#263238" stroke-miterlimit="10" stroke-width="1"/>
    <path id="Path_830" data-name="Path 830" d="M441.225,294.744s3.148,13.753,2.988,15.771-3.82,8.13-3.82,8.13-3.981-7.3-4.646-11.461,0-7.3.825-8.795,3.156-5.349,3.156-5.349Z" transform="translate(-106.383 1865.706)" fill="#a858e1" stroke="#263238" stroke-miterlimit="10" stroke-width="1"/>
    <path id="Path_831" data-name="Path 831" d="M412.788,273.331s-6.113,10.621-6.113,13.448.168,13.944-.833,17.261-2.292,12.783-2.292,12.783,2.292,3.156,10.8,4.317,18.758-2.491,19.752-2.819a25.418,25.418,0,0,0,2.819-1.33l1-.328s-3.156-5.647-4.485-8.306-3.981-6.968-3.316-10.621,4.478-9.467,6.113-14.777.993-12.118-1.528-15.442-12.286-3.316-16.6-.825A11.522,11.522,0,0,0,412.788,273.331Z" transform="translate(-98.851 1872.342)" fill="#a858e1" stroke="#263238" stroke-miterlimit="10" stroke-width="1"/>
    <path id="Path_832" data-name="Path 832" d="M420.64,220.037c-2.644,1.146-4.722,3.217-4.027,6.113,1.161,4.814,4.653,7.969,4.653,12.118s-1.994,12.286-4.814,15.434-5.15,13.287-2.659,13.616,1.658-3.82,5.142-6.976,8.137-.657,9.3,3.988-.825,8.795,1.658,11.782,8.306,1.826,10.46-1.826.336-6.8,1.666-8.3,4.309-3.981,3.316-7.8-7.3-4.485-6.64-9.627,4.485-11.958,2.82-16.107-4.814-8.963-7.465-10.789a17.467,17.467,0,0,0-7.564-2.6,11.973,11.973,0,0,0-5.845.97Z" transform="translate(-101.019 1883.168)" fill="#263238" stroke="#263238" stroke-miterlimit="10" stroke-width="1"/>
    <path id="Path_833" data-name="Path 833" d="M407.562,339.59s-3.156,6.472-3.324,7.473-.329,8.3-.329,8.3.825,2.491,1.329,2.819,1.161-.16,1.161-1.33v-1.666s.993-2.155,1.826-3.82.5-5.807.5-5.807l2.651-4.485Z" transform="translate(-98.936 1854.724)" fill="#fff" stroke="#263238" stroke-miterlimit="10" stroke-width="1"/>
    <path id="Path_834" data-name="Path 834" d="M406.95,341.745l4.149,2.827,1.658-3.492-4.477-1.49Z" transform="translate(-99.654 1854.724)" fill="#fff" stroke="#263238" stroke-miterlimit="10" stroke-width="1"/>
    <path id="Path_835" data-name="Path 835" d="M426.526,278.933s-2.491-7.465-7.137-7.137-5.815,10.789-5.815,15.106.665,20.584.665,20.584l-6.64,16.107,4.814,2.988s11.125-16.6,11.461-17.429,1.329-22.579,1.329-22.579" transform="translate(-99.807 1870.72)" fill="#a858e1" stroke="#263238" stroke-miterlimit="10" stroke-width="1"/>
    <path id="Path_836" data-name="Path 836" d="M352.063,239.919s2.155-.16,1.49,1.658-1.819,2.98-2.644,3.148a7.807,7.807,0,0,1-1.329.16Z" transform="translate(-86.119 1878.239)" fill="none" stroke="#263238" stroke-miterlimit="10" stroke-width="1"/>
    <path id="Path_837" data-name="Path 837" d="M328.909,238.84s-1.987.329-1.65,1.819,1.528,3.973,2.147,4.141,1.658-.825,1.658-.825Z" transform="translate(-80.844 1878.493)" fill="#fff" stroke="#263238" stroke-miterlimit="10" stroke-width="1"/>
    <path id="Path_838" data-name="Path 838" d="M292.752,294.2s2.292-5.807,3.484-6.968,2.988-5.349,2.988-5.349l1.666,5.349-7.641,8.466S292.583,295.855,292.752,294.2Z" transform="translate(-72.705 1868.339)" fill="#fff" stroke="#263238" stroke-miterlimit="10" stroke-width="1"/>
    <path id="Path_839" data-name="Path 839" d="M295.287,266.126l4.134,16.81a1.742,1.742,0,0,0,2.223,1.253l10.048-3.148a1.757,1.757,0,0,0,1.184-2.094l-4.065-16.359a1.765,1.765,0,0,0-2.162-1.276l-10.139,2.735A1.765,1.765,0,0,0,295.287,266.126Z" transform="translate(-73.3 1873.205)" fill="#263238" stroke="#263238" stroke-miterlimit="10" stroke-width="1"/>
    <path id="Path_840" data-name="Path 840" d="M332.848,247.29l-.168,8.443,11.759,1.161-.336-8.283Z" transform="translate(-82.132 1876.5)" fill="#fff" stroke="#263238" stroke-miterlimit="10" stroke-width="1"/>
    <path id="Path_841" data-name="Path 841" d="M332.8,217.817s-4.63,3.309-5.624,6.785.657,8.115,1.322,9.444,2.812,7.114,3.645,8.107,4.63,2.651,5.96,2.292,5.463-.833,5.96-2.483,3.14-7.946,3.477-8.94,1.322-8.115.329-9.6a48.96,48.96,0,0,0-4.141-4.638,7.641,7.641,0,0,0-4.63-2.98C335.946,215.166,332.8,217.817,332.8,217.817Z" transform="translate(-80.76 1883.952)" fill="#263238" stroke="#263238" stroke-miterlimit="10" stroke-width="1"/>
    <path id="Path_842" data-name="Path 842" d="M325.94,259.436a7.748,7.748,0,0,1,6.625-3.477c4.63,0,9.1.16,10.262.5s3.308,4.47,3.308,4.47-11.92-.833-15.228-.833a47.122,47.122,0,0,0-6.457.5Z" transform="translate(-80.19 1874.455)" fill="#fff" stroke="#263238" stroke-miterlimit="10" stroke-width="1"/>
    <path id="Path_843" data-name="Path 843" d="M357.952,244.854a32.085,32.085,0,0,1-2.812-3.645,2.392,2.392,0,0,1,.329-2.651,4.584,4.584,0,0,1,1.322-.5,46.171,46.171,0,0,0,.336-5.3c-.16-.657.5-.833,1.322-.665s1.161,3.973,1.161,3.973a5.6,5.6,0,0,1,2.147,1.33c.993.993,1.161,3.14,1.161,3.82v2.651l.329,2.292-4.63,1.161Z" transform="translate(-87.37 1880.097)" fill="#fff" stroke="#263238" stroke-miterlimit="10" stroke-width="1"/>
    <path id="Path_844" data-name="Path 844" d="M360.323,262.825s-.993-11.752-.993-12.416,1.33-1.819,2.651-1.819a4.648,4.648,0,0,1,2.651,1.322s4.8,14.074,5.792,15.4,2.98,6.793,2.98,8.4-5.96-.16-7.641-1.65-4.967-7.641-4.967-7.641Z" transform="translate(-88.419 1876.193)" fill="#fff" stroke="#263238" stroke-miterlimit="10" stroke-width="1"/>
    <path id="Path_845" data-name="Path 845" d="M314.012,326.421l-1.49,16.435s-1.528,38.349-1.528,41.008.5,21.746,1.161,26.743a123.824,123.824,0,0,1,.5,13.944s-1.987.993-1.987,1.987v1.826a25.756,25.756,0,0,0-3.324,2.33c-.825.825-1.826,2.651-.665,3.652s9.467,4.317,10.628,4.317,4.149-.5,4.814-1.666.168-6.472.168-6.472,1.49-2.292,1.49-3.156-.168-1.994-.168-3.316.665-16.772.665-16.772,2.292-32.374,2.659-32.855,1.826-23.075,1.826-23.075l2.819.336,3.82,27.721s5.15,25.895,5.31,26.743,2.659,14.609,2.659,14.609v4.317c0,1.329,1.658,3.981,1.658,3.981s-.329,4.157.5,5.647,4.157,1.658,6.648.833,1.987-4.149,1.987-5.815-.16-3.316-.16-3.316a31.1,31.1,0,0,1,0-4.149c.16-1.666-1.329-6.479-1.329-7.3s.5-20.921.16-25.215-3.117-17.994-3.117-17.994-1.65-25.566-1.65-26.231.069-18.338.069-18.338-6.709,1.727-17.994.565-16.267-2.162-16.267-2.162Z" transform="translate(-75.873 1858.029)" fill="#263238" stroke="#263238" stroke-miterlimit="10" stroke-width="1"/>
    <path id="Path_846" data-name="Path 846" d="M316.524,261.87s-11.92,4.806-11.423,5.463-5.631,12.225-6.113,12.913-6.457,8.283-7.121,9.773-1.987,3.477.168,5.792,3.148,3.148,6.113,2.651,10.59-9.085,10.59-9.085.336,10.766.5,13.578.168,3.645.168,5.135-.825,2.292,1.161,4.134,10.43,4.141,16.39,3.82,10.758-.336,13.081-.993,4.134-.993,4.47-2.98a89.407,89.407,0,0,0,.5-9.108c0-1.658.993-18.873.993-18.873s5.3.5,7.778,0,4.141-5.135,3.477-7.289-3.308-3.82-4.638-5.127-2.147-3.148-3.973-5.135a5.781,5.781,0,0,0-4.134-2.292c-1.49-.306-6.3-1.987-6.3-1.987S326.289,260.731,316.524,261.87Z" transform="translate(-72.264 1873.159)" fill="#fff" stroke="#263238" stroke-miterlimit="10" stroke-width="1"/>
    <path id="Path_847" data-name="Path 847" d="M338.78,323.813a68.408,68.408,0,0,0,7.35-6.663" transform="translate(-83.571 1860.018)" fill="none" stroke="#263238" stroke-miterlimit="10" stroke-width="1"/>
    <path id="Path_848" data-name="Path 848" d="M334.1,329.264l1.322-1.024" transform="translate(-82.467 1857.402)" fill="none" stroke="#263238" stroke-miterlimit="10" stroke-width="1"/>
    <line id="Line_181" data-name="Line 181" y1="3.324" x2="3.797" transform="translate(259.71 2180.966)" fill="none" stroke="#263238" stroke-miterlimit="10" stroke-width="1"/>
    <line id="Line_182" data-name="Line 182" x1="2.812" y1="16.558" transform="translate(233.662 2145.971)" fill="none" stroke="#263238" stroke-miterlimit="10" stroke-width="1"/>
    <line id="Line_183" data-name="Line 183" x2="4.141" y2="5.799" transform="translate(231.011 2148.454)" fill="none" stroke="#263238" stroke-miterlimit="10" stroke-width="1"/>
    <path id="Path_849" data-name="Path 849" d="M326.62,264.62a46.976,46.976,0,0,1,9.1,15.068" transform="translate(-80.702 1872.411)" fill="none" stroke="#263238" stroke-miterlimit="10" stroke-width="1"/>
    <path id="Path_850" data-name="Path 850" d="M334.85,271.56s3.645,6.457,4.638,8.772" transform="translate(-82.644 1870.774)" fill="none" stroke="#263238" stroke-miterlimit="10" stroke-width="1"/>
    <path id="Path_851" data-name="Path 851" d="M364.75,267.66s1.161,5.3,1.322,5.96" transform="translate(-89.698 1871.694)" fill="none" stroke="#263238" stroke-miterlimit="10" stroke-width="1"/>
    <path id="Path_852" data-name="Path 852" d="M366,281.52a63.8,63.8,0,0,1-2.98,7.289s4.134-4.806,4.47-5.3" transform="translate(-89.29 1868.424)" fill="none" stroke="#263238" stroke-miterlimit="10" stroke-width="1"/>
  </g>
</svg>
