<svg xmlns="http://www.w3.org/2000/svg" xmlns:xlink="http://www.w3.org/1999/xlink" width="399" height="425.957" viewBox="0 0 399 425.957">
  <defs>
    <linearGradient id="linear-gradient" x1="0.5" x2="0.5" y2="1" gradientUnits="objectBoundingBox">
      <stop offset="0" stop-color="#e017ce"/>
      <stop offset="1" stop-color="#4cc1fe"/>
    </linearGradient>
    <filter id="Path_593" x="0" y="14.55" width="399" height="411.407" filterUnits="userSpaceOnUse">
      <feOffset dy="10" input="SourceAlpha"/>
      <feGaussianBlur stdDeviation="10" result="blur"/>
      <feFlood flood-color="#818181" flood-opacity="0.161"/>
      <feComposite operator="in" in2="blur"/>
      <feComposite in="SourceGraphic"/>
    </filter>
    <clipPath id="clip-path">
      <rect id="Rectangle_229" data-name="Rectangle 229" width="148.145" height="289.098" rx="14.52" fill="#263238" stroke="#263238" stroke-linecap="round" stroke-linejoin="round" stroke-width="1"/>
    </clipPath>
    <clipPath id="clip-path-2">
      <path id="Path_632" data-name="Path 632" d="M283.971,208.362s-7.051,1.254-10.271,7.443c-3.134,5.931-1.645,15.9,1.449,21.812,3.917,7.459,3.682,10.013,3.721,16.6a3.259,3.259,0,0,1-.83,2.46c-1.614,1.567-1.825-.784-2.249.548s3.917,4.278,8.391.384c2.9-2.531,3.565-9.605,2.2-13.7s-8.179-12.582-6.706-19.187,6.6-12.058,7.051-14.58S283.971,208.362,283.971,208.362Z" transform="translate(-271.964 -208.259)" fill="#263238" stroke="#263238" stroke-linecap="round" stroke-linejoin="round" stroke-width="1"/>
    </clipPath>
    <clipPath id="clip-path-3">
      <path id="Path_649" data-name="Path 649" d="M295.682,197.39h-.235c-3.761.431-8.7,1.222-11.713,3.643-3.674,2.93-2.413,3.667.94,5.343s13.319,7.239,14.267,15.207-2.311,20.448-3.878,26.113a11.277,11.277,0,0,0,3.565,12.269,6.534,6.534,0,0,0,5.155,1.708,10.21,10.21,0,0,0,5.21-1.739c.149-.118,1.865-1.927,1.567-2.17-1.5-1.277-3.314.556-4.231-1.2-1.872-3.6,1.034-7.921,3-10.882,1.606-2.421,4.278-3.917,5.907-6.268a18.9,18.9,0,0,0,2.8-8.391,41.817,41.817,0,0,0-2.7-19.116c-2.907-7.756-8.924-14.651-17.785-14.627C296.951,197.288,296.309,197.319,295.682,197.39Z" transform="translate(-281.505 -197.28)" fill="#263238" stroke="#263238" stroke-linecap="round" stroke-linejoin="round" stroke-width="1"/>
    </clipPath>
    <clipPath id="clip-path-4">
      <path id="Path_668" data-name="Path 668" d="M245.739,411.268s-.118-6.973.924-8.023,26.732-15.105,33.94-15,17.056,9.927,22.313,12.535c8.367,4.184,8.367,6.5,9.065,8.83s1.277,5,1.277,5H245.739Z" transform="translate(-245.735 -388.249)" fill="#fff" stroke="#263238" stroke-linecap="round" stroke-linejoin="round" stroke-width="1"/>
    </clipPath>
  </defs>
  <g id="Group-3" transform="translate(12 -2497.712)">
    <path id="Path_594" data-name="Path 594" d="M35.424,170.253S28.929,232.93,75.224,284.9s117.9,69.376,175.652,85.021,107.037-8.407,120.606-56.981S342.494,240.781,326.1,179.106s-11.7-79.913-58.07-125.135S138.763,14.164,88.621,65.622,35.424,170.253,35.424,170.253Z" transform="translate(-17.112 2509.003)" fill="#fff" opacity="0.7"/>
    <g transform="matrix(1, 0, 0, 1, -12, 2497.71)" filter="url(#Path_593)">
      <path id="Path_593-2" data-name="Path 593" d="M35.424,170.253S28.929,232.93,75.224,284.9s117.9,69.376,175.652,85.021,107.037-8.407,120.606-56.981S342.494,240.781,326.1,179.106s-11.7-79.913-58.07-125.135S138.763,14.164,88.621,65.622,35.424,170.253,35.424,170.253Z" transform="translate(-5.11 11.29)" opacity="0.3" fill="url(#linear-gradient)"/>
    </g>
    <g id="freepik--Device--inject-8" transform="translate(112.037 2577.555)">
      <rect id="Rectangle_228" data-name="Rectangle 228" width="148.145" height="289.098" rx="14.52" fill="#263238"/>
      <g id="Group_153" data-name="Group 153" clip-path="url(#clip-path)">
        <path id="Path_595" data-name="Path 595" d="M167.9,81.07A12.763,12.763,0,0,0,155.14,93.84V357.4a12.731,12.731,0,0,0,4.575,9.793L246.147,81.07Z" transform="translate(-155.14 -81.07)" fill="#fff" opacity="0.2"/>
        <path id="Path_596" data-name="Path 596" d="M253.315,438.008a5.022,5.022,0,1,0-1.468,3.564A5.038,5.038,0,0,0,253.315,438.008Z" transform="translate(-174.217 -157.269)" fill="none" stroke="#fff" stroke-linecap="round" stroke-linejoin="round" stroke-width="1"/>
      </g>
      <rect id="Rectangle_230" data-name="Rectangle 230" width="148.145" height="289.098" rx="14.52" fill="none" stroke="#263238" stroke-linecap="round" stroke-linejoin="round" stroke-width="1"/>
      <rect id="Rectangle_231" data-name="Rectangle 231" width="134.967" height="252.306" transform="translate(6.581 19.634)" fill="#fff" stroke="#263238" stroke-linecap="round" stroke-linejoin="round" stroke-width="1"/>
      <rect id="Rectangle_232" data-name="Rectangle 232" width="11.188" height="6.135" transform="translate(125.769 22.25)" fill="none" stroke="#263238" stroke-linecap="round" stroke-linejoin="round" stroke-width="0.821"/>
      <rect id="Rectangle_233" data-name="Rectangle 233" width="8.728" height="6.135" transform="translate(125.769 22.25)" fill="#263238" stroke="#263238" stroke-linecap="round" stroke-linejoin="round" stroke-width="0.725"/>
      <rect id="Rectangle_234" data-name="Rectangle 234" width="1.575" height="2.703" transform="translate(136.934 23.966)" fill="#263238" stroke="#263238" stroke-linecap="round" stroke-linejoin="round" stroke-width="0.725"/>
      <rect id="Rectangle_235" data-name="Rectangle 235" width="2.053" height="3.518" transform="translate(9.621 24.154)" fill="#263238" stroke="#263238" stroke-linecap="round" stroke-linejoin="round" stroke-width="0.883"/>
      <rect id="Rectangle_236" data-name="Rectangle 236" width="2.053" height="4.756" transform="translate(12.849 22.916)" fill="#263238" stroke="#263238" stroke-linecap="round" stroke-linejoin="round" stroke-width="0.883"/>
      <rect id="Rectangle_237" data-name="Rectangle 237" width="2.053" height="6.213" transform="translate(16.069 21.459)" fill="#263238" stroke="#263238" stroke-linecap="round" stroke-linejoin="round" stroke-width="0.883"/>
      <rect id="Rectangle_238" data-name="Rectangle 238" width="129.6" height="9.746" transform="translate(8.759 31.801)" fill="#a858e1"/>
    </g>
    <g id="freepik--text-balloons--inject-8" transform="translate(125.333 2630.548)">
      <path id="Path_597" data-name="Path 597" d="M306.752,298.71H266.92a4.92,4.92,0,0,0-4.92,4.92v4.889l-9.84,4.427,9.84,2.64v3.056a4.92,4.92,0,0,0,4.92,4.92h39.87a4.92,4.92,0,0,0,4.92-4.92v-15a4.92,4.92,0,0,0-4.959-4.928Z" transform="translate(-189.444 -181.19)" fill="#fff" stroke="#263238" stroke-miterlimit="10" stroke-width="1"/>
      <path id="Path_598" data-name="Path 598" d="M286.372,314.506a2.068,2.068,0,1,1-.6-1.468,2.076,2.076,0,0,1,.6,1.468Z" transform="translate(-195.953 -184.161)" fill="#263238"/>
      <path id="Path_599" data-name="Path 599" d="M297.937,314.506a2.068,2.068,0,1,1-.6-1.468A2.068,2.068,0,0,1,297.937,314.506Z" transform="translate(-198.46 -184.161)" fill="#263238"/>
      <path id="Path_600" data-name="Path 600" d="M309.5,314.506a2.076,2.076,0,1,1-2.076-2.076A2.076,2.076,0,0,1,309.5,314.506Z" transform="translate(-200.961 -184.161)" fill="#263238"/>
      <path id="Path_601" data-name="Path 601" d="M306.752,148.71H266.92a4.92,4.92,0,0,0-4.92,4.912v4.9l-9.84,4.427,9.84,2.64v3.056a4.92,4.92,0,0,0,4.92,4.92h39.87a4.92,4.92,0,0,0,4.92-4.92v-15a4.92,4.92,0,0,0-4.959-4.928Z" transform="translate(-189.444 -148.71)" fill="#fff" stroke="#263238" stroke-miterlimit="10" stroke-width="1"/>
      <path id="Path_602" data-name="Path 602" d="M286.372,164.506a2.068,2.068,0,1,1-.6-1.468A2.076,2.076,0,0,1,286.372,164.506Z" transform="translate(-195.953 -151.681)" fill="#263238"/>
      <path id="Path_603" data-name="Path 603" d="M297.937,164.506a2.068,2.068,0,1,1-.6-1.468A2.068,2.068,0,0,1,297.937,164.506Z" transform="translate(-198.46 -151.681)" fill="#263238"/>
      <path id="Path_604" data-name="Path 604" d="M309.5,164.506a2.076,2.076,0,1,1-2.076-2.076A2.076,2.076,0,0,1,309.5,164.506Z" transform="translate(-200.961 -151.681)" fill="#263238"/>
      <path id="Path_605" data-name="Path 605" d="M177.03,380H216.9a4.92,4.92,0,0,1,4.92,4.92v4.889l9.84,4.427-9.84,2.64v3.055a4.92,4.92,0,0,1-4.92,4.92H177.03a4.92,4.92,0,0,1-4.92-4.92v-14.98A4.92,4.92,0,0,1,177.03,380Z" transform="translate(-172.11 -198.793)" fill="#fff" stroke="#263238" stroke-miterlimit="10" stroke-width="1"/>
      <path id="Path_606" data-name="Path 606" d="M212.71,395.838a2.076,2.076,0,1,0,2.068-2.068,2.076,2.076,0,0,0-2.068,2.068Z" transform="translate(-180.901 -201.774)" fill="#263238"/>
      <path id="Path_607" data-name="Path 607" d="M201.15,395.838a2.068,2.068,0,1,0,2.068-2.068A2.068,2.068,0,0,0,201.15,395.838Z" transform="translate(-178.398 -201.774)" fill="#263238"/>
      <path id="Path_608" data-name="Path 608" d="M189.58,395.838a2.076,2.076,0,1,0,2.076-2.068A2.076,2.076,0,0,0,189.58,395.838Z" transform="translate(-175.893 -201.774)" fill="#263238"/>
      <path id="Path_609" data-name="Path 609" d="M177.03,228H216.9a4.92,4.92,0,0,1,4.92,4.92v4.889l9.84,4.427-9.84,2.64v3.056a4.92,4.92,0,0,1-4.92,4.92H177.03a4.92,4.92,0,0,1-4.92-4.92V232.912A4.92,4.92,0,0,1,177.03,228Z" transform="translate(-172.11 -165.879)" fill="#fff" stroke="#263238" stroke-miterlimit="10" stroke-width="1"/>
      <path id="Path_610" data-name="Path 610" d="M212.71,243.786a2.068,2.068,0,1,0,.6-1.468,2.076,2.076,0,0,0-.6,1.468Z" transform="translate(-180.901 -168.848)" fill="#263238"/>
      <path id="Path_611" data-name="Path 611" d="M201.15,243.786a2.068,2.068,0,1,0,.6-1.468,2.068,2.068,0,0,0-.6,1.468Z" transform="translate(-178.398 -168.848)" fill="#263238"/>
      <path id="Path_612" data-name="Path 612" d="M189.58,243.786a2.076,2.076,0,1,0,2.076-2.076A2.076,2.076,0,0,0,189.58,243.786Z" transform="translate(-175.893 -168.848)" fill="#263238"/>
    </g>
    <g id="freepik--character-1--inject-8" transform="translate(120.616 2613.424)">
      <path id="Path_613" data-name="Path 613" d="M233.758,213.381c-.924-4.082-4.5-19.422-6.73-22.431-2.578-3.479-17.495-11.556-19.626-13.013a16.664,16.664,0,0,0-6.393-2.578s-8.187,2.8-16.257,4.936-12.535,3.588-13.46,6.268c-.783,2.35-4.364,22.109-5.2,26.8Z" transform="translate(-166.09 -137.356)" fill="#616161" stroke="#263238" stroke-linecap="round" stroke-linejoin="round" stroke-width="1"/>
      <path id="Path_614" data-name="Path 614" d="M189.725,217.25q-.509-8.783-1-17.55" transform="translate(-170.992 -142.627)" fill="none" stroke="#263238" stroke-linecap="round" stroke-linejoin="round" stroke-width="1"/>
      <path id="Path_615" data-name="Path 615" d="M214.746,193.3c3.815-.556,5.946-7.513,6.511-10.428.078-.423.157-.783.227-1.136-3.04-1.794-5.61-3.251-6.4-3.8a16.664,16.664,0,0,0-6.393-2.578s-2.985,1.026-7.13,2.3c.556,1.269,1.974,4.4,4.105,8.579C208.47,191.734,210.938,193.881,214.746,193.3Z" transform="translate(-173.771 -137.356)" fill="#fff" stroke="#263238" stroke-linecap="round" stroke-linejoin="round" stroke-width="1"/>
      <path id="Path_616" data-name="Path 616" d="M207.169,162.2s-1.12,11.556-1.23,12.23,1.457,5.155,4.152,9.308,6.268,3.815,8.07.219a57.781,57.781,0,0,0,3.251-9.308,12.058,12.058,0,0,1-8.187-6.268C210.537,162.99,208.289,160.631,207.169,162.2Z" transform="translate(-174.718 -134.403)" fill="#b2b2b2" stroke="#263238" stroke-linecap="round" stroke-linejoin="round" stroke-width="1"/>
      <path id="Path_617" data-name="Path 617" d="M214.372,127.183s-7.177,2.131-9.754,7.741c-2.1,4.56-.9,11.666,0,14.016s1.23,6.957,2.914,11.11,6.166,9.4,9.981,10.185,11.329-5.273,13.319-8.07,1.348-7.631,1.567-8.414,3.134-6.393,2.8-13.319S225.254,125.279,214.372,127.183Z" transform="translate(-174.18 -126.864)" fill="#b2b2b2" stroke="#263238" stroke-linecap="round" stroke-linejoin="round" stroke-width="1"/>
      <path id="Path_618" data-name="Path 618" d="M233.45,160.19s1.011,6.5-.564,7.177-4.6-.337-5.046-1.238" transform="translate(-179.461 -134.071)" fill="none" stroke="#263238" stroke-linecap="round" stroke-linejoin="round" stroke-width="1"/>
      <path id="Path_619" data-name="Path 619" d="M225.2,171.218a11.462,11.462,0,0,1-4.38-3.588s-2.468,3.7.227,4.7A3.494,3.494,0,0,0,225.2,171.218Z" transform="translate(-177.718 -135.683)" fill="#263238" stroke="#263238" stroke-linecap="round" stroke-linejoin="round" stroke-width="1"/>
      <path id="Path_620" data-name="Path 620" d="M227.886,159.412c-.274.885-.854,1.5-1.3,1.363s-.58-.964-.313-1.857.854-1.5,1.293-1.363S228.153,158.519,227.886,159.412Z" transform="translate(-179.092 -133.497)" fill="#263238"/>
      <path id="Path_621" data-name="Path 621" d="M237.906,160.982c-.274.893-.854,1.5-1.3,1.363s-.58-.964-.313-1.849.854-1.5,1.3-1.371S238.173,160.1,237.906,160.982Z" transform="translate(-181.262 -133.837)" fill="#263238"/>
      <path id="Path_622" data-name="Path 622" d="M229.563,154.124a.721.721,0,0,1-.5-.2c-2.092-2.006-4.434-.157-4.536-.078a.721.721,0,1,1-.909-1.12,4.834,4.834,0,0,1,6.448.149.729.729,0,0,1,0,1.026.713.713,0,0,1-.5.219Z" transform="translate(-178.489 -132.205)" fill="#263238"/>
      <path id="Path_623" data-name="Path 623" d="M240.554,157.193a.736.736,0,0,1-.611-.329,2.178,2.178,0,0,0-1.449-1.144,2.209,2.209,0,0,0-1.5.5.721.721,0,1,1-.964-1.073,3.573,3.573,0,0,1,2.656-.862,3.518,3.518,0,0,1,2.476,1.794.721.721,0,0,1-.611,1.113Z" transform="translate(-181.184 -132.79)" fill="#263238"/>
      <path id="Path_624" data-name="Path 624" d="M204.795,149.5c.047.141.086.282.125.431v.094c.047.157.086.321.125.486v.047a3.129,3.129,0,0,0,.125.572l3.541-.783s3.251.674,3.706-.447-1.684-2.8-.118-4.481,5.946-.564,6.393-2.7,1.567-9.754,10.655-7.4a25.369,25.369,0,0,1,5.3,2.429c-2.209-6.205-10.8-12.285-20.323-10.616,0,0-7.177,2.131-9.754,7.741-2.1,4.56-.9,11.666,0,14.016.055.149.11.313.165.478Z" transform="translate(-174.169 -126.853)" fill="#263238" stroke="#263238" stroke-linecap="round" stroke-linejoin="round" stroke-width="1"/>
      <path id="Path_625" data-name="Path 625" d="M210.308,157.984s-1.011-4.372-3.706-4.826-3.7,2.8-3.134,5.719,3.471,5.61,6.056,4.826" transform="translate(-174.151 -132.54)" fill="#b2b2b2" stroke="#263238" stroke-linecap="round" stroke-linejoin="round" stroke-width="1"/>
      <path id="Path_626" data-name="Path 626" d="M219.312,216.507c2.045-2.225,6.8-7.388,7.153-7.741s1.12-.447,3.7-1.12,6.84-2.131,7.513-2.7a12.033,12.033,0,0,0,2.7-2.35,23.784,23.784,0,0,0,1.457-2.8c.337-.564,3.024-1.794,3.7-2.35s1.348-1.677,1.12-2.241-4.145.564-7.733,1.348a39.356,39.356,0,0,1-5.837.893s2.021-2.914,3.251-4.262.783-4.262-.11-3.134-6.612,6.957-7.835,7.4-4.035,4.6-5.947,6.511c-1.567,1.567-14.306,9.817-18.568,12.535Z" transform="translate(-174.271 -140.482)" fill="#b2b2b2" stroke="#263238" stroke-linecap="round" stroke-linejoin="round" stroke-width="1"/>
      <line id="Line_116" data-name="Line 116" x1="3.815" y2="1.348" transform="translate(63.743 59.314)" fill="none" stroke="#263238" stroke-linecap="round" stroke-linejoin="round" stroke-width="1"/>
      <line id="Line_117" data-name="Line 117" x1="128.511" transform="translate(2.209 76.025)" fill="none" stroke="#263238" stroke-linecap="round" stroke-linejoin="round" stroke-width="1"/>
    </g>
    <g id="freepik--character-2--inject-8" transform="translate(122.826 2668.601)">
      <path id="Path_627" data-name="Path 627" d="M314.268,287.578c-.392-2.985-2.061-14.682-4.521-20.057a20.268,20.268,0,0,0-12.481-11.016c-4.5-1.363-10.381-2.515-13.319-2.1,0,0-9.754,3.361-13.946,4.3s-8.54,3.878-10.326,6.4c-1.567,2.241-9.778,18.842-11.556,22.47Z" transform="translate(-186.062 -209.631)" fill="#fff" stroke="#263238" stroke-linecap="round" stroke-linejoin="round" stroke-width="1"/>
      <path id="Path_628" data-name="Path 628" d="M317.671,287.578c-.392-2.985-2.061-14.682-4.521-20.057a20.268,20.268,0,0,0-12.481-11.016c-4.5-1.363-10.381-2.515-13.319-2.1,0,0-6.683,2.3-11.368,3.627-1.465,2.288-4.756,7.365-7.835,11.689-3.917,5.484-5.484,13.413-3.361,17.855Z" transform="translate(-189.465 -209.631)" fill="#a858e1" stroke="#263238" stroke-linecap="round" stroke-linejoin="round" stroke-width="1"/>
      <path id="Path_629" data-name="Path 629" d="M285.337,245.226a34.778,34.778,0,0,1,1.05,11.227c-.423,6.4-3.776,10.491-2.515,13.742s6.268,4.5,10.694,1.05,5.241-11.956,5.351-15.732S301.806,240,301.806,240s-4.7,5.555-10.185,5.766S285.337,245.226,285.337,245.226Z" transform="translate(-193.742 -206.53)" fill="#fff" stroke="#263238" stroke-linecap="round" stroke-linejoin="round" stroke-width="1"/>
      <path id="Path_630" data-name="Path 630" d="M283.971,208.362s-7.051,1.254-10.271,7.443c-3.134,5.931-1.645,15.9,1.449,21.812,3.917,7.459,3.682,10.013,3.721,16.6a3.259,3.259,0,0,1-.83,2.46c-1.614,1.567-1.825-.784-2.249.548s3.917,4.278,8.391.384c2.9-2.531,3.565-9.605,2.2-13.7s-8.179-12.582-6.706-19.187,6.6-12.058,7.051-14.58S283.971,208.362,283.971,208.362Z" transform="translate(-191.225 -199.657)" fill="#263238"/>
      <g id="Group_154" data-name="Group 154" transform="translate(80.739 8.602)" clip-path="url(#clip-path-2)">
        <path id="Path_631" data-name="Path 631" d="M284.771,213.29s-12.191,7.31-10.287,18.623,14.1,14.619,12.951,26.277" transform="translate(-272.466 -209.349)" fill="none" stroke="#636363" stroke-linecap="round" stroke-linejoin="round" stroke-width="1"/>
      </g>
      <path id="Path_633" data-name="Path 633" d="M283.971,208.362s-7.051,1.254-10.271,7.443c-3.134,5.931-1.645,15.9,1.449,21.812,3.917,7.459,3.682,10.013,3.721,16.6a3.259,3.259,0,0,1-.83,2.46c-1.614,1.567-1.825-.784-2.249.548s3.917,4.278,8.391.384c2.9-2.531,3.565-9.605,2.2-13.7s-8.179-12.582-6.706-19.187,6.6-12.058,7.051-14.58S283.971,208.362,283.971,208.362Z" transform="translate(-191.225 -199.657)" fill="none" stroke="#263238" stroke-linecap="round" stroke-linejoin="round" stroke-width="1"/>
      <path id="Path_634" data-name="Path 634" d="M311.586,288.262h15.936V288h0v-.172h0v-.642h0v-.541a1.963,1.963,0,0,0,0-.211v-.964l-.047-.282h0l-.047-.282v-.063l-.047-.306h0a2.736,2.736,0,0,0-.055-.353h0c-.055-.36-.117-.736-.18-1.12h0a.7.7,0,0,0-.063-.353v-.039a1.853,1.853,0,0,0-.063-.353v-.055a1.809,1.809,0,0,0-.063-.337v-.086a.6.6,0,0,0-.055-.306v-.125l-.047-.274v-.141l-.047-.266v-.133a1.794,1.794,0,0,0-.055-.282v-.133a1.786,1.786,0,0,0-.055-.282v-.141a.494.494,0,0,0-.055-.274v-.141a.521.521,0,0,0-.055-.282v-.149a1.885,1.885,0,0,0-.055-.274v-.149a1.156,1.156,0,0,0-.063-.274v-.149a.466.466,0,0,0-.063-.282.906.906,0,0,0,0-.141,1.888,1.888,0,0,0-.055-.29v-.141l-.83-.517v-.118a1.449,1.449,0,0,0-.078-.345v-.078l-.094-.407h0c-.063-.282-.133-.564-.2-.846v-.063a1.9,1.9,0,0,0-.078-.353v-.125l-.07-.282a1.4,1.4,0,0,1-.039-.149l-.07-.266a.215.215,0,0,0-.039-.149c-.039-.047-.039-.165-.063-.251l-.047-.165a.872.872,0,0,0-.063-.235l-.047-.165-.063-.227-.047-.172a.85.85,0,0,0-.063-.219l-.047-.165a2.158,2.158,0,0,1-.063-.212.634.634,0,0,0-.055-.172c-.016-.055,0-.141-.063-.2s0-.11-.055-.172a1.9,1.9,0,0,0-.063-.2,1.352,1.352,0,0,0-.055-.165,2.024,2.024,0,0,0-.063-.2.194.194,0,0,0-.055-.157c-.055-.055-.039-.133-.063-.2s-.039-.1-.055-.157l-.071-.188a1.131,1.131,0,0,0-.055-.149,1.755,1.755,0,0,0-.063-.188,1.046,1.046,0,0,1-.055-.141l-.07-.188a.138.138,0,0,0-.055-.133l-.078-.188-.047-.125a.485.485,0,0,0-.086-.2.611.611,0,0,1-.039-.11l-.133-.282a20.37,20.37,0,0,0-11.65-10.71c-.7,2.437-2.452,9.253-2.029,14.886C309.768,277.725,311.006,285.027,311.586,288.262Z" transform="translate(-199.316 -210.315)" fill="#fff" stroke="#263238" stroke-linecap="round" stroke-linejoin="round" stroke-width="1"/>
      <path id="Path_635" data-name="Path 635" d="M286.464,208.8s-3.988,3.04-5.241,6.4-2.311,11.846-2.1,15.207,4.5,9.229,6.268,10.694,9.4-.212,13.005-3.565c2.491-2.35,4.615-10.381,2.938-18.247S291.6,206.914,286.464,208.8Z" transform="translate(-192.769 -199.682)" fill="#fff" stroke="#263238" stroke-linecap="round" stroke-linejoin="round" stroke-width="1"/>
      <path id="Path_636" data-name="Path 636" d="M292.92,228.136s2.3-2.413,6.182-.423" transform="translate(-195.763 -203.699)" fill="none" stroke="#263238" stroke-linecap="round" stroke-linejoin="round" stroke-width="1"/>
      <path id="Path_637" data-name="Path 637" d="M284.85,225.864a4.286,4.286,0,0,0-3.04-3.134" transform="translate(-193.357 -202.791)" fill="none" stroke="#263238" stroke-linecap="round" stroke-linejoin="round" stroke-width="1"/>
      <path id="Path_638" data-name="Path 638" d="M287.335,225.39a5.854,5.854,0,0,1-.948,2.726c-.736.736-2.3,1.465-1.677,2.938a2.19,2.19,0,0,0,3.353.94" transform="translate(-193.954 -203.367)" fill="none" stroke="#263238" stroke-linecap="round" stroke-linejoin="round" stroke-width="1"/>
      <path id="Path_639" data-name="Path 639" d="M282.07,219.9s1.786-2.2,4.7,0" transform="translate(-193.413 -201.966)" fill="none" stroke="#263238" stroke-linecap="round" stroke-linejoin="round" stroke-width="1"/>
      <path id="Path_640" data-name="Path 640" d="M292.25,221.353s3.455-2.1,6.182,1.778" transform="translate(-195.618 -202.37)" fill="none" stroke="#263238" stroke-linecap="round" stroke-linejoin="round" stroke-width="1"/>
      <path id="Path_641" data-name="Path 641" d="M284.48,236.7s1.473,1.99,5.484,1.465,4.928-2.2,4.928-2.2" transform="translate(-193.935 -205.656)" fill="none" stroke="#263238" stroke-linecap="round" stroke-linejoin="round" stroke-width="1"/>
      <path id="Path_642" data-name="Path 642" d="M296.11,228.125a.995.995,0,1,1-1-.995,1,1,0,0,1,1,.995Z" transform="translate(-196.023 -203.744)" fill="#263238"/>
      <path id="Path_643" data-name="Path 643" d="M284.33,225.175a.995.995,0,1,1-.995-1A.995.995,0,0,1,284.33,225.175Z" transform="translate(-193.472 -203.105)" fill="#263238"/>
      <path id="Path_644" data-name="Path 644" d="M287.43,238.285s1.677,3.463,4.615,3.134S294.771,237,294.771,237a10.694,10.694,0,0,1-7.341,1.285Z" transform="translate(-194.574 -205.881)" fill="#263238" stroke="#263238" stroke-linecap="round" stroke-linejoin="round" stroke-width="1"/>
      <path id="Path_645" data-name="Path 645" d="M295.682,197.39h-.235c-3.761.431-8.7,1.222-11.713,3.643-3.674,2.93-2.413,3.667.94,5.343s13.319,7.239,14.267,15.207-2.311,20.448-3.878,26.113a11.277,11.277,0,0,0,3.565,12.269,6.534,6.534,0,0,0,5.155,1.708,10.21,10.21,0,0,0,5.21-1.739c.149-.118,1.865-1.927,1.567-2.17-1.5-1.277-3.314.556-4.231-1.2-1.872-3.6,1.034-7.921,3-10.882,1.606-2.421,4.278-3.917,5.907-6.268a18.9,18.9,0,0,0,2.8-8.391,41.817,41.817,0,0,0-2.7-19.116c-2.907-7.756-8.924-14.651-17.785-14.627C296.951,197.288,296.309,197.319,295.682,197.39Z" transform="translate(-193.291 -197.28)" fill="#263238"/>
      <g id="Group_155" data-name="Group 155" transform="translate(88.214)" clip-path="url(#clip-path-3)">
        <path id="Path_646" data-name="Path 646" d="M278.41,201.62a28.052,28.052,0,0,1,17.957,10.671c6.988,9.488,8.978,15.928,8.806,24.734s6.949,12.88,12.2,10.334" transform="translate(-280.835 -198.22)" fill="none" stroke="#636363" stroke-linecap="round" stroke-linejoin="round" stroke-width="1"/>
        <path id="Path_647" data-name="Path 647" d="M290.73,198.16s14.236,2.711,18.8,16.938,2.719,22.893,8.83,24.06" transform="translate(-283.503 -197.47)" fill="none" stroke="#636363" stroke-linecap="round" stroke-linejoin="round" stroke-width="1"/>
        <path id="Path_648" data-name="Path 648" d="M299.81,232.11s5.257,12.708,3.917,24.734,3.917,14.236,12.371,12.026" transform="translate(-285.469 -204.822)" fill="none" stroke="#636363" stroke-linecap="round" stroke-linejoin="round" stroke-width="1"/>
      </g>
      <path id="Path_650" data-name="Path 650" d="M295.682,197.39h-.235c-3.761.431-8.7,1.222-11.713,3.643-3.674,2.93-2.413,3.667.94,5.343s13.319,7.239,14.267,15.207-2.311,20.448-3.878,26.113a11.277,11.277,0,0,0,3.565,12.269,6.534,6.534,0,0,0,5.155,1.708,10.21,10.21,0,0,0,5.21-1.739c.149-.118,1.865-1.927,1.567-2.17-1.5-1.277-3.314.556-4.231-1.2-1.872-3.6,1.034-7.921,3-10.882,1.606-2.421,4.278-3.917,5.907-6.268a18.9,18.9,0,0,0,2.8-8.391,41.817,41.817,0,0,0-2.7-19.116c-2.907-7.756-8.924-14.651-17.785-14.627C296.951,197.288,296.309,197.319,295.682,197.39Z" transform="translate(-193.291 -197.28)" fill="none" stroke="#263238" stroke-linecap="round" stroke-linejoin="round" stroke-width="1"/>
      <path id="Path_651" data-name="Path 651" d="M233.943,267.381a7.834,7.834,0,0,0,2.938,1.677,33.223,33.223,0,0,1,1.567,9.229,57.188,57.188,0,0,0,.58,8.313h12.849a82.131,82.131,0,0,1-5.986-12.716c-1.99-5.978-1.152-9.339-2.515-13.217s-2-5.766-4.3-8.806-4.4-2.1-4.4-1.05,1.254,1.465,2.2,2.938a17.235,17.235,0,0,1,1.567,3.455s-4.411,2-5.664,4.2A5,5,0,0,0,233.943,267.381Z" transform="translate(-182.618 -208.653)" fill="#fff" stroke="#263238" stroke-linecap="round" stroke-linejoin="round" stroke-width="1"/>
      <path id="Path_652" data-name="Path 652" d="M230.077,262.47s-1.677,1.567-1.677,3.134,1.254,3.776,1.888,3.776.94-1.152.627-2.3S230.077,262.47,230.077,262.47Z" transform="translate(-181.792 -211.396)" fill="#fff" stroke="#263238" stroke-linecap="round" stroke-linejoin="round" stroke-width="1"/>
      <path id="Path_653" data-name="Path 653" d="M232.345,259.639a6.821,6.821,0,0,0-2.515,2.836,4.623,4.623,0,0,0,.838,3.988c.627.94,2.515,1.152,3.04.627s.1-1.677,0-2.35-1.152-2.726-1.05-3.667a14.29,14.29,0,0,0,.11-1.473Z" transform="translate(-182.071 -210.775)" fill="#fff" stroke="#263238" stroke-linecap="round" stroke-linejoin="round" stroke-width="1"/>
      <path id="Path_654" data-name="Path 654" d="M238.366,258.993s-2.734-1.677-4.826-.525-2,3.463-1.261,5.139,2.625,2.625,3.463,1.888-.11-1.888.1-3.455S238.366,258.993,238.366,258.993Z" transform="translate(-182.528 -210.442)" fill="#fff" stroke="#263238" stroke-linecap="round" stroke-linejoin="round" stroke-width="1"/>
      <path id="Path_655" data-name="Path 655" d="M241.2,262.243s-2.209-2.938-4.2-2.726-5.241,3.917-4.615,4.826,4.38-.533,4.38-.533-1.05,3.463,1.567,4.192" transform="translate(-182.638 -210.754)" fill="#fff" stroke="#263238" stroke-linecap="round" stroke-linejoin="round" stroke-width="1"/>
      <line id="Line_118" data-name="Line 118" x1="128.511" transform="translate(0 77.947)" fill="none" stroke="#263238" stroke-linecap="round" stroke-linejoin="round" stroke-width="1"/>
    </g>
    <g id="freepik--character-3--inject-8" transform="translate(122.082 2736.457)">
      <line id="Line_119" data-name="Line 119" x1="128.511" transform="translate(0.743 72.055)" fill="none" stroke="#263238" stroke-linecap="round" stroke-linejoin="round" stroke-width="1"/>
      <path id="Path_656" data-name="Path 656" d="M237.822,366.888s1.144-10.138-2.789-12.8S214,339.138,207.415,337.634s-10.639-2.914-13.319-1.395-13.664,11.423-18.223,14.557-6.84,6.464-7.474,8.869a26.31,26.31,0,0,0-.384,6.464v1.011S238.08,366.63,237.822,366.888Z" transform="translate(-167.961 -295.084)" fill="#263238" stroke="#263238" stroke-linecap="round" stroke-linejoin="round" stroke-width="1"/>
      <path id="Path_657" data-name="Path 657" d="M200.506,336.219a30.843,30.843,0,0,0-3.016,2.225,20.214,20.214,0,0,0,1.567,7.584c3.275,7.96,10.647,12.473,16.453,10.083,4.951-2.037,7.2-8.4,5.766-15.144a33.328,33.328,0,0,0-7.474-3.353C207.221,336.093,203.17,334.7,200.506,336.219Z" transform="translate(-174.355 -295.079)" fill="#fff" stroke="#263238" stroke-linecap="round" stroke-linejoin="round" stroke-width="1"/>
      <path id="Path_658" data-name="Path 658" d="M202.944,321.157a104.873,104.873,0,0,1-.885,11.023c-.635,3.291-.635,7.733,2.538,13.319s10.89,5.32,13.319,3.134,1.9-8.234,1.9-10.514a48.585,48.585,0,0,1,1.34-7.639s-7.419-2.875-11.219-5.406S204.213,320.4,202.944,321.157Z" transform="translate(-175.273 -291.926)" fill="#fff" stroke="#263238" stroke-linecap="round" stroke-linejoin="round" stroke-width="1"/>
      <path id="Path_659" data-name="Path 659" d="M223.654,294.721s3.04,5.194,3.8,6.714a4.293,4.293,0,0,1-.384,4.176c-.689.964,5.484,3.972,5.375,5.555s-.666,2.452-1.912,4.246c-1.363,1.959-.854,5.241-1.457,7.545-.509,1.959-1.136,2.444-3.134,3.181-3.808,1.395-10.9.885-14.447-.885s-4.81-4.944-6.08-7.224-1.395-6.464-.635-10.9,6.714-10.389,10.514-12.034S223.654,294.721,223.654,294.721Z" transform="translate(-175.832 -286.134)" fill="#fff" stroke="#263238" stroke-linecap="round" stroke-linejoin="round" stroke-width="1"/>
      <path id="Path_660" data-name="Path 660" d="M231.965,324.515a8.023,8.023,0,0,1-6.205-.885s0,3.8,1.9,3.917S231.965,324.515,231.965,324.515Z" transform="translate(-180.477 -292.495)" fill="#263238"/>
      <path id="Path_661" data-name="Path 661" d="M228.535,311.29c.2.854,0,1.63-.454,1.731s-.956-.509-1.152-1.363,0-1.63.454-1.731S228.316,310.436,228.535,311.29Z" transform="translate(-180.714 -289.526)" fill="#263238"/>
      <path id="Path_662" data-name="Path 662" d="M222.69,307.9a4.325,4.325,0,0,1,4.05-1.9" transform="translate(-179.812 -288.671)" fill="none" stroke="#263238" stroke-linecap="round" stroke-linejoin="round" stroke-width="1"/>
      <path id="Path_663" data-name="Path 663" d="M236.749,319.658s-1.959,2.115-3.173,2.272-2.57-1.512-1.966-2.57" transform="translate(-181.711 -291.571)" fill="none" stroke="#263238" stroke-linecap="round" stroke-linejoin="round" stroke-width="1"/>
      <path id="Path_664" data-name="Path 664" d="M205.966,313.121c.6-.2,3.549.259,3.134-1.395s-1.261-1.9-.635-3.134,7.1-4.309,5.7-6.84a25.794,25.794,0,0,0-3.291-4.56S221.517,295.164,223.8,292s-.251-8.109-2.914-8.109-1.395.885-8.485,3.134-10.647-.5-15.967,5.069-3.674,16.453-1.645,19.892,6.08,6.205,8.109,5.445S204.446,313.63,205.966,313.121Z" transform="translate(-173.351 -283.89)" fill="#263238" stroke="#263238" stroke-linecap="round" stroke-linejoin="round" stroke-width="1"/>
      <path id="Path_665" data-name="Path 665" d="M209.543,321.435s-4.7-5.954-7.835-4.058,1.52,7.607,3.549,8.242,4.434-.893,4.434-.893" transform="translate(-175.04 -291.06)" fill="#fff" stroke="#263238" stroke-linecap="round" stroke-linejoin="round" stroke-width="1"/>
    </g>
    <g id="freepik--character-4--inject-8" transform="translate(121.854 2774.388)">
      <line id="Line_120" data-name="Line 120" x1="128.637" transform="translate(0 70.218)" fill="none" stroke="#263238" stroke-linecap="round" stroke-linejoin="round" stroke-width="1"/>
      <path id="Path_666" data-name="Path 666" d="M245.739,411.268s-.118-6.973.924-8.023,26.732-15.105,33.94-15,17.056,9.927,22.313,12.535c8.367,4.184,8.367,6.5,9.065,8.83s1.277,5,1.277,5H245.739Z" transform="translate(-184.574 -344.419)" fill="#fff"/>
      <g id="Group_156" data-name="Group 156" transform="translate(61.161 43.83)" clip-path="url(#clip-path-4)">
        <path id="Path_667" data-name="Path 667" d="M312.941,413.213q-2.914-.2-6.268-.345l.893-5.594,3.682.157a7.835,7.835,0,0,0-1.959-2.578l-1.332-.055.149-.909c-.18-.133-.368-.274-.572-.407l-.2,1.293-1.2-.047.313-1.959h0c-.674-.415-1.442-.854-2.311-1.316l-.094.556c-2.562-.141-5.14-.243-7.709-.321l.431-3.917,1.567.039c-1.512-1.1-3.134-2.35-4.85-3.541l-.141.956c-2.828-.039-5.649-.055-8.422-.063l.525-5.719-.6-.251-.548,5.97H283.02l.478-6.44a11.3,11.3,0,0,0-2.46-.462l-.517,6.91h-4.442l.47-6.268-.642.2-.454,6.048h-2.108l.165-5.257c-.783.29-1.653.619-2.515.964l-.133,4.325c-2.178,0-4.286.071-6.307.118l.078-1.661-.635.3-.07,1.379h-1.622v-.619c-2.288,1.1-4.521,2.225-6.558,3.291l3.917-.118-.157,4-4.152.3.141-3.917-.635.329-.125,3.6-1.1.055.165-3.134c-.924.494-1.786.956-2.57,1.387l-.094,1.857-3.51.212a6.778,6.778,0,0,0-.917.619l-.055.071,4.45-.274-.1,1.919-4.912.188c-.118.783-.188,1.645-.235,2.5,1.426-.055,3.134-.125,5.014-.188l-.274,5.179-4.81.094v.619l4.779-.094-.071,1.379h2.491l.071-1.426h1.293l-.055,1.442h.627l.047-1.457,4.207-.063-.063,1.52h2.491l.063-1.567h1.489l-.07,1.567h.627l.071-1.567,6.573-.055-.047,1.63H272.8l.055-1.637h1.308l-.118,1.645h.619l.125-1.645h4.434L279.1,414.6h2.491l.125-1.645h.979l-.149,1.637h.627l.149-1.637c2.5,0,5,0,7.466.063l-.227,1.567h2.507l.227-1.567H294.5l-.165,1.512h.627l.165-1.5c2.444.047,4.834.11,7.145.188l-.212,1.316h2.515l.2-1.23,1.23.047-.188,1.183h.627l.18-1.152c2.3.1,4.474.219,6.487.353A1.884,1.884,0,0,1,312.941,413.213Zm-58.6-.642h-1.285l.274-5.218,1.191-.039Zm.266-7.725-1.144.039.11-1.982,1.1-.055Zm4.56,7.654-4.207.063.18-5.249,4.239-.117Zm.306-7.8-4.246.118.071-2.006c1.332-.071,2.758-.133,4.262-.2Zm3.682,7.748h-1.5l.212-5.343h1.567Zm.368-7.835-1.567.039.086-2.123,1.567-.063Zm.125-2.766-1.567.055.157-3.956h1.606Zm6.7,10.553-6.565.055.243-5.367,6.487-.125Zm.243-7.921c-2.225,0-4.38.071-6.448.118l.1-2.155c2.037-.07,4.184-.133,6.417-.18Zm.086-2.844c-2.225.055-4.364.118-6.4.188l.18-3.917c2.037-.047,4.16-.086,6.346-.118Zm2.609-3.917h2.006l-.29,3.831h-1.833Zm.878,14.619h-1.332l.172-5.484h1.567Zm-1.113-7.944.071-2.233h1.8l-.164,2.249Zm6.205,7.944h-4.434l.407-5.484h4.442Zm.6-7.991h-4.434l.165-2.249q2.186,0,4.442-.047Zm.219-2.883-4.442.039.282-3.823h4.442Zm2.781-3.823h1.23l-.345,3.815h-1.175Zm-.118,14.7h-.987l.415-5.523h1.081Zm-.384-8.015.164-2.256h1.16l-.2,2.256Zm8.508,8.085c-2.476,0-4.983-.055-7.5-.063l.509-5.531c2.57,0,5.171,0,7.8.039Zm1.167-8.038c-2.664,0-5.32-.047-7.929-.047l.2-2.256c2.64,0,5.335.039,8.046.094Zm.415-2.828c-2.726-.055-5.429-.086-8.085-.094l.353-3.815c2.734,0,5.484,0,8.289.063Zm3.071-3.808h.666l-.431,3.917h-.783Zm-.658,4.489h.83l-.243,2.17h-.9Zm-.321,10.279h-1.191l.783-5.563h.987Zm7.835.2c-2.35-.078-4.7-.141-7.169-.188l.611-5.57c2.491.039,4.983.1,7.466.172Zm1.308-8.062c-2.523-.078-5.061-.133-7.592-.18l.235-2.155c2.562.078,5.124.18,7.686.321Zm2.421,8.2-1.222-.055.909-5.586,1.207.039Z" transform="translate(-245.747 -388.252)" fill="#adadad"/>
      </g>
      <path id="Path_669" data-name="Path 669" d="M245.739,411.268s-.118-6.973.924-8.023,26.732-15.105,33.94-15,17.056,9.927,22.313,12.535c8.367,4.184,8.367,6.5,9.065,8.83s1.277,5,1.277,5H245.739Z" transform="translate(-184.574 -344.419)" fill="none" stroke="#263238" stroke-linecap="round" stroke-linejoin="round" stroke-width="1"/>
      <path id="Path_670" data-name="Path 670" d="M282.842,384.619s-3.486.235-4.411,1.982-.47,2.789-2.35,8.015-2.907,6.746-1.857,6.746,3.917-3.024,4.991-3.486,3.494,3.6,3.494,3.6,4.646-2.437,6.158-2.554,4.763,6.158,5.343,5.116,2.092-4.881,3.721-8.367,1.974-6.393.58-8.72S284.009,383.921,282.842,384.619Z" transform="translate(-190.652 -343.577)" fill="#263238" stroke="#263238" stroke-linecap="round" stroke-linejoin="round" stroke-width="1"/>
      <path id="Path_671" data-name="Path 671" d="M282.55,383.21a39.4,39.4,0,0,0-.118,10.812c.783,5.226,1.982,8.25,2.907,7.553s6.628-4.184,9.535-7.788,3.369-4.066,4.184-6.04,1.739-4.184,1.739-4.184S289.993,387.629,282.55,383.21Z" transform="translate(-192.452 -343.328)" fill="#fff" stroke="#263238" stroke-linecap="round" stroke-linejoin="round" stroke-width="1"/>
      <path id="Path_672" data-name="Path 672" d="M281.844,358.375s-2.092-3.251-3.251.588,1.622,5.923,1.974,5.688S281.844,358.375,281.844,358.375Z" transform="translate(-191.628 -337.672)" fill="#fff" stroke="#263238" stroke-linecap="round" stroke-linejoin="round" stroke-width="1"/>
      <path id="Path_673" data-name="Path 673" d="M282.851,344.876s-3.839,16.617-4.654,21.389,4.419,9.174,10.232,9.989,11.384-1.974,12.9-4.881,6.268-21.5,6.973-22.775,3.134-6.855,1.285-8.72-4.881-.462-4.881-.462-2.1-5.351-5.7-5.484-4.074,1.5-4.074,1.5-3.134-3.831-6.04-3.016-2.907,2.672-2.907,2.672-5.343-1.277-7.318,2.554,3.486,5,3.486,5S280.986,344.3,282.851,344.876Z" transform="translate(-191.585 -332.305)" fill="#fff" stroke="#263238" stroke-linecap="round" stroke-linejoin="round" stroke-width="1"/>
      <path id="Path_674" data-name="Path 674" d="M311.044,364.963c.353-.117,2.679-3.839,4.881-2.35s-.345,7.208-2.2,8.132a2.578,2.578,0,0,1-3.6-1.277" transform="translate(-198.516 -338.792)" fill="#fff" stroke="#263238" stroke-linecap="round" stroke-linejoin="round" stroke-width="1"/>
      <path id="Path_675" data-name="Path 675" d="M309.577,339.907c-1.865-1.857-4.881-.462-4.881-.462s-2.1-5.351-5.7-5.484-4.074,1.5-4.074,1.5-3.134-3.831-6.04-3.016-2.907,2.672-2.907,2.672-5.343-1.277-7.318,2.554,3.486,5,3.486,5-1.167,1.63.7,2.209c.7-.7,2.092-3.831,9.182-3.917s12.778,5,12.778,5-2.554,3.016-1.739,4.293,1.739,1.167,1.63,2.209-2.35,10.577-3.259,12.089a4.317,4.317,0,0,1-4.646,1.747c-1.63-.47-2.562-1.63-5.484-3.134s-5.351-2.092-7.443-1.277-2.209,1.512-3.369,1.857c-1,.306-1.316-.353-1.606-1.128-.313,1.512-.564,2.8-.721,3.69-.783,4.763,4.419,9.174,10.232,9.989s11.384-1.974,12.9-4.881,6.268-21.5,6.973-22.775S311.434,341.748,309.577,339.907Z" transform="translate(-191.58 -332.311)" fill="#a858e1" stroke="#263238" stroke-linecap="round" stroke-linejoin="round" stroke-width="1"/>
      <path id="Path_676" data-name="Path 676" d="M286.09,372.83s4.293,2.672,7.2,1.042c0,0-2.907,3.486-4.411,3.486S286.09,372.83,286.09,372.83Z" transform="translate(-193.312 -341.08)" fill="#263238" stroke="#263238" stroke-linecap="round" stroke-linejoin="round" stroke-width="1"/>
      <path id="Path_677" data-name="Path 677" d="M288.075,359.207a3.917,3.917,0,1,1-3.917-3.917,3.917,3.917,0,0,1,3.917,3.917Z" transform="translate(-192.046 -337.282)" fill="none" stroke="#263238" stroke-linecap="round" stroke-linejoin="round" stroke-width="1"/>
      <path id="Path_678" data-name="Path 678" d="M302.465,361.727a3.917,3.917,0,1,1-3.917-3.917,3.917,3.917,0,0,1,3.917,3.917Z" transform="translate(-195.162 -337.828)" fill="none" stroke="#263238" stroke-linecap="round" stroke-linejoin="round" stroke-width="1"/>
      <path id="Path_679" data-name="Path 679" d="M290.39,359.716a3.527,3.527,0,0,1,3.6.783" transform="translate(-194.243 -338.198)" fill="none" stroke="#263238" stroke-linecap="round" stroke-linejoin="round" stroke-width="1"/>
      <line id="Line_121" data-name="Line 121" x2="7.553" y2="0.29" transform="translate(107.303 23.9)" fill="none" stroke="#263238" stroke-linecap="round" stroke-linejoin="round" stroke-width="1"/>
      <path id="Path_680" data-name="Path 680" d="M290.416,360.37a53.59,53.59,0,0,0-2.554,5.578c-.235,1.042,1.042,1.622,2.672,1.622s2.35-.7,2.35-1.395" transform="translate(-193.69 -338.382)" fill="none" stroke="#263238" stroke-linecap="round" stroke-linejoin="round" stroke-width="1"/>
      <path id="Path_681" data-name="Path 681" d="M289.008,354a.979.979,0,0,1-.454-.117,4,4,0,0,0-4.129-.157.943.943,0,0,1-1.05-1.567,5.876,5.876,0,0,1,6.1.071.932.932,0,0,1-.462,1.747Z" transform="translate(-192.634 -336.426)" fill="#a858e1"/>
      <path id="Path_682" data-name="Path 682" d="M303.231,358.391a.94.94,0,0,1-.784-.392,4.873,4.873,0,0,0-5.234-2.092.932.932,0,0,1-.556-1.778,6.714,6.714,0,0,1,7.31,2.789.932.932,0,0,1-.784,1.473Z" transform="translate(-195.466 -336.983)" fill="#a858e1"/>
      <ellipse id="Ellipse_38" data-name="Ellipse 38" cx="0.752" cy="1.395" rx="0.752" ry="1.395" transform="translate(91.845 20.703)" fill="#263238" stroke="#263238" stroke-linecap="round" stroke-linejoin="round" stroke-width="1"/>
      <path id="Path_683" data-name="Path 683" d="M299.447,362.355c0,.783-.337,1.395-.783,1.395s-.783-.627-.783-1.395.337-1.395.783-1.395S299.447,361.587,299.447,362.355Z" transform="translate(-195.865 -338.51)" fill="#263238" stroke="#263238" stroke-linecap="round" stroke-linejoin="round" stroke-width="1"/>
    </g>
    <g id="freepik--emojis-2--inject-31" transform="translate(38 2521.432)">
      <circle id="Ellipse_19" data-name="Ellipse 19" cx="15.591" cy="15.591" r="15.591" transform="matrix(0.967, -0.253, 0.253, 0.967, 279.529, 107.182)" fill="#fff" stroke="#263238" stroke-linecap="round" stroke-linejoin="round" stroke-width="1"/>
      <path id="Path_298" data-name="Path 298" d="M444.7,157.6l3.5,3.32-6.459-1.513" transform="translate(-150.189 -51.645)" fill="none" stroke="#263238" stroke-linecap="round" stroke-linejoin="round" stroke-width="2"/>
      <path id="Path_299" data-name="Path 299" d="M465.934,168.073l-4.984-.843,4.886,4.058" transform="translate(-154.937 -54.025)" fill="none" stroke="#263238" stroke-linecap="round" stroke-linejoin="round" stroke-width="2"/>
      <path id="Path_300" data-name="Path 300" d="M438.572,163.18c-1.566,6.775.519,13.25,5.556,15.719s11.443.151,15.809-5.217l-1.709-1.22a60.01,60.01,0,0,0-17.955-8.77Z" transform="translate(-149.28 -53.024)" fill="#263238" stroke="#263238" stroke-linecap="round" stroke-linejoin="round" stroke-width="1"/>
      <path id="Path_301" data-name="Path 301" d="M453.365,181.665a15.629,15.629,0,0,0-14.545-7.046,10.223,10.223,0,0,0,14.545,7.046Z" transform="translate(-149.467 -55.835)" stroke="#263238" stroke-linecap="round" stroke-linejoin="round" stroke-width="1" fill="url(#linear-gradient)"/>
      <path id="Path_302" data-name="Path 302" d="M144.689,41.839a16.329,16.329,0,1,1,5,22.547,16.329,16.329,0,0,1-5-22.547Z" transform="translate(-76.134 -21.164)" fill="#fff" stroke="#263238" stroke-linecap="round" stroke-linejoin="round" stroke-width="1"/>
      <path id="Path_303" data-name="Path 303" d="M183.714,50.551l-.361-.8a3.538,3.538,0,0,0-4.073-2.025h0" transform="translate(-85.316 -24.463)" fill="none" stroke="#263238" stroke-linecap="round" stroke-linejoin="round" stroke-width="2"/>
      <path id="Path_304" data-name="Path 304" d="M165.927,43.733l-.61-.625a3.546,3.546,0,0,0-4.517-.467h0" transform="translate(-80.749 -23.081)" fill="none" stroke="#263238" stroke-linecap="round" stroke-linejoin="round" stroke-width="2"/>
      <path id="Path_305" data-name="Path 305" d="M158.923,47.158c-1.039,1.626-.941,3.531.2,4.261s2.913,0,3.952-1.611.941-3.531-.211-4.261S159.955,45.539,158.923,47.158Z" transform="translate(-80.107 -23.878)" fill="#263238" stroke="#263238" stroke-linecap="round" stroke-linejoin="round" stroke-width="1"/>
      <path id="Path_306" data-name="Path 306" d="M177.457,53.54c-.241,1.912.67,3.591,2.018,3.764s2.635-1.25,2.868-3.154-.67-3.591-2.018-3.764S177.691,51.635,177.457,53.54Z" transform="translate(-84.856 -25.141)" fill="#263238" stroke="#263238" stroke-linecap="round" stroke-linejoin="round" stroke-width="1"/>
      <path id="Path_307" data-name="Path 307" d="M165.485,59.922c-.444,1.679.226,3.312,1.506,3.644s2.657-.753,3.1-2.432-.233-3.312-1.506-3.644S165.922,58.243,165.485,59.922Z" transform="translate(-81.873 -26.886)" fill="#263238" stroke="#263238" stroke-linecap="round" stroke-linejoin="round" stroke-width="1"/>
      <circle id="Ellipse_20" data-name="Ellipse 20" cx="16.329" cy="16.329" r="16.329" transform="translate(222.788 241.358) rotate(-1.24)" fill="#fff" stroke="#263238" stroke-linecap="round" stroke-linejoin="round" stroke-width="1"/>
      <path id="Path_308" data-name="Path 308" d="M358.44,341.782l.753-.414a3.553,3.553,0,0,1,4.464.888h0" transform="translate(-129.6 -96.96)" fill="none" stroke="#263238" stroke-linecap="round" stroke-linejoin="round" stroke-width="2"/>
      <path id="Path_309" data-name="Path 309" d="M376.74,347.039l.866-.12a3.553,3.553,0,0,1,3.87,2.4h0" transform="translate(-134.123 -98.431)" fill="none" stroke="#263238" stroke-linecap="round" stroke-linejoin="round" stroke-width="2"/>
      <path id="Path_310" data-name="Path 310" d="M379.672,353.786c-.181,1.92-1.415,3.373-2.77,3.245s-2.311-1.777-2.138-3.689,1.415-3.373,2.77-3.245S379.845,351.889,379.672,353.786Z" transform="translate(-133.629 -99.223)" fill="#263238" stroke="#263238" stroke-linecap="round" stroke-linejoin="round" stroke-width="1"/>
      <path id="Path_311" data-name="Path 311" d="M361.038,347.72c-.979,1.649-2.725,2.432-3.892,1.731s-1.325-2.6-.339-4.253,2.725-2.424,3.892-1.732S362.062,346.064,361.038,347.72Z" transform="translate(-129.036 -97.523)" fill="#263238" stroke="#263238" stroke-linecap="round" stroke-linejoin="round" stroke-width="1"/>
      <path id="Path_312" data-name="Path 312" d="M366.776,360.077c-.678,1.6-2.206,2.477-3.418,1.965s-1.641-2.258-.964-3.824,2.206-2.477,3.418-1.965S367.454,358.474,366.776,360.077Z" transform="translate(-130.498 -100.711)" fill="#263238" stroke="#263238" stroke-linecap="round" stroke-linejoin="round" stroke-width="1"/>
      <circle id="Ellipse_21" data-name="Ellipse 21" cx="22.63" cy="22.63" r="22.63" transform="translate(180.247 18.647) rotate(-24.33)" fill="#fff" stroke="#263238" stroke-linecap="round" stroke-linejoin="round" stroke-width="1"/>
      <path id="Path_313" data-name="Path 313" d="M323.82,63.523l1.588-.407a6.647,6.647,0,0,1,7.732,3.621h0" transform="translate(-121.043 -28.236)" fill="none" stroke="#263238" stroke-linecap="round" stroke-linejoin="round" stroke-width="2"/>
      <path id="Path_314" data-name="Path 314" d="M323.4,47.919a2.96,2.96,0,1,1-5.5-1.9c.655-1.822,2.371-2.876,3.892-2.349A3.242,3.242,0,0,1,323.4,47.919Z" transform="translate(-119.52 -23.45)" fill="#263238" stroke="#263238" stroke-linecap="round" stroke-linejoin="round" stroke-width="1"/>
      <path id="Path_315" data-name="Path 315" d="M350.463,57.289a2.964,2.964,0,1,1-5.511-1.9c.647-1.822,2.379-2.876,3.9-2.349A3.242,3.242,0,0,1,350.463,57.289Z" transform="translate(-126.208 -25.766)" fill="#263238" stroke="#263238" stroke-linecap="round" stroke-linejoin="round" stroke-width="1"/>
      <path id="Path_316" data-name="Path 316" d="M325.383,39.747s-2.725-3.312-6.233,0" transform="translate(-119.888 -22.151)" fill="none" stroke="#263238" stroke-linecap="round" stroke-linejoin="round" stroke-width="2"/>
      <path id="Path_317" data-name="Path 317" d="M348.86,47.627s4.193-.911,4.908,3.854" transform="translate(-127.232 -24.445)" fill="none" stroke="#263238" stroke-linecap="round" stroke-linejoin="round" stroke-width="2"/>
      <circle id="Ellipse_22" data-name="Ellipse 22" cx="17.157" cy="17.157" r="17.157" transform="matrix(0.424, -0.906, 0.906, 0.424, 0, 80.543)" fill="#fff" stroke="#263238" stroke-linecap="round" stroke-linejoin="round" stroke-width="1"/>
      <path id="Path_318" data-name="Path 318" d="M69.009,97.37c-2.258-1.822-5.533-1.506-6.994.316a4.193,4.193,0,0,0-.158,4.66,4.178,4.178,0,0,0-4.517,1.114c-1.46,1.8-1.122,5.089,1.114,6.911s4.811,1.212,7.182.813c1.777-.294,3.839-.956,5.616-1.25-.1-2.386.1-5.127,0-7.528A6.257,6.257,0,0,0,69.009,97.37Z" transform="translate(-54.958 -36.457)" stroke="#263238" stroke-linecap="round" stroke-linejoin="round" stroke-width="1" fill="url(#linear-gradient)"/>
      <path id="Path_319" data-name="Path 319" d="M94.152,92.127c-.226-2.552-2.484-4.442-4.517-4.261a3.764,3.764,0,0,0-3.011,2.778,3.764,3.764,0,0,0-3.508-2.2A4.576,4.576,0,0,0,79.4,93.437c.226,2.552,2.2,3.809,3.922,5.074,1.28.949,3.011,1.859,4.261,2.8,1.46-1.506,3.335-3.1,4.8-4.637A5.541,5.541,0,0,0,94.152,92.127Z" transform="translate(-60.625 -34.406)" stroke="#263238" stroke-linecap="round" stroke-linejoin="round" stroke-width="1" fill="url(#linear-gradient)"/>
      <path id="Path_320" data-name="Path 320" d="M75.72,116.187a36.986,36.986,0,0,1,14.3-5.157s3.448,7.528-4.517,10.336S75.72,116.187,75.72,116.187Z" transform="translate(-59.719 -40.134)" fill="#263238" stroke="#263238" stroke-linecap="round" stroke-linejoin="round" stroke-width="1"/>
      <path id="Path_321" data-name="Path 321" d="M89.089,121.228c.188.685-1,1.6-2.642,2.033s-3.132.233-3.312-.452,1.009-1.588,2.65-2.025S88.908,120.543,89.089,121.228Z" transform="translate(-61.547 -42.488)" fill="#fff" stroke="#263238" stroke-linecap="round" stroke-linejoin="round" stroke-width="1"/>
    </g>
    <g id="Group_453" data-name="Group 453" transform="translate(1061 -1147)">
      <circle id="Ellipse_28" data-name="Ellipse 28" cx="34.434" cy="34.434" r="34.434" transform="matrix(0.922, -0.388, 0.388, 0.922, -788.69, 3845.708)" fill="#fff" stroke="#263238" stroke-linecap="round" stroke-linejoin="round" stroke-width="1"/>
      <path id="Path_340" data-name="Path 340" d="M369.852,221.325c-1.89-5.473-7.875-8.379-12.264-6.866-3.072,1.061-4.976,4.148-5.21,7.769-2.424-2.71-5.827-3.96-8.891-2.9-4.4,1.506-7.31,7.491-5.42,12.971,1.95,5.639,6.911,7.159,11.375,9.034,3.335,1.37,7.528,2.439,10.893,3.809,2.356-4.163,5.609-8.635,7.965-12.8C370.183,229,371.328,225.6,369.852,221.325Z" transform="translate(-1116.312 3614.066)" stroke="#263238" stroke-linecap="round" stroke-linejoin="round" stroke-width="1" fill="url(#linear-gradient)"/>
      <path id="Path_341" data-name="Path 341" d="M420.022,237.8c2.319-4.585.474-10.193-3.207-12.045-2.567-1.3-5.714-.61-8.168,1.506.233-3.222-1.077-6.158-3.644-7.461-3.681-1.859-9.29,0-11.616,4.562-2.387,4.728-.286,8.831,1.3,12.8,1.182,2.974,3.109,6.324,4.3,9.3,4.11-1.069,8.966-1.762,13.084-2.831C415.339,242.749,418.215,241.379,420.022,237.8Z" transform="translate(-1129.864 3612.825)" stroke="#263238" stroke-linecap="round" stroke-linejoin="round" stroke-width="1" fill="url(#linear-gradient)"/>
      <path id="Path_342" data-name="Path 342" d="M363.3,260.73a74.29,74.29,0,0,1,29.895,6.407s-2.13,16.562-18.685,12.8S363.3,260.73,363.3,260.73Z" transform="translate(-1122.49 3602.531)" fill="#263238" stroke="#263238" stroke-linecap="round" stroke-linejoin="round" stroke-width="1"/>
      <path id="Path_343" data-name="Path 343" d="M382.021,281.482c-.414,1.355-3.4,1.649-6.67.647s-5.571-2.913-5.157-4.269,3.4-1.656,6.67-.655S382.435,280.119,382.021,281.482Z" transform="translate(-1124.386 3598.605)" fill="#a858e1" stroke="#263238" stroke-linecap="round" stroke-linejoin="round" stroke-width="1"/>
    </g>
    <g id="Group_452" data-name="Group 452" transform="translate(1067.779 -1170.113)">
      <circle id="Ellipse_24" data-name="Ellipse 24" cx="27.963" cy="27.963" r="27.963" transform="translate(-807.597 3792.459) rotate(-68.15)" fill="#fff" stroke="#263238" stroke-linecap="round" stroke-linejoin="round" stroke-width="1"/>
      <path id="Path_326" data-name="Path 326" d="M336.93,124.78l1.251-.822a6.042,6.042,0,0,1,7.752.822h0" transform="translate(-1121.773 3632.851)" fill="none" stroke="#263238" stroke-linecap="round" stroke-linejoin="round" stroke-width="2"/>
      <path id="Path_327" data-name="Path 327" d="M376.8,132.821l1.462-.338a6.078,6.078,0,0,1,6.973,3.492h0" transform="translate(-1137.553 3629.131)" fill="none" stroke="#263238" stroke-linecap="round" stroke-linejoin="round" stroke-width="2"/>
      <path id="Path_328" data-name="Path 328" d="M382.459,145.224c0,3.293-1.891,5.964-4.229,5.964S374,148.517,374,145.224s1.885-5.964,4.229-5.964S382.459,141.931,382.459,145.224Z" transform="translate(-1136.445 3626.383)" fill="#263238" stroke="#263238" stroke-linecap="round" stroke-linejoin="round" stroke-width="1"/>
      <path id="Path_329" data-name="Path 329" d="M341.763,135.46c-1.414,2.973-4.272,4.574-6.374,3.571s-2.659-4.229-1.208-7.2,4.272-4.568,6.374-3.565S343.183,132.487,341.763,135.46Z" transform="translate(-1120.364 3630.854)" fill="#263238" stroke="#263238" stroke-linecap="round" stroke-linejoin="round" stroke-width="1"/>
      <path id="Path_330" data-name="Path 330" d="M356.389,160.881c-.906,2.834-3.378,4.574-5.523,3.885s-3.142-3.535-2.236-6.368,3.378-4.568,5.516-3.885S357.3,158.053,356.389,160.881Z" transform="translate(-1126.271 3620.405)" fill="#263238" stroke="#263238" stroke-linecap="round" stroke-linejoin="round" stroke-width="1"/>
    </g>
    <g id="Group_432" data-name="Group 432" transform="translate(1016 -1235.818)">
      <circle id="Ellipse_23" data-name="Ellipse 23" cx="34.05" cy="34.05" r="34.05" transform="translate(-868.772 3734.031)" fill="#fff" stroke="#263238" stroke-linecap="round" stroke-linejoin="round" stroke-width="1"/>
      <path id="Path_322" data-name="Path 322" d="M235.573,107.33l10.058,3.147L231.5,113.721" transform="translate(-1090.117 3640.448)" fill="none" stroke="#263238" stroke-linecap="round" stroke-linejoin="round" stroke-width="2"/>
      <path id="Path_323" data-name="Path 323" d="M286.7,107.33l-10.57,3.147,13.468,3.245" transform="translate(-1101.148 3640.448)" fill="none" stroke="#263238" stroke-linecap="round" stroke-linejoin="round" stroke-width="2"/>
      <path id="Path_324" data-name="Path 324" d="M228.69,124.167c3.425,14.74,13.777,25.453,26.01,25.453s22.585-10.713,26.01-25.453l-4.517-.753a130.871,130.871,0,0,0-43.611.09Z" transform="translate(-1089.422 3636.913)" fill="#263238" stroke="#263238" stroke-linecap="round" stroke-linejoin="round" stroke-width="1"/>
      <path id="Path_325" data-name="Path 325" d="M275.2,145.586a34.132,34.132,0,0,0-35.293.181c4.743,5.322,10.863,8.552,17.563,8.552S270.437,151.021,275.2,145.586Z" transform="translate(-1092.195 3632.184)" stroke="#263238" stroke-linecap="round" stroke-linejoin="round" stroke-width="1" fill="url(#linear-gradient)"/>
    </g>
    <g id="Group_431" data-name="Group 431" transform="translate(978.977 -1122.054)">
      <circle id="Ellipse_25" data-name="Ellipse 25" cx="32.247" cy="32.247" r="32.247" transform="translate(-940.795 3747.01)" fill="#fff" stroke="#263238" stroke-linecap="round" stroke-linejoin="round" stroke-width="1"/>
      <path id="Path_331" data-name="Path 331" d="M154.38,177.066c0,1.027-1.363,1.859-3.04,1.859s-3.04-.832-3.04-1.859,1.363-1.866,3.04-1.866S154.38,176.039,154.38,177.066Z" transform="translate(-1070.952 3619.956)" fill="#263238" stroke="#263238" stroke-linecap="round" stroke-linejoin="round" stroke-width="1"/>
      <path id="Path_332" data-name="Path 332" d="M195.13,177.066c0,1.027-1.363,1.859-3.04,1.859s-3.04-.832-3.04-1.859,1.363-1.866,3.04-1.866S195.13,176.039,195.13,177.066Z" transform="translate(-1083.222 3619.956)" fill="#263238" stroke="#263238" stroke-linecap="round" stroke-linejoin="round" stroke-width="1"/>
      <path id="Path_333" data-name="Path 333" d="M142.14,169.7a4,4,0,0,0,1.593,1.6c1.069.531,8.792,1.859,13.055,1.859" transform="translate(-1069.097 3621.612)" fill="none" stroke="#263238" stroke-linecap="round" stroke-linejoin="round" stroke-width="2"/>
      <path id="Path_334" data-name="Path 334" d="M197.9,169.7a4.053,4.053,0,0,1-1.6,1.6c-1.062.531-8.792,1.859-13.055,1.859" transform="translate(-1081.473 3621.612)" fill="none" stroke="#263238" stroke-linecap="round" stroke-linejoin="round" stroke-width="2"/>
      <path id="Path_335" data-name="Path 335" d="M162.7,187.268a18.339,18.339,0,0,1,7.366-1.691c5.738-.147,7.877,1.838,6.989,2.153C174.122,188.743,158.579,189.085,162.7,187.268Z" transform="translate(-1075.08 3616.834)" fill="#263238" stroke="#263238" stroke-linecap="round" stroke-linejoin="round" stroke-width="1"/>
    </g>
    <g id="Group_430" data-name="Group 430" transform="translate(1000 -1113)">
      <circle id="Ellipse_26" data-name="Ellipse 26" cx="34.457" cy="34.457" r="34.457" transform="translate(-985.543 3877.173) rotate(-67.7)" fill="#fff" stroke="#263238" stroke-linecap="round" stroke-linejoin="round" stroke-width="1"/>
      <path id="Path_336" data-name="Path 336" d="M119.1,270.125l1.332-2.108A10.133,10.133,0,0,1,132.8,263.99h0" transform="translate(-1062.334 3601.906)" fill="none" stroke="#263238" stroke-linecap="round" stroke-linejoin="round" stroke-width="2"/>
      <ellipse id="Ellipse_27" data-name="Ellipse 27" cx="4.434" cy="5.322" rx="4.434" ry="5.322" transform="translate(-963.576 3857.655) rotate(-24.13)" fill="#263238" stroke="#263238" stroke-linecap="round" stroke-linejoin="round" stroke-width="1"/>
      <path id="Path_337" data-name="Path 337" d="M142.693,235.992c1.2,2.68.369,5.669-1.867,6.67s-5.029-.361-6.226-3.011-.369-5.669,1.867-6.67S141.5,233.3,142.693,235.992Z" transform="translate(-1066.03 3609.472)" fill="#263238" stroke="#263238" stroke-linecap="round" stroke-linejoin="round" stroke-width="1"/>
      <path id="Path_338" data-name="Path 338" d="M96.316,242.541s-6.482-.828-6.926,6.489" transform="translate(-1054.991 3607.034)" fill="none" stroke="#263238" stroke-linecap="round" stroke-linejoin="round" stroke-width="2"/>
      <path id="Path_339" data-name="Path 339" d="M130.11,227.554s3.689-5.39,9.456-.851" transform="translate(-1065.056 3611.391)" fill="none" stroke="#263238" stroke-linecap="round" stroke-linejoin="round" stroke-width="2"/>
    </g>
  </g>
</svg>
