<svg xmlns="http://www.w3.org/2000/svg" xmlns:xlink="http://www.w3.org/1999/xlink" width="381.699" height="373.475" viewBox="0 0 381.699 373.475">
  <defs>
    <linearGradient id="linear-gradient" x1="0.5" x2="0.5" y2="1" gradientUnits="objectBoundingBox">
      <stop offset="0" stop-color="#e017ce"/>
      <stop offset="1" stop-color="#4cc1fe"/>
    </linearGradient>
    <filter id="Path_296" x="0" y="7.23" width="381.699" height="366.245" filterUnits="userSpaceOnUse">
      <feOffset dy="10" input="SourceAlpha"/>
      <feGaussianBlur stdDeviation="10" result="blur"/>
      <feFlood flood-color="#818181" flood-opacity="0.161"/>
      <feComposite operator="in" in2="blur"/>
      <feComposite in="SourceGraphic"/>
    </filter>
    <filter id="Path_391" x="122.568" y="187.079" width="122.477" height="112.213" filterUnits="userSpaceOnUse">
      <feOffset dy="10" input="SourceAlpha"/>
      <feGaussianBlur stdDeviation="10" result="blur-2"/>
      <feFlood flood-color="#818181" flood-opacity="0.161"/>
      <feComposite operator="in" in2="blur-2"/>
      <feComposite in="SourceGraphic"/>
    </filter>
    <filter id="Path_415" x="90.824" y="183.68" width="118.391" height="119.891" filterUnits="userSpaceOnUse">
      <feOffset dy="10" input="SourceAlpha"/>
      <feGaussianBlur stdDeviation="10" result="blur-3"/>
      <feFlood flood-color="#818181" flood-opacity="0.161"/>
      <feComposite operator="in" in2="blur-3"/>
      <feComposite in="SourceGraphic"/>
    </filter>
    <filter id="Path_418" x="113.323" y="216.56" width="104.801" height="114.834" filterUnits="userSpaceOnUse">
      <feOffset dy="10" input="SourceAlpha"/>
      <feGaussianBlur stdDeviation="10" result="blur-4"/>
      <feFlood flood-color="#818181" flood-opacity="0.161"/>
      <feComposite operator="in" in2="blur-4"/>
      <feComposite in="SourceGraphic"/>
    </filter>
  </defs>
  <g id="Group_455" data-name="Group 455" transform="translate(2.989 -793.338)">
    <path id="Path_297" data-name="Path 297" d="M342.556,128.117S292.3,68.012,214.455,54.212s-93.117,44.838-119.24,79.325-55.657,47.293-57.14,97.055S56.82,305.973,95.719,323.71s78.829,27.1,117.75,32.515,69.953,2.469,85.235-29.556,8.379-46.8,26.116-62.078S382.464,179.844,342.556,128.117Z" transform="translate(-10.987 768.42)" fill="#fff" opacity="0.7"/>
    <g transform="matrix(1, 0, 0, 1, -2.99, 793.34)" filter="url(#Path_296)">
      <path id="Path_296-2" data-name="Path 296" d="M342.556,128.117S292.3,68.012,214.455,54.212s-93.117,44.838-119.24,79.325-55.657,47.293-57.14,97.055S56.82,305.973,95.719,323.71s78.829,27.1,117.75,32.515,69.953,2.469,85.235-29.556,8.379-46.8,26.116-62.078S382.464,179.844,342.556,128.117Z" transform="translate(-8 -24.92)" opacity="0.3" fill="url(#linear-gradient)"/>
    </g>
    <g id="freepik--emojis-2--inject-31" transform="translate(39.408 794)">
      <circle id="Ellipse_19" data-name="Ellipse 19" cx="15.591" cy="15.591" r="15.591" transform="matrix(0.967, -0.253, 0.253, 0.967, 279.529, 107.182)" fill="#fff" stroke="#263238" stroke-linecap="round" stroke-linejoin="round" stroke-width="1"/>
      <path id="Path_298" data-name="Path 298" d="M444.7,157.6l3.5,3.32-6.459-1.513" transform="translate(-150.189 -51.645)" fill="none" stroke="#263238" stroke-linecap="round" stroke-linejoin="round" stroke-width="2"/>
      <path id="Path_299" data-name="Path 299" d="M465.934,168.073l-4.984-.843,4.886,4.058" transform="translate(-154.937 -54.025)" fill="none" stroke="#263238" stroke-linecap="round" stroke-linejoin="round" stroke-width="2"/>
      <path id="Path_300" data-name="Path 300" d="M438.572,163.18c-1.566,6.775.519,13.25,5.556,15.719s11.443.151,15.809-5.217l-1.709-1.22a60.01,60.01,0,0,0-17.955-8.77Z" transform="translate(-149.28 -53.024)" fill="#263238" stroke="#263238" stroke-linecap="round" stroke-linejoin="round" stroke-width="1"/>
      <path id="Path_301" data-name="Path 301" d="M453.365,181.665a15.629,15.629,0,0,0-14.545-7.046,10.223,10.223,0,0,0,14.545,7.046Z" transform="translate(-149.467 -55.835)" stroke="#263238" stroke-linecap="round" stroke-linejoin="round" stroke-width="1" fill="url(#linear-gradient)"/>
      <path id="Path_302" data-name="Path 302" d="M144.689,41.839a16.329,16.329,0,1,1,5,22.547,16.329,16.329,0,0,1-5-22.547Z" transform="translate(-76.134 -21.164)" fill="#fff" stroke="#263238" stroke-linecap="round" stroke-linejoin="round" stroke-width="1"/>
      <path id="Path_303" data-name="Path 303" d="M183.714,50.551l-.361-.8a3.538,3.538,0,0,0-4.073-2.025h0" transform="translate(-85.316 -24.463)" fill="none" stroke="#263238" stroke-linecap="round" stroke-linejoin="round" stroke-width="2"/>
      <path id="Path_304" data-name="Path 304" d="M165.927,43.733l-.61-.625a3.546,3.546,0,0,0-4.517-.467h0" transform="translate(-80.749 -23.081)" fill="none" stroke="#263238" stroke-linecap="round" stroke-linejoin="round" stroke-width="2"/>
      <path id="Path_305" data-name="Path 305" d="M158.923,47.158c-1.039,1.626-.941,3.531.2,4.261s2.913,0,3.952-1.611.941-3.531-.211-4.261S159.955,45.539,158.923,47.158Z" transform="translate(-80.107 -23.878)" fill="#263238" stroke="#263238" stroke-linecap="round" stroke-linejoin="round" stroke-width="1"/>
      <path id="Path_306" data-name="Path 306" d="M177.457,53.54c-.241,1.912.67,3.591,2.018,3.764s2.635-1.25,2.868-3.154-.67-3.591-2.018-3.764S177.691,51.635,177.457,53.54Z" transform="translate(-84.856 -25.141)" fill="#263238" stroke="#263238" stroke-linecap="round" stroke-linejoin="round" stroke-width="1"/>
      <path id="Path_307" data-name="Path 307" d="M165.485,59.922c-.444,1.679.226,3.312,1.506,3.644s2.657-.753,3.1-2.432-.233-3.312-1.506-3.644S165.922,58.243,165.485,59.922Z" transform="translate(-81.873 -26.886)" fill="#263238" stroke="#263238" stroke-linecap="round" stroke-linejoin="round" stroke-width="1"/>
      <circle id="Ellipse_20" data-name="Ellipse 20" cx="16.329" cy="16.329" r="16.329" transform="translate(222.788 241.358) rotate(-1.24)" fill="#fff" stroke="#263238" stroke-linecap="round" stroke-linejoin="round" stroke-width="1"/>
      <path id="Path_308" data-name="Path 308" d="M358.44,341.782l.753-.414a3.553,3.553,0,0,1,4.464.888h0" transform="translate(-129.6 -96.96)" fill="none" stroke="#263238" stroke-linecap="round" stroke-linejoin="round" stroke-width="2"/>
      <path id="Path_309" data-name="Path 309" d="M376.74,347.039l.866-.12a3.553,3.553,0,0,1,3.87,2.4h0" transform="translate(-134.123 -98.431)" fill="none" stroke="#263238" stroke-linecap="round" stroke-linejoin="round" stroke-width="2"/>
      <path id="Path_310" data-name="Path 310" d="M379.672,353.786c-.181,1.92-1.415,3.373-2.77,3.245s-2.311-1.777-2.138-3.689,1.415-3.373,2.77-3.245S379.845,351.889,379.672,353.786Z" transform="translate(-133.629 -99.223)" fill="#263238" stroke="#263238" stroke-linecap="round" stroke-linejoin="round" stroke-width="1"/>
      <path id="Path_311" data-name="Path 311" d="M361.038,347.72c-.979,1.649-2.725,2.432-3.892,1.731s-1.325-2.6-.339-4.253,2.725-2.424,3.892-1.732S362.062,346.064,361.038,347.72Z" transform="translate(-129.036 -97.523)" fill="#263238" stroke="#263238" stroke-linecap="round" stroke-linejoin="round" stroke-width="1"/>
      <path id="Path_312" data-name="Path 312" d="M366.776,360.077c-.678,1.6-2.206,2.477-3.418,1.965s-1.641-2.258-.964-3.824,2.206-2.477,3.418-1.965S367.454,358.474,366.776,360.077Z" transform="translate(-130.498 -100.711)" fill="#263238" stroke="#263238" stroke-linecap="round" stroke-linejoin="round" stroke-width="1"/>
      <circle id="Ellipse_21" data-name="Ellipse 21" cx="22.63" cy="22.63" r="22.63" transform="translate(180.247 18.647) rotate(-24.33)" fill="#fff" stroke="#263238" stroke-linecap="round" stroke-linejoin="round" stroke-width="1"/>
      <path id="Path_313" data-name="Path 313" d="M323.82,63.523l1.588-.407a6.647,6.647,0,0,1,7.732,3.621h0" transform="translate(-121.043 -28.236)" fill="none" stroke="#263238" stroke-linecap="round" stroke-linejoin="round" stroke-width="2"/>
      <path id="Path_314" data-name="Path 314" d="M323.4,47.919a2.96,2.96,0,1,1-5.5-1.9c.655-1.822,2.371-2.876,3.892-2.349A3.242,3.242,0,0,1,323.4,47.919Z" transform="translate(-119.52 -23.45)" fill="#263238" stroke="#263238" stroke-linecap="round" stroke-linejoin="round" stroke-width="1"/>
      <path id="Path_315" data-name="Path 315" d="M350.463,57.289a2.964,2.964,0,1,1-5.511-1.9c.647-1.822,2.379-2.876,3.9-2.349A3.242,3.242,0,0,1,350.463,57.289Z" transform="translate(-126.208 -25.766)" fill="#263238" stroke="#263238" stroke-linecap="round" stroke-linejoin="round" stroke-width="1"/>
      <path id="Path_316" data-name="Path 316" d="M325.383,39.747s-2.725-3.312-6.233,0" transform="translate(-119.888 -22.151)" fill="none" stroke="#263238" stroke-linecap="round" stroke-linejoin="round" stroke-width="2"/>
      <path id="Path_317" data-name="Path 317" d="M348.86,47.627s4.193-.911,4.908,3.854" transform="translate(-127.232 -24.445)" fill="none" stroke="#263238" stroke-linecap="round" stroke-linejoin="round" stroke-width="2"/>
      <circle id="Ellipse_22" data-name="Ellipse 22" cx="17.157" cy="17.157" r="17.157" transform="matrix(0.424, -0.906, 0.906, 0.424, 0, 80.543)" fill="#fff" stroke="#263238" stroke-linecap="round" stroke-linejoin="round" stroke-width="1"/>
      <path id="Path_318" data-name="Path 318" d="M69.009,97.37c-2.258-1.822-5.533-1.506-6.994.316a4.193,4.193,0,0,0-.158,4.66,4.178,4.178,0,0,0-4.517,1.114c-1.46,1.8-1.122,5.089,1.114,6.911s4.811,1.212,7.182.813c1.777-.294,3.839-.956,5.616-1.25-.1-2.386.1-5.127,0-7.528A6.257,6.257,0,0,0,69.009,97.37Z" transform="translate(-54.958 -36.457)" stroke="#263238" stroke-linecap="round" stroke-linejoin="round" stroke-width="1" fill="url(#linear-gradient)"/>
      <path id="Path_319" data-name="Path 319" d="M94.152,92.127c-.226-2.552-2.484-4.442-4.517-4.261a3.764,3.764,0,0,0-3.011,2.778,3.764,3.764,0,0,0-3.508-2.2A4.576,4.576,0,0,0,79.4,93.437c.226,2.552,2.2,3.809,3.922,5.074,1.28.949,3.011,1.859,4.261,2.8,1.46-1.506,3.335-3.1,4.8-4.637A5.541,5.541,0,0,0,94.152,92.127Z" transform="translate(-60.625 -34.406)" stroke="#263238" stroke-linecap="round" stroke-linejoin="round" stroke-width="1" fill="url(#linear-gradient)"/>
      <path id="Path_320" data-name="Path 320" d="M75.72,116.187a36.986,36.986,0,0,1,14.3-5.157s3.448,7.528-4.517,10.336S75.72,116.187,75.72,116.187Z" transform="translate(-59.719 -40.134)" fill="#263238" stroke="#263238" stroke-linecap="round" stroke-linejoin="round" stroke-width="1"/>
      <path id="Path_321" data-name="Path 321" d="M89.089,121.228c.188.685-1,1.6-2.642,2.033s-3.132.233-3.312-.452,1.009-1.588,2.65-2.025S88.908,120.543,89.089,121.228Z" transform="translate(-61.547 -42.488)" fill="#fff" stroke="#263238" stroke-linecap="round" stroke-linejoin="round" stroke-width="1"/>
    </g>
    <g id="freepik--emojis-1--inject-31" transform="translate(45.758 848.364)">
      <circle id="Ellipse_23" data-name="Ellipse 23" cx="34.05" cy="34.05" r="34.05" transform="translate(116.771)" fill="#fff" stroke="#263238" stroke-linecap="round" stroke-linejoin="round" stroke-width="1"/>
      <path id="Path_322" data-name="Path 322" d="M235.573,107.33l10.058,3.147L231.5,113.721" transform="translate(-104.574 -93.583)" fill="none" stroke="#263238" stroke-linecap="round" stroke-linejoin="round" stroke-width="2"/>
      <path id="Path_323" data-name="Path 323" d="M286.7,107.33l-10.57,3.147,13.468,3.245" transform="translate(-115.605 -93.583)" fill="none" stroke="#263238" stroke-linecap="round" stroke-linejoin="round" stroke-width="2"/>
      <path id="Path_324" data-name="Path 324" d="M228.69,124.167c3.425,14.74,13.777,25.453,26.01,25.453s22.585-10.713,26.01-25.453l-4.517-.753a130.871,130.871,0,0,0-43.611.09Z" transform="translate(-103.879 -97.118)" fill="#263238" stroke="#263238" stroke-linecap="round" stroke-linejoin="round" stroke-width="1"/>
      <path id="Path_325" data-name="Path 325" d="M275.2,145.586a34.132,34.132,0,0,0-35.293.181c4.743,5.322,10.863,8.552,17.563,8.552S270.437,151.021,275.2,145.586Z" transform="translate(-106.653 -101.846)" stroke="#263238" stroke-linecap="round" stroke-linejoin="round" stroke-width="1" fill="url(#linear-gradient)"/>
      <circle id="Ellipse_24" data-name="Ellipse 24" cx="34.841" cy="34.841" r="34.841" transform="translate(177.946 71.196) rotate(-68.15)" fill="#fff" stroke="#263238" stroke-linecap="round" stroke-linejoin="round" stroke-width="1"/>
      <path id="Path_326" data-name="Path 326" d="M336.93,125.238l1.558-1.024a7.528,7.528,0,0,1,9.659,1.024h0" transform="translate(-130.633 -97.436)" fill="none" stroke="#263238" stroke-linecap="round" stroke-linejoin="round" stroke-width="2"/>
      <path id="Path_327" data-name="Path 327" d="M376.8,132.945l1.822-.422a7.573,7.573,0,0,1,8.688,4.351h0" transform="translate(-140.488 -99.76)" fill="none" stroke="#263238" stroke-linecap="round" stroke-linejoin="round" stroke-width="2"/>
      <path id="Path_328" data-name="Path 328" d="M384.54,146.69c0,4.1-2.356,7.43-5.27,7.43s-5.27-3.328-5.27-7.43,2.349-7.43,5.27-7.43S384.54,142.587,384.54,146.69Z" transform="translate(-139.796 -101.476)" fill="#263238" stroke="#263238" stroke-linecap="round" stroke-linejoin="round" stroke-width="1"/>
      <path id="Path_329" data-name="Path 329" d="M343.827,137.3c-1.762,3.7-5.322,5.7-7.942,4.449s-3.312-5.27-1.506-8.974,5.323-5.691,7.942-4.442S345.6,133.6,343.827,137.3Z" transform="translate(-129.753 -98.683)" fill="#263238" stroke="#263238" stroke-linecap="round" stroke-linejoin="round" stroke-width="1"/>
      <path id="Path_330" data-name="Path 330" d="M358.379,162.484c-1.129,3.531-4.208,5.7-6.881,4.841s-3.915-4.4-2.786-7.935,4.208-5.691,6.873-4.841S359.509,158.961,358.379,162.484Z" transform="translate(-133.443 -105.209)" fill="#263238" stroke="#263238" stroke-linecap="round" stroke-linejoin="round" stroke-width="1"/>
      <circle id="Ellipse_25" data-name="Ellipse 25" cx="34.735" cy="34.735" r="34.735" transform="translate(44.747 12.979)" fill="#fff" stroke="#263238" stroke-linecap="round" stroke-linejoin="round" stroke-width="1"/>
      <path id="Path_331" data-name="Path 331" d="M154.85,177.21c0,1.107-1.468,2-3.275,2s-3.275-.9-3.275-2,1.468-2.01,3.275-2.01S154.85,176.1,154.85,177.21Z" transform="translate(-84.009 -110.359)" fill="#263238" stroke="#263238" stroke-linecap="round" stroke-linejoin="round" stroke-width="1"/>
      <path id="Path_332" data-name="Path 332" d="M195.6,177.21c0,1.107-1.468,2-3.275,2s-3.275-.9-3.275-2,1.468-2.01,3.275-2.01S195.6,176.1,195.6,177.21Z" transform="translate(-94.081 -110.359)" fill="#263238" stroke="#263238" stroke-linecap="round" stroke-linejoin="round" stroke-width="1"/>
      <path id="Path_333" data-name="Path 333" d="M142.14,169.7a4.314,4.314,0,0,0,1.716,1.724c1.152.572,9.471,2,14.063,2" transform="translate(-82.487 -109)" fill="none" stroke="#263238" stroke-linecap="round" stroke-linejoin="round" stroke-width="2"/>
      <path id="Path_334" data-name="Path 334" d="M199.027,169.7a4.366,4.366,0,0,1-1.724,1.724c-1.144.572-9.471,2-14.063,2" transform="translate(-92.645 -109)" fill="none" stroke="#263238" stroke-linecap="round" stroke-linejoin="round" stroke-width="2"/>
      <path id="Path_335" data-name="Path 335" d="M162.755,187.4a19.754,19.754,0,0,1,7.935-1.822c6.181-.158,8.484,1.98,7.528,2.319C175.057,188.988,158.314,189.356,162.755,187.4Z" transform="translate(-87.398 -112.922)" fill="#263238" stroke="#263238" stroke-linecap="round" stroke-linejoin="round" stroke-width="1"/>
      <circle id="Ellipse_26" data-name="Ellipse 26" cx="34.457" cy="34.457" r="34.457" transform="translate(0 143.143) rotate(-67.7)" fill="#fff" stroke="#263238" stroke-linecap="round" stroke-linejoin="round" stroke-width="1"/>
      <path id="Path_336" data-name="Path 336" d="M119.1,270.125l1.332-2.108A10.133,10.133,0,0,1,132.8,263.99h0" transform="translate(-76.792 -132.124)" fill="none" stroke="#263238" stroke-linecap="round" stroke-linejoin="round" stroke-width="2"/>
      <ellipse id="Ellipse_27" data-name="Ellipse 27" cx="4.434" cy="5.322" rx="4.434" ry="5.322" transform="translate(21.967 123.624) rotate(-24.13)" fill="#263238" stroke="#263238" stroke-linecap="round" stroke-linejoin="round" stroke-width="1"/>
      <path id="Path_337" data-name="Path 337" d="M142.693,235.992c1.2,2.68.369,5.669-1.867,6.67s-5.029-.361-6.226-3.011-.369-5.669,1.867-6.67S141.5,233.3,142.693,235.992Z" transform="translate(-80.487 -124.558)" fill="#263238" stroke="#263238" stroke-linecap="round" stroke-linejoin="round" stroke-width="1"/>
      <path id="Path_338" data-name="Path 338" d="M96.316,242.541s-6.482-.828-6.926,6.489" transform="translate(-69.448 -126.997)" fill="none" stroke="#263238" stroke-linecap="round" stroke-linejoin="round" stroke-width="2"/>
      <path id="Path_339" data-name="Path 339" d="M130.11,227.554s3.689-5.39,9.456-.851" transform="translate(-79.513 -122.64)" fill="none" stroke="#263238" stroke-linecap="round" stroke-linejoin="round" stroke-width="2"/>
      <circle id="Ellipse_28" data-name="Ellipse 28" cx="34.434" cy="34.434" r="34.434" transform="matrix(0.922, -0.388, 0.388, 0.922, 196.852, 111.677)" fill="#fff" stroke="#263238" stroke-linecap="round" stroke-linejoin="round" stroke-width="1"/>
      <path id="Path_340" data-name="Path 340" d="M369.852,221.325c-1.89-5.473-7.875-8.379-12.264-6.866-3.072,1.061-4.976,4.148-5.21,7.769-2.424-2.71-5.827-3.96-8.891-2.9-4.4,1.506-7.31,7.491-5.42,12.971,1.95,5.639,6.911,7.159,11.375,9.034,3.335,1.37,7.528,2.439,10.893,3.809,2.356-4.163,5.609-8.635,7.965-12.8C370.183,229,371.328,225.6,369.852,221.325Z" transform="translate(-130.77 -119.964)" stroke="#263238" stroke-linecap="round" stroke-linejoin="round" stroke-width="1" fill="url(#linear-gradient)"/>
      <path id="Path_341" data-name="Path 341" d="M420.022,237.8c2.319-4.585.474-10.193-3.207-12.045-2.567-1.3-5.714-.61-8.168,1.506.233-3.222-1.077-6.158-3.644-7.461-3.681-1.859-9.29,0-11.616,4.562-2.387,4.728-.286,8.831,1.3,12.8,1.182,2.974,3.109,6.324,4.3,9.3,4.11-1.069,8.966-1.762,13.084-2.831C415.339,242.749,418.215,241.379,420.022,237.8Z" transform="translate(-144.322 -121.205)" stroke="#263238" stroke-linecap="round" stroke-linejoin="round" stroke-width="1" fill="url(#linear-gradient)"/>
      <path id="Path_342" data-name="Path 342" d="M363.3,260.73a74.29,74.29,0,0,1,29.895,6.407s-2.13,16.562-18.685,12.8S363.3,260.73,363.3,260.73Z" transform="translate(-136.948 -131.5)" fill="#263238" stroke="#263238" stroke-linecap="round" stroke-linejoin="round" stroke-width="1"/>
      <path id="Path_343" data-name="Path 343" d="M382.021,281.482c-.414,1.355-3.4,1.649-6.67.647s-5.571-2.913-5.157-4.269,3.4-1.656,6.67-.655S382.435,280.119,382.021,281.482Z" transform="translate(-138.843 -135.425)" fill="#a858e1" stroke="#263238" stroke-linecap="round" stroke-linejoin="round" stroke-width="1"/>
    </g>
    <g id="freepik--Floor--inject-31" transform="translate(20.192 1105.025)">
      <line id="Line_25" data-name="Line 25" x2="320.735" fill="none" stroke="#263238" stroke-linecap="round" stroke-linejoin="round" stroke-width="1"/>
    </g>
    <g id="freepik--Plant--inject-31" transform="translate(18.879 979.585)">
      <line id="Line_26" data-name="Line 26" x2="8.206" y2="78.61" transform="translate(9.014 27.565)" fill="none" stroke="#263238" stroke-miterlimit="10" stroke-width="1"/>
      <line id="Line_27" data-name="Line 27" x1="3.719" y1="3.93" transform="translate(12.176 87.204)" fill="none" stroke="#263238" stroke-miterlimit="10" stroke-width="1"/>
      <path id="Path_344" data-name="Path 344" d="M42.254,379.116a4.208,4.208,0,0,0-1.506-3.154c-.956-.851-5.977-2.966-6.459-1.2C33.792,376.692,38.941,380.471,42.254,379.116Z" transform="translate(-28.942 -290.737)" fill="#a858e1" stroke="#263238" stroke-miterlimit="10" stroke-width="1"/>
      <line id="Line_28" data-name="Line 28" x1="4.788" y1="2.981" transform="translate(8.524 85.398)" fill="none" stroke="#263238" stroke-miterlimit="10" stroke-width="0.5"/>
      <line id="Line_29" data-name="Line 29" x1="3.719" y1="3.922" transform="translate(13.109 96.148)" fill="none" stroke="#263238" stroke-miterlimit="10" stroke-width="1"/>
      <path id="Path_345" data-name="Path 345" d="M43.484,391a4.186,4.186,0,0,0-1.506-3.154c-.956-.851-5.977-2.966-6.459-1.2C35.03,388.565,40.179,392.351,43.484,391Z" transform="translate(-29.246 -293.674)" fill="#a858e1" stroke="#263238" stroke-miterlimit="10" stroke-width="1"/>
      <line id="Line_30" data-name="Line 30" x1="4.78" y1="2.981" transform="translate(9.458 94.341)" fill="none" stroke="#263238" stroke-miterlimit="10" stroke-width="0.5"/>
      <line id="Line_31" data-name="Line 31" x1="3.719" y1="3.93" transform="translate(9.902 65.387)" fill="none" stroke="#263238" stroke-miterlimit="10" stroke-width="1"/>
      <path id="Path_346" data-name="Path 346" d="M39.226,350.136a4.208,4.208,0,0,0-1.506-3.154c-.949-.851-5.977-2.966-6.452-1.2C30.772,347.712,35.914,351.491,39.226,350.136Z" transform="translate(-28.195 -283.574)" fill="#a858e1" stroke="#263238" stroke-miterlimit="10" stroke-width="1"/>
      <line id="Line_32" data-name="Line 32" x1="4.78" y1="2.981" transform="translate(6.251 63.581)" fill="none" stroke="#263238" stroke-miterlimit="10" stroke-width="0.5"/>
      <line id="Line_33" data-name="Line 33" x1="3.719" y1="3.922" transform="translate(10.836 74.331)" fill="none" stroke="#263238" stroke-miterlimit="10" stroke-width="1"/>
      <path id="Path_347" data-name="Path 347" d="M40.466,362.016a4.208,4.208,0,0,0-1.506-3.154c-.949-.851-5.977-2.966-6.452-1.2C32.012,359.592,37.154,363.371,40.466,362.016Z" transform="translate(-28.502 -286.511)" fill="#a858e1" stroke="#263238" stroke-miterlimit="10" stroke-width="1"/>
      <line id="Line_34" data-name="Line 34" x1="4.78" y1="2.981" transform="translate(7.184 72.524)" fill="none" stroke="#263238" stroke-miterlimit="10" stroke-width="0.5"/>
      <line id="Line_35" data-name="Line 35" x1="3.719" y1="3.93" transform="translate(8.389 50.865)" fill="none" stroke="#263238" stroke-miterlimit="10" stroke-width="1"/>
      <path id="Path_348" data-name="Path 348" d="M37.216,330.846a4.208,4.208,0,0,0-1.506-3.154c-.956-.851-5.977-2.966-6.452-1.2C28.762,328.422,33.9,332.2,37.216,330.846Z" transform="translate(-27.698 -278.806)" fill="#a858e1" stroke="#263238" stroke-miterlimit="10" stroke-width="1"/>
      <line id="Line_36" data-name="Line 36" x1="4.788" y1="2.981" transform="translate(4.73 49.059)" fill="none" stroke="#263238" stroke-miterlimit="10" stroke-width="0.5"/>
      <line id="Line_37" data-name="Line 37" x1="3.726" y1="3.93" transform="translate(6.861 36.276)" fill="none" stroke="#263238" stroke-miterlimit="10" stroke-width="2"/>
      <path id="Path_349" data-name="Path 349" d="M35.194,311.474a4.231,4.231,0,0,0-1.506-3.162c-.956-.851-5.977-2.966-6.459-1.2C26.74,309.042,31.882,312.821,35.194,311.474Z" transform="translate(-27.197 -274.016)" fill="#a858e1" stroke="#263238" stroke-miterlimit="10" stroke-width="1"/>
      <line id="Line_38" data-name="Line 38" x1="4.788" y1="2.981" transform="translate(3.209 34.476)" fill="none" stroke="#263238" stroke-miterlimit="10" stroke-width="0.5"/>
      <line id="Line_39" data-name="Line 39" y1="4.615" x2="2.831" transform="translate(15.27 81.227)" fill="none" stroke="#263238" stroke-miterlimit="10" stroke-width="2"/>
      <path id="Path_350" data-name="Path 350" d="M50.07,371.022a4.193,4.193,0,0,1,.753-3.388c.753-1.031,5.27-4.141,6.075-2.507C57.84,366.9,53.586,371.692,50.07,371.022Z" transform="translate(-32.828 -288.41)" fill="#a858e1" stroke="#263238" stroke-miterlimit="10" stroke-width="1"/>
      <line id="Line_40" data-name="Line 40" y1="4.11" x2="4.306" transform="translate(17.242 78.502)" fill="none" stroke="#263238" stroke-miterlimit="10" stroke-width="0.5"/>
      <line id="Line_41" data-name="Line 41" y1="4.615" x2="2.831" transform="translate(12.816 57.701)" fill="none" stroke="#263238" stroke-miterlimit="10" stroke-width="1"/>
      <path id="Path_351" data-name="Path 351" d="M46.8,339.772a4.216,4.216,0,0,1,.8-3.388c.753-1.031,5.27-4.141,6.068-2.507C54.581,335.654,50.327,340.412,46.8,339.772Z" transform="translate(-32.024 -280.685)" fill="#a858e1" stroke="#263238" stroke-miterlimit="10" stroke-width="1"/>
      <line id="Line_42" data-name="Line 42" y1="4.118" x2="4.306" transform="translate(14.78 54.968)" fill="none" stroke="#263238" stroke-miterlimit="10" stroke-width="0.5"/>
      <line id="Line_43" data-name="Line 43" y1="4.607" x2="2.831" transform="translate(11.739 47.365)" fill="none" stroke="#263238" stroke-miterlimit="10" stroke-width="1"/>
      <path id="Path_352" data-name="Path 352" d="M45.374,326.041a4.231,4.231,0,0,1,.8-3.4c.753-1.031,5.27-4.133,6.068-2.5C53.143,321.924,48.9,326.7,45.374,326.041Z" transform="translate(-31.67 -277.292)" fill="#a858e1" stroke="#263238" stroke-miterlimit="10" stroke-width="1"/>
      <line id="Line_44" data-name="Line 44" y1="4.118" x2="4.306" transform="translate(13.704 44.632)" fill="none" stroke="#263238" stroke-miterlimit="10" stroke-width="0.5"/>
      <line id="Line_45" data-name="Line 45" y1="4.615" x2="2.823" transform="translate(10.158 32.203)" fill="none" stroke="#263238" stroke-miterlimit="10" stroke-width="1"/>
      <path id="Path_353" data-name="Path 353" d="M43.273,305.912a4.178,4.178,0,0,1,.8-3.388c.753-1.031,5.27-4.141,6.068-2.507C51.042,301.786,46.811,306.544,43.273,305.912Z" transform="translate(-31.15 -272.316)" fill="#a858e1" stroke="#263238" stroke-miterlimit="10" stroke-width="1"/>
      <line id="Line_46" data-name="Line 46" y1="4.11" x2="4.306" transform="translate(12.123 29.478)" fill="none" stroke="#263238" stroke-miterlimit="10" stroke-width="0.5"/>
      <path id="Path_354" data-name="Path 354" d="M39.054,297.321a4.231,4.231,0,0,1,.8-3.4c.753-1.031,5.27-4.133,6.068-2.5C46.823,293.2,42.577,297.961,39.054,297.321Z" transform="translate(-30.108 -270.193)" fill="#a858e1" stroke="#263238" stroke-miterlimit="10" stroke-width="1"/>
      <line id="Line_47" data-name="Line 47" y1="4.118" x2="4.306" transform="translate(8.946 23.011)" fill="none" stroke="#263238" stroke-miterlimit="10" stroke-width="0.5"/>
      <path id="Path_355" data-name="Path 355" d="M37.526,297.172a4.208,4.208,0,0,1-3.32-1.144c-.941-.866-3.561-5.646-1.852-6.3C34.244,289.011,38.535,293.739,37.526,297.172Z" transform="translate(-28.332 -269.87)" fill="#a858e1" stroke="#263238" stroke-miterlimit="10" stroke-width="1"/>
      <line id="Line_48" data-name="Line 48" x1="3.644" y1="4.713" transform="translate(5.551 22.589)" fill="none" stroke="#263238" stroke-miterlimit="10" stroke-width="0.5"/>
      <line id="Line_49" data-name="Line 49" x1="8.161" y2="78.618" transform="translate(22.497 38.391)" fill="none" stroke="#263238" stroke-miterlimit="10" stroke-width="1"/>
      <line id="Line_50" data-name="Line 50" x1="2.831" y1="4.607" transform="translate(21.473 97.405)" fill="none" stroke="#263238" stroke-miterlimit="10" stroke-width="1"/>
      <path id="Path_356" data-name="Path 356" d="M54.565,392.511a4.2,4.2,0,0,0-.8-3.4c-.753-1.031-5.27-4.133-6.068-2.5C46.8,388.393,51.05,393.151,54.565,392.511Z" transform="translate(-32.234 -293.721)" fill="#a858e1" stroke="#263238" stroke-miterlimit="10" stroke-width="1"/>
      <line id="Line_51" data-name="Line 51" x1="4.065" y1="3.907" transform="translate(18.266 94.883)" fill="none" stroke="#263238" stroke-miterlimit="10" stroke-width="0.5"/>
      <line id="Line_52" data-name="Line 52" x1="2.831" y1="4.607" transform="translate(23.732 75.588)" fill="none" stroke="#263238" stroke-miterlimit="10" stroke-width="1"/>
      <path id="Path_357" data-name="Path 357" d="M57.573,363.531a4.231,4.231,0,0,0-.8-3.4c-.753-1.031-5.27-4.133-6.075-2.5C49.8,359.414,54.057,364.171,57.573,363.531Z" transform="translate(-32.976 -286.558)" fill="#a858e1" stroke="#263238" stroke-miterlimit="10" stroke-width="1"/>
      <line id="Line_53" data-name="Line 53" x1="4.065" y1="3.907" transform="translate(20.532 73.066)" fill="none" stroke="#263238" stroke-miterlimit="10" stroke-width="0.5"/>
      <line id="Line_54" data-name="Line 54" x1="2.831" y1="4.615" transform="translate(22.806 84.524)" fill="none" stroke="#263238" stroke-miterlimit="10" stroke-width="1"/>
      <path id="Path_358" data-name="Path 358" d="M56.343,375.4a4.216,4.216,0,0,0-.8-3.388c-.753-1.031-5.27-4.133-6.075-2.507C48.566,371.27,52.85,376.043,56.343,375.4Z" transform="translate(-32.672 -289.493)" fill="#a858e1" stroke="#263238" stroke-miterlimit="10" stroke-width="1"/>
      <line id="Line_55" data-name="Line 55" x1="4.065" y1="3.9" transform="translate(19.606 82.01)" fill="none" stroke="#263238" stroke-miterlimit="10" stroke-width="0.5"/>
      <line id="Line_56" data-name="Line 56" x1="2.831" y1="4.615" transform="translate(25.245 61.059)" fill="none" stroke="#263238" stroke-miterlimit="10" stroke-width="1"/>
      <path id="Path_359" data-name="Path 359" d="M59.575,344.234a4.178,4.178,0,0,0-.8-3.388c-.753-1.031-5.27-4.133-6.068-2.5C51.806,340.123,56.06,344.874,59.575,344.234Z" transform="translate(-33.472 -281.79)" fill="#a858e1" stroke="#263238" stroke-miterlimit="10" stroke-width="1"/>
      <line id="Line_57" data-name="Line 57" x1="4.065" y1="3.9" transform="translate(22.038 58.544)" fill="none" stroke="#263238" stroke-miterlimit="10" stroke-width="0.5"/>
      <line id="Line_58" data-name="Line 58" x1="2.831" y1="4.607" transform="translate(26.758 46.476)" fill="none" stroke="#263238" stroke-miterlimit="10" stroke-width="1"/>
      <path id="Path_360" data-name="Path 360" d="M61.585,324.911a4.2,4.2,0,0,0-.8-3.4c-.753-1.031-5.27-4.133-6.068-2.5C53.816,320.756,58.07,325.514,61.585,324.911Z" transform="translate(-33.969 -277.012)" fill="#a858e1" stroke="#263238" stroke-miterlimit="10" stroke-width="1"/>
      <line id="Line_59" data-name="Line 59" x1="4.065" y1="3.907" transform="translate(23.551 43.954)" fill="none" stroke="#263238" stroke-miterlimit="10" stroke-width="0.5"/>
      <line id="Line_60" data-name="Line 60" y1="3.93" x2="3.719" transform="translate(24.778 92.775)" fill="none" stroke="#263238" stroke-miterlimit="10" stroke-width="1"/>
      <path id="Path_361" data-name="Path 361" d="M63.55,386.524a4.216,4.216,0,0,1,1.506-3.154c.956-.858,5.977-2.974,6.459-1.2C72,384.13,66.9,387.894,63.55,386.524Z" transform="translate(-36.182 -292.567)" fill="#a858e1" stroke="#263238" stroke-miterlimit="10" stroke-width="1"/>
      <line id="Line_61" data-name="Line 61" y1="3.147" x2="5.059" transform="translate(27.368 90.81)" fill="none" stroke="#263238" stroke-miterlimit="10" stroke-width="0.5"/>
      <line id="Line_62" data-name="Line 62" y1="3.93" x2="3.719" transform="translate(27.217 69.249)" fill="none" stroke="#263238" stroke-miterlimit="10" stroke-width="1"/>
      <path id="Path_362" data-name="Path 362" d="M66.79,355.266a4.231,4.231,0,0,1,1.506-3.154c.956-.851,5.977-2.966,6.459-1.2C75.229,352.835,70.1,356.621,66.79,355.266Z" transform="translate(-36.983 -284.842)" fill="#a858e1" stroke="#263238" stroke-miterlimit="10" stroke-width="1"/>
      <line id="Line_63" data-name="Line 63" y1="3.139" x2="5.067" transform="translate(29.807 67.285)" fill="none" stroke="#263238" stroke-miterlimit="10" stroke-width="0.5"/>
      <line id="Line_64" data-name="Line 64" y1="3.937" x2="3.719" transform="translate(28.294 58.906)" fill="none" stroke="#263238" stroke-miterlimit="10" stroke-width="2"/>
      <path id="Path_363" data-name="Path 363" d="M68.22,341.534a4.186,4.186,0,0,1,1.506-3.154c.956-.858,5.977-2.974,6.452-1.2C76.667,339.132,71.532,342.9,68.22,341.534Z" transform="translate(-37.337 -281.446)" fill="#a858e1" stroke="#263238" stroke-miterlimit="10" stroke-width="1"/>
      <line id="Line_65" data-name="Line 65" y1="3.139" x2="5.059" transform="translate(30.883 56.948)" fill="none" stroke="#263238" stroke-miterlimit="10" stroke-width="0.5"/>
      <line id="Line_66" data-name="Line 66" y1="3.93" x2="3.719" transform="translate(29.867 43.751)" fill="none" stroke="#263238" stroke-miterlimit="10" stroke-width="1"/>
      <path id="Path_364" data-name="Path 364" d="M70.31,321.4a4.193,4.193,0,0,1,1.506-3.154c.956-.851,5.977-2.966,6.452-1.2C78.757,318.965,73.622,322.751,70.31,321.4Z" transform="translate(-37.853 -276.471)" fill="#a858e1" stroke="#263238" stroke-miterlimit="10" stroke-width="1"/>
      <line id="Line_67" data-name="Line 67" y1="3.139" x2="5.059" transform="translate(32.457 41.786)" fill="none" stroke="#263238" stroke-miterlimit="10" stroke-width="0.5"/>
      <path id="Path_365" data-name="Path 365" d="M68,312.126a4.186,4.186,0,0,1,1.506-3.154c.956-.851,5.977-2.966,6.452-1.2C76.417,309.695,71.275,313.481,68,312.126Z" transform="translate(-37.282 -274.179)" fill="#a858e1" stroke="#263238" stroke-miterlimit="10" stroke-width="1"/>
      <line id="Line_68" data-name="Line 68" y1="3.139" x2="5.059" transform="translate(30.68 34.808)" fill="none" stroke="#263238" stroke-miterlimit="10" stroke-width="0.5"/>
      <path id="Path_366" data-name="Path 366" d="M66.786,311.335a4.208,4.208,0,0,1-3.011-1.8c-.753-1.039-2.326-6.256-.519-6.55C65.258,302.677,68.48,308.18,66.786,311.335Z" transform="translate(-35.903 -273.162)" fill="#a858e1" stroke="#263238" stroke-miterlimit="10" stroke-width="1"/>
      <line id="Line_69" data-name="Line 69" x1="2.59" y1="5.36" transform="translate(28.294 32.813)" fill="none" stroke="#263238" stroke-miterlimit="10" stroke-width="0.5"/>
      <line id="Line_70" data-name="Line 70" y2="99.418" transform="translate(21.307 6.373)" fill="none" stroke="#263238" stroke-miterlimit="10" stroke-width="1"/>
      <line id="Line_71" data-name="Line 71" x1="3.29" y1="4.299" transform="translate(18.093 86.549)" fill="none" stroke="#263238" stroke-miterlimit="10" stroke-width="1"/>
      <path id="Path_367" data-name="Path 367" d="M50.086,378.174a4.208,4.208,0,0,0-1.174-3.29c-.858-.949-5.639-3.568-6.294-1.859C41.933,374.884,46.653,379.182,50.086,378.174Z" transform="translate(-30.992 -290.337)" fill="#a858e1" stroke="#263238" stroke-miterlimit="10" stroke-width="1"/>
      <line id="Line_72" data-name="Line 72" x1="4.449" y1="3.455" transform="translate(14.645 84.381)" fill="none" stroke="#263238" stroke-miterlimit="10" stroke-width="0.5"/>
      <line id="Line_73" data-name="Line 73" x1="3.29" y1="4.291" transform="translate(18.093 67.872)" fill="none" stroke="#263238" stroke-miterlimit="10" stroke-width="1"/>
      <path id="Path_368" data-name="Path 368" d="M50.086,353.362a4.208,4.208,0,0,0-1.174-3.29c-.858-.949-5.639-3.576-6.294-1.867C41.933,350.072,46.653,354.363,50.086,353.362Z" transform="translate(-30.992 -284.202)" fill="#a858e1" stroke="#263238" stroke-miterlimit="10" stroke-width="1"/>
      <line id="Line_74" data-name="Line 74" x1="4.449" y1="3.463" transform="translate(14.645 65.696)" fill="none" stroke="#263238" stroke-miterlimit="10" stroke-width="1"/>
      <line id="Line_75" data-name="Line 75" x1="3.29" y1="4.291" transform="translate(18.093 45.934)" fill="none" stroke="#263238" stroke-miterlimit="10" stroke-width="1"/>
      <path id="Path_369" data-name="Path 369" d="M50.086,324.223a4.208,4.208,0,0,0-1.174-3.29c-.858-.949-5.639-3.576-6.294-1.859C41.933,320.933,46.653,325.224,50.086,324.223Z" transform="translate(-30.992 -277.001)" fill="#a858e1" stroke="#263238" stroke-miterlimit="10" stroke-width="1"/>
      <line id="Line_76" data-name="Line 76" x1="4.449" y1="3.463" transform="translate(14.645 43.759)" fill="none" stroke="#263238" stroke-miterlimit="10" stroke-width="0.5"/>
      <line id="Line_77" data-name="Line 77" x1="3.29" y1="4.299" transform="translate(18.093 31.33)" fill="none" stroke="#263238" stroke-miterlimit="10" stroke-width="1"/>
      <path id="Path_370" data-name="Path 370" d="M50.086,304.824a4.208,4.208,0,0,0-1.174-3.29c-.858-.949-5.639-3.568-6.294-1.859C41.933,301.534,46.653,305.8,50.086,304.824Z" transform="translate(-30.992 -272.207)" fill="#a858e1" stroke="#263238" stroke-miterlimit="10" stroke-width="1"/>
      <line id="Line_78" data-name="Line 78" x1="4.449" y1="3.455" transform="translate(14.645 29.161)" fill="none" stroke="#263238" stroke-miterlimit="10" stroke-width="0.5"/>
      <line id="Line_79" data-name="Line 79" x1="3.29" y1="4.291" transform="translate(18.093 16.664)" fill="none" stroke="#263238" stroke-miterlimit="10" stroke-width="1"/>
      <path id="Path_371" data-name="Path 371" d="M50.086,285.344a4.208,4.208,0,0,0-1.174-3.29c-.858-.949-5.639-3.568-6.294-1.859C41.933,282.054,46.653,286.345,50.086,285.344Z" transform="translate(-30.992 -267.392)" fill="#a858e1" stroke="#263238" stroke-miterlimit="10" stroke-width="1"/>
      <line id="Line_80" data-name="Line 80" x1="4.449" y1="3.455" transform="translate(14.645 14.496)" fill="none" stroke="#263238" stroke-miterlimit="10" stroke-width="1"/>
      <line id="Line_81" data-name="Line 81" y1="4.299" x2="3.29" transform="translate(21.315 92.256)" fill="none" stroke="#263238" stroke-miterlimit="10" stroke-width="1"/>
      <path id="Path_372" data-name="Path 372" d="M58.544,385.754a4.208,4.208,0,0,1,1.144-3.29c.858-.949,5.639-3.568,6.294-1.859C66.7,382.464,61.977,386.785,58.544,385.754Z" transform="translate(-34.941 -292.21)" fill="#a858e1" stroke="#263238" stroke-miterlimit="10" stroke-width="1"/>
      <line id="Line_82" data-name="Line 82" y1="3.644" x2="4.713" transform="translate(23.604 89.9)" fill="none" stroke="#263238" stroke-miterlimit="10" stroke-width="0.5"/>
      <line id="Line_83" data-name="Line 83" y1="4.291" x2="3.29" transform="translate(21.315 62.542)" fill="none" stroke="#263238" stroke-miterlimit="10" stroke-width="1"/>
      <path id="Path_373" data-name="Path 373" d="M58.544,346.284a4.208,4.208,0,0,1,1.144-3.29c.858-.949,5.639-3.568,6.294-1.859C66.7,342.994,61.977,347.285,58.544,346.284Z" transform="translate(-34.941 -282.455)" fill="#a858e1" stroke="#263238" stroke-miterlimit="10" stroke-width="1"/>
      <line id="Line_84" data-name="Line 84" y1="3.644" x2="4.713" transform="translate(23.604 60.185)" fill="none" stroke="#263238" stroke-miterlimit="10" stroke-width="0.5"/>
      <line id="Line_85" data-name="Line 85" y1="4.291" x2="3.29" transform="translate(21.315 47.877)" fill="none" stroke="#263238" stroke-miterlimit="10" stroke-width="1"/>
      <path id="Path_374" data-name="Path 374" d="M58.544,326.8a4.208,4.208,0,0,1,1.144-3.29c.858-.949,5.639-3.568,6.294-1.859C66.7,323.514,61.977,327.8,58.544,326.8Z" transform="translate(-34.941 -277.64)" fill="#a858e1" stroke="#263238" stroke-miterlimit="10" stroke-width="1"/>
      <line id="Line_86" data-name="Line 86" y1="3.644" x2="4.713" transform="translate(23.604 45.52)" fill="none" stroke="#263238" stroke-miterlimit="10" stroke-width="0.5"/>
      <line id="Line_87" data-name="Line 87" y1="4.291" x2="3.29" transform="translate(21.315 28.491)" fill="none" stroke="#263238" stroke-miterlimit="10" stroke-width="1"/>
      <path id="Path_375" data-name="Path 375" d="M58.544,301.054a4.208,4.208,0,0,1,1.144-3.29c.858-.949,5.639-3.568,6.294-1.859C66.7,297.764,61.977,302.055,58.544,301.054Z" transform="translate(-34.941 -271.275)" fill="#a858e1" stroke="#263238" stroke-miterlimit="10" stroke-width="1"/>
      <line id="Line_88" data-name="Line 88" y1="3.644" x2="4.713" transform="translate(23.604 26.135)" fill="none" stroke="#263238" stroke-miterlimit="10" stroke-width="0.5"/>
      <line id="Line_89" data-name="Line 89" y1="4.291" x2="3.29" transform="translate(21.315 13.254)" fill="none" stroke="#263238" stroke-miterlimit="10" stroke-width="1"/>
      <path id="Path_376" data-name="Path 376" d="M58.544,280.813a4.208,4.208,0,0,1,1.144-3.29c.858-.949,5.639-3.576,6.294-1.859C66.7,277.523,61.977,281.8,58.544,280.813Z" transform="translate(-34.941 -266.271)" fill="#a858e1" stroke="#263238" stroke-miterlimit="10" stroke-width="1"/>
      <line id="Line_90" data-name="Line 90" y1="3.651" x2="4.713" transform="translate(23.604 10.89)" fill="none" stroke="#263238" stroke-miterlimit="10" stroke-width="0.5"/>
      <path id="Path_377" data-name="Path 377" d="M55.244,271.833a4.208,4.208,0,0,1,1.144-3.29c.858-.949,5.639-3.576,6.294-1.859C63.4,268.543,58.677,272.8,55.244,271.833Z" transform="translate(-34.125 -264.052)" fill="#a858e1" stroke="#263238" stroke-miterlimit="10" stroke-width="1"/>
      <line id="Line_91" data-name="Line 91" y1="3.644" x2="4.705" transform="translate(21.119 4.137)" fill="none" stroke="#263238" stroke-miterlimit="10" stroke-width="0.5"/>
      <path id="Path_378" data-name="Path 378" d="M53.9,271.374a4.209,4.209,0,0,1-3.154-1.506c-.851-.956-2.959-5.985-1.189-6.459C51.482,262.9,55.253,268.046,53.9,271.374Z" transform="translate(-32.553 -263.374)" fill="#a858e1" stroke="#263238" stroke-miterlimit="10" stroke-width="1"/>
      <line id="Line_92" data-name="Line 92" x1="3.132" y1="5.067" transform="translate(18.213 2.918)" fill="none" stroke="#263238" stroke-miterlimit="10" stroke-width="0.5"/>
      <path id="Path_379" data-name="Path 379" d="M57.042,429.42H46.517L45.2,402.83H58.359Z" transform="translate(-31.647 -297.844)" fill="#263238" stroke="#263238" stroke-miterlimit="10" stroke-width="1"/>
    </g>
    <g id="freepik--Character--inject-31" transform="translate(81.613 924.083)">
      <path id="Path_380" data-name="Path 380" d="M291.467,219.087s-55.9-7.528-99.667.7l12.648,106.427,73.107.241L296.27,222.135S294,219.087,291.467,219.087Z" transform="translate(-130.616 -196.148)" fill="#c9c9c9" stroke="#263238" stroke-linecap="round" stroke-linejoin="round" stroke-width="1"/>
      <path id="Path_381" data-name="Path 381" d="M205.909,322.069s-12.9-102.2-15.177-105.72-9.358-16.683-17.962-11.044,18.723,117.238,18.723,117.238Z" transform="translate(-125.498 -193.177)" fill="#c9c9c9" stroke="#263238" stroke-linecap="round" stroke-linejoin="round" stroke-width="1"/>
      <path id="Path_382" data-name="Path 382" d="M321.877,278.882s12.919-54.956,13.86-63.667-7.287-12.685-11.292-10.577-4.931,1.415-8.929,24.911-9.162,84.814-8.7,86.221,3.056,2.349,4.464,2.349S321.877,278.882,321.877,278.882Z" transform="translate(-159.039 -193.217)" fill="#c9c9c9" stroke="#263238" stroke-linecap="round" stroke-linejoin="round" stroke-width="1"/>
      <path id="Path_383" data-name="Path 383" d="M184.232,342.17s-2.115-33.365-5.872-40.653-8.221-9.4-17.383-9.629-14.808,7.28-12.926,12.452,11.752,7.747,13.393,11.511,11.292,73.024,11.292,73.024Z" transform="translate(-119.713 -214.919)" fill="#c9c9c9" stroke="#263238" stroke-linecap="round" stroke-linejoin="round" stroke-width="1"/>
      <path id="Path_384" data-name="Path 384" d="M182.609,343.406s-3.011-35.827-5.865-40.427-6.233-5.94-13.19-6.09-11.225,4.607-9.787,7.867,8.913,4.9,10.163,7.28,8.552,46.171,8.552,46.171Z" transform="translate(-121.147 -216.155)" fill="#c9c9c9" stroke="#263238" stroke-linecap="round" stroke-linejoin="round" stroke-width="1"/>
      <path id="Path_385" data-name="Path 385" d="M300.92,342.17s2.115-33.365,5.88-40.653,8.221-9.4,17.383-9.629,14.8,7.28,12.919,12.452-11.744,7.747-13.393,11.511-11.292,73.024-11.292,73.024Z" transform="translate(-157.588 -214.919)" fill="#c9c9c9" stroke="#263238" stroke-linecap="round" stroke-linejoin="round" stroke-width="1"/>
      <path id="Path_386" data-name="Path 386" d="M305,343.406s3.011-35.827,5.865-40.427,6.241-5.94,13.19-6.09,11.232,4.607,9.787,7.867-8.906,4.9-10.156,7.28-8.56,46.171-8.56,46.171Z" transform="translate(-158.596 -216.155)" fill="#c9c9c9" stroke="#263238" stroke-linecap="round" stroke-linejoin="round" stroke-width="1"/>
      <path id="Path_387" data-name="Path 387" d="M289.008,338.009s1.137,1.31-1.054,3.8-8.424,1.875-8.424,1.875l.625-17.315S288.5,334.982,289.008,338.009Z" transform="translate(-152.301 -223.443)" fill="#263238" stroke="#263238" stroke-linecap="round" stroke-linejoin="round" stroke-width="1"/>
      <path id="Path_388" data-name="Path 388" d="M272.587,328.606s7.1,3.817,7.573,5.27-.422,8.055-1.332,10.735-4.811,4.863-7.453,5.4-5.458-.384-7.754-4.728-.572-20.688,2.334-20.914S272.587,328.606,272.587,328.606Z" transform="translate(-148.106 -222.946)" fill="#a858e1" stroke="#263238" stroke-linecap="round" stroke-linejoin="round" stroke-width="1"/>
      <path id="Path_389" data-name="Path 389" d="M250.552,234.148a69.218,69.218,0,0,0,1.506,9.486,16.886,16.886,0,0,0,3.072,5.706s9.3,1.084,13.355,3.094,4.434,2.62,5.33,6.294,6.9,37.589,5.187,41.368-13.732-3.847-13.732-3.847l4.306,18.926a32.225,32.225,0,0,0-7.641-6.316c-4.035-2.161-28.013-14.371-41.82-17.217s-19.235-3.659-19.235-3.659,6.023-28.02,7.912-32.65,3.764-4.065,13.062-5.006,11.405-.068,11.518-1.649-1.295-8.319-1.295-8.319S231.588,232.816,250.552,234.148Z" transform="translate(-132.86 -200.609)" fill="#fff" stroke="#263238" stroke-linecap="round" stroke-linejoin="round" stroke-width="1"/>
      <path id="Path_390" data-name="Path 390" d="M260.73,282.359l16.043-6.851c-1.257-7.987-2.59-15.192-3.011-16.781-.9-3.674-1.287-4.276-5.33-6.294s-13.355-3.094-13.355-3.094A16.887,16.887,0,0,1,252,243.634a70.486,70.486,0,0,1-1.506-9.486c-18.964-1.333-18.482,6.211-18.482,6.211s1.408,6.775,1.295,8.319-2.213.715-11.518,1.649-11.149.376-13.062,5.006-7.912,32.65-7.912,32.65,5.428.813,19.235,3.659,37.784,15.057,41.82,17.217a32.222,32.222,0,0,1,7.641,6.316l-4.306-18.926s1.6,1.016,3.764,2.123Z" transform="translate(-132.846 -200.609)" fill="#999" stroke="#263238" stroke-linecap="round" stroke-linejoin="round" stroke-width="1"/>
      <g transform="matrix(1, 0, 0, 1, -84.6, -130.74)" filter="url(#Path_391)">
        <path id="Path_391-2" data-name="Path 391" d="M262.981,329.094s-1.634-13.829-21.026-25.6-27.855-16.961-37.641-5.27,9.192,33.7,18.151,39.817,13.867,4.005,19.461,4.517,17.119.911,19.318-3.7" transform="translate(-48.43 -84.11)" fill="#a858e1" stroke="#000" stroke-width="1"/>
      </g>
      <path id="Path_392" data-name="Path 392" d="M270.1,233.339s2.146,2.537,4.449,4.72,7.242,12.045,1.694,17.014-11.428,2.371-13.551-11.059S269.286,232.481,270.1,233.339Z" transform="translate(-148.056 -200.298)" fill="#263238" stroke="#263238" stroke-linecap="round" stroke-linejoin="round" stroke-width="1"/>
      <path id="Path_393" data-name="Path 393" d="M283.451,265.43a121.328,121.328,0,0,0-3.011,22.743l21.749-3.388s-4.156-16.893-7.167-21.29-9.952-6.331-10.856-5.812" transform="translate(-152.525 -206.445)" fill="#999" stroke="#263238" stroke-linecap="round" stroke-linejoin="round" stroke-width="1"/>
      <path id="Path_394" data-name="Path 394" d="M254.3,258.848c3.614-.324,8.131-6.136,10.705-9.915a16.712,16.712,0,0,1-2.718-5.27,70.478,70.478,0,0,1-1.506-9.486c-18.964-1.333-18.482,6.211-18.482,6.211s1.408,6.775,1.295,8.319C243.579,248.685,248.924,259.308,254.3,258.848Z" transform="translate(-143.098 -200.617)" fill="#fff" stroke="#263238" stroke-linecap="round" stroke-linejoin="round" stroke-width="1"/>
      <path id="Path_395" data-name="Path 395" d="M267.054,223.255s1.724-3.388,4-1.882,2.657,6.663.105,9.034a9.475,9.475,0,0,1-4.517,2.65Z" transform="translate(-149.115 -197.396)" fill="#fff" stroke="#263238" stroke-linecap="round" stroke-linejoin="round" stroke-width="1"/>
      <path id="Path_396" data-name="Path 396" d="M229.837,222.53s-2.477-1.762-3.44,1.634,5.27,7.295,5.27,7.295Z" transform="translate(-139.142 -197.664)" fill="#fff" stroke="#263238" stroke-linecap="round" stroke-linejoin="round" stroke-width="1"/>
      <path id="Path_397" data-name="Path 397" d="M233.431,193.926s-3.32,2.078-4.216,8.658,2.033,20.5,3.425,23.195,7.762,12.956,12.045,13.98a7.9,7.9,0,0,0,9.079-3.839,37.66,37.66,0,0,0,4.908-10.344c1.144-4.253,2.258-19.476.128-26.552s-7.573-9.343-14.213-9.373S233.627,193.218,233.431,193.926Z" transform="translate(-139.823 -189.65)" fill="#fff" stroke="#263238" stroke-linecap="round" stroke-linejoin="round" stroke-width="1"/>
      <path id="Path_398" data-name="Path 398" d="M258.776,199.023c-2.1-7.077-7.574-9.343-14.213-9.373s-10.931,3.568-11.127,4.276c0,0-3.32,2.078-4.216,8.658a37.96,37.96,0,0,0,.233,8.77c1.257-.979,0,1.506,0,1.506s5.759,2.469,10.366-1.814a72.846,72.846,0,0,0,8.514-9.787s2.055,9.5,6.775,12.136,4.765.715,4.765.715v.038C260.109,208.734,259.883,202.711,258.776,199.023Z" transform="translate(-139.828 -189.65)" fill="#263238" stroke="#263238" stroke-linecap="round" stroke-linejoin="round" stroke-width="1"/>
      <path id="Path_399" data-name="Path 399" d="M238,232.927a3.365,3.365,0,0,1,4.1-.873" transform="translate(-142.035 -200.043)" fill="none" stroke="#263238" stroke-linecap="round" stroke-linejoin="round" stroke-width="1"/>
      <path id="Path_400" data-name="Path 400" d="M254.38,231.345s1.875-2.033,4.735.474" transform="translate(-146.084 -199.763)" fill="none" stroke="#263238" stroke-linecap="round" stroke-linejoin="round" stroke-width="1"/>
      <path id="Path_401" data-name="Path 401" d="M236.21,227.605s2.785-2.7,5.744-1.619" transform="translate(-141.593 -198.568)" fill="none" stroke="#263238" stroke-linecap="round" stroke-linejoin="round" stroke-width="1"/>
      <path id="Path_402" data-name="Path 402" d="M253.05,225.759s2.876-1.814,5.842,1.137" transform="translate(-145.755 -198.439)" fill="none" stroke="#263238" stroke-linecap="round" stroke-linejoin="round" stroke-width="1"/>
      <path id="Path_403" data-name="Path 403" d="M246.85,240.66a2.01,2.01,0,0,0,2.213,1.31c1.611-.324,1.957-1.159,1.957-1.159" transform="translate(-144.223 -202.258)" fill="none" stroke="#263238" stroke-linecap="round" stroke-linejoin="round" stroke-width="1"/>
      <path id="Path_404" data-name="Path 404" d="M245.15,245.342s5.473,2.258,8.281-1.152" transform="translate(-143.803 -203.131)" fill="none" stroke="#263238" stroke-linecap="round" stroke-linejoin="round" stroke-width="1"/>
      <path id="Path_405" data-name="Path 405" d="M289.174,299.069a7.34,7.34,0,0,1,.851,3.463c0,2.123-.248,4.735-1.408,6.58-1.295,2.078-7.287,3.1-15.809-4.713s-21.185-21.117-21.185-21.117l-3.764-2.432s-5.179-2.379-7.069-4.246-2.507-3.35-1.844-4.607,4.005,2.59,5.466,2.409,1.506-.911,1.009-2.1-1.8-3.154-3.1-3.1-3.207.5-4.163-.294,1.295-2.07,2.612-2.258,7.265,1.378,7.265,1.378a8.513,8.513,0,0,0-1.506-1.543,7.062,7.062,0,0,0-4.141-.753c-.753.233-3.764-1.709-2.56-2.635a4.99,4.99,0,0,1,4.66-.542,59.4,59.4,0,0,0,6.775,2.206s-4.6-4.366-6.444-4.924-2.258-2.469-.414-2.341,5.2,2.093,6.986,3.373a44.438,44.438,0,0,1,4.991,4.976s-.565-4.231.1-5.481,2.371-.843,2.4.753.135,6.361.422,8.4-2.258,9.945-2.258,9.945,27.93,14.545,30.1,16.8A13.438,13.438,0,0,1,289.174,299.069Z" transform="translate(-142.017 -206.418)" fill="#fff" stroke="#263238" stroke-linecap="round" stroke-linejoin="round" stroke-width="1"/>
      <line id="Line_93" data-name="Line 93" x1="1.378" y2="5.24" transform="translate(113.054 59.443)" fill="#fff" stroke="#263238" stroke-linecap="round" stroke-linejoin="round" stroke-width="1"/>
      <path id="Path_406" data-name="Path 406" d="M255.73,267.17a4.728,4.728,0,0,1,.971,2.665" transform="translate(-146.418 -208.811)" fill="#fff" stroke="#263238" stroke-linecap="round" stroke-linejoin="round" stroke-width="1"/>
      <path id="Path_407" data-name="Path 407" d="M258.33,277.57s-2.176,2.153-2.033,4.329" transform="translate(-146.557 -211.381)" fill="none" stroke="#263238" stroke-linecap="round" stroke-linejoin="round" stroke-width="1"/>
      <path id="Path_408" data-name="Path 408" d="M224.976,256.475l4.668,18.738a2.424,2.424,0,0,0,2.454,1.837l9.147-.4a2.417,2.417,0,0,0,2.258-2.974l-4.434-18.821a2.417,2.417,0,0,0-2.477-1.867l-9.388.474a2.424,2.424,0,0,0-2.228,3.011Z" transform="translate(-138.798 -205.305)" fill="#a858e1" stroke="#263238" stroke-linecap="round" stroke-linejoin="round" stroke-width="1"/>
      <path id="Path_409" data-name="Path 409" d="M221.55,281.888a17.624,17.624,0,0,0,.881-6.437c-.173-3.621,1.2-4.826,1.543-7.528s-.753-5.4.655-5.27,1.957,5.044,1.754,5.895a28.111,28.111,0,0,0,0,4.186s5.014-9.787,6.128-11.292,2.846-3.553,3.553-3.365-.437,4.156-1.438,6.113-3.463,8.281-3.463,8.281,5.962-4.78,7.242-6.565,1.543-3.508,2.1-3.177.858,2.258.136,4.193-5.661,8.7-5.661,8.7a45.532,45.532,0,0,0,5.33-3.96c.941-1.092,1.295-1.927,2-1.739s.58,2.063-.407,3.727c0,0,.286-.1.753,1.295s-2.258,5.1-6.655,8.4-6.994,5.142-6.994,5.142Z" transform="translate(-137.969 -206.56)" fill="#fff" stroke="#263238" stroke-linecap="round" stroke-linejoin="round" stroke-width="1"/>
      <line id="Line_94" data-name="Line 94" x1="5.601" y2="5.819" transform="translate(98.336 67.077)" fill="none" stroke="#263238" stroke-linecap="round" stroke-linejoin="round" stroke-width="1"/>
      <path id="Path_410" data-name="Path 410" d="M177.489,383.652v40.8a4.78,4.78,0,0,0,4.788,4.78H278.2a4.78,4.78,0,0,0,4.788-4.78V381.77H177Z" transform="translate(-126.958 -237.137)" fill="#c9c9c9" stroke="#263238" stroke-linecap="round" stroke-linejoin="round" stroke-width="1"/>
      <path id="Path_411" data-name="Path 411" d="M185.412,353.9s46.171.474,66.377-.7,33.124-1.649,34.306,4.223,1.408,18.068-.474,21.147-88.337.708-90.452,1.174-18.821,1.882-21.614-2.349-3.29-20.439,1.408-24.2S185.412,353.9,185.412,353.9Z" transform="translate(-125.584 -229.702)" fill="#c9c9c9" stroke="#263238" stroke-linecap="round" stroke-linejoin="round" stroke-width="1"/>
      <path id="Path_412" data-name="Path 412" d="M159.84,340.729s4.765,10.291,5.164,10.75S172.164,340,172.164,340,162.219,338,159.84,340.729Z" transform="translate(-122.716 -226.638)" fill="#263238" stroke="#263238" stroke-linecap="round" stroke-linejoin="round" stroke-width="1"/>
      <path id="Path_413" data-name="Path 413" d="M155.255,344.78s-16.472,31.19-18.068,33.531S110.3,390.868,110.53,393.879s8.439,7.235,16.284,6.632,17.149-9.922,17.149-9.922l3.764-10.54,21.493-22.306S159.381,345.646,155.255,344.78Z" transform="translate(-110.528 -227.994)" fill="#fff" stroke="#263238" stroke-linecap="round" stroke-linejoin="round" stroke-width="1"/>
      <path id="Path_414" data-name="Path 414" d="M143.963,404.592l1.061-2.966c-7.8,6.023-18.663,8.959-18.663,8.959a36.335,36.335,0,0,0-2.356-5.511,12.384,12.384,0,0,0-3.832-3.764c-5.27,2.71-9.742,5.27-9.644,6.557.218,3.011,8.439,7.235,16.284,6.632S143.963,404.592,143.963,404.592Z" transform="translate(-110.528 -241.966)" fill="#263238" stroke="#263238" stroke-linecap="round" stroke-linejoin="round" stroke-width="1"/>
      <g transform="matrix(1, 0, 0, 1, -84.6, -130.74)" filter="url(#Path_415)">
        <path id="Path_415-2" data-name="Path 415" d="M213.763,295.667s-8.319-7.077-12.866-8.123-9.079-.2-13.551,5.556a60.6,60.6,0,0,0-7.25,12.8L159.77,327.865a42.61,42.61,0,0,1,9.207,5.383c5.074,3.817,12.121,12.542,12.121,12.542l19.062-22.781s16.63-2.447,16.653-6.919-2.364-11.571-2.364-11.571" transform="translate(-38.1 -83.01)" fill="#a858e1" stroke="#000" stroke-width="1"/>
      </g>
      <path id="Path_416" data-name="Path 416" d="M223.536,394s0,29.014.693,31.378,10.765,13.039,10.765,13.039,7.43,7.3,2.258,8.966-9.139.655-13.9-3.576-7.235-8.01-7.107-11.9.271-3.877-.151-6.075S204.52,397.3,204.52,397.3,218.658,397.764,223.536,394Z" transform="translate(-133.76 -240.159)" fill="#fff" stroke="#263238" stroke-linecap="round" stroke-linejoin="round" stroke-width="1"/>
      <path id="Path_417" data-name="Path 417" d="M231.731,452.008a21.679,21.679,0,0,0-2.944,2.831,95.843,95.843,0,0,1-8.658-9.719c.113,3.7,2.575,7.317,7.1,11.338,4.758,4.231,8.733,5.232,13.9,3.576s-2.274-8.981-2.274-8.981S234.185,449.87,231.731,452.008Z" transform="translate(-137.618 -252.795)" fill="#263238" stroke="#263238" stroke-linecap="round" stroke-linejoin="round" stroke-width="1"/>
      <g transform="matrix(1, 0, 0, 1, -84.6, -130.74)" filter="url(#Path_418)">
        <path id="Path_418-2" data-name="Path 418" d="M233.085,346.747s-8.9-13.046-15.373-15.516-25.3,10.931-27.93,17.533,4.645,14.04,4.645,14.04l.188,17.917s7.054,4.389,13.295,3.96,14.1-3.486,14.1-3.486,5.383-14.929,5.488-22.72-4.013-16.878-4.013-16.878" transform="translate(-45.37 -93.83)" fill="#a858e1" stroke="#000" stroke-width="1"/>
      </g>
      <path id="Path_419" data-name="Path 419" d="M229.59,216.125l.331-2.8L246.16,202.83" transform="translate(-139.957 -192.908)" fill="#263238" stroke="#263238" stroke-linecap="round" stroke-linejoin="round" stroke-width="1"/>
    </g>
  </g>
</svg>
