<svg xmlns="http://www.w3.org/2000/svg" width="16.367" height="16.367" viewBox="0 0 16.367 16.367">
  <path fill="#A858E1" id="blood-pressure" d="M19,5c-1.309,0-2.364,1.473-2.364,3.273a3.149,3.149,0,0,0,2,3.237V16.73a3.9,3.9,0,0,1-7.8.236c.455-.036.909-.109,1.309-.182a3.457,3.457,0,0,0,1.218.236,3.248,3.248,0,0,0,2.31-.964,3.322,3.322,0,0,0,.964-2.328,3.248,3.248,0,0,0-.964-2.31,3.291,3.291,0,0,0-1.218-.764V6.819C14.457,5.618,12.074,5,9.728,5S5,5.618,5,6.819v8.366C5,16.384,7.382,17,9.728,17h.364a4.642,4.642,0,0,0,9.275-.273V11.511a3.149,3.149,0,0,0,2-3.237C21.367,6.473,20.313,5,19,5Zm-3.837,6.929a2.546,2.546,0,1,1-4.346,1.8,2.546,2.546,0,0,1,2.546-2.546A2.594,2.594,0,0,1,15.166,11.929Zm-5.438-6.2c2.582,0,4,.727,4,1.091s-1.419,1.091-4,1.091-4-.727-4-1.091S7.146,5.727,9.728,5.727ZM6.819,15.893c-.709-.236-1.091-.527-1.091-.709V7.837a4.691,4.691,0,0,0,1.091.455Zm2.91.382a10.627,10.627,0,0,1-2.182-.2V8.455a12.047,12.047,0,0,0,2.182.182,8.635,8.635,0,0,0,4-.8v2.637a2.437,2.437,0,0,0-.364-.018,3.266,3.266,0,0,0-2.31,5.583c.055.055.109.091.164.145A12.39,12.39,0,0,1,9.728,16.275ZM19,10.82c-.891,0-1.637-1.164-1.637-2.546S18.112,5.727,19,5.727,20.64,6.891,20.64,8.273,19.894,10.82,19,10.82Zm-5.892,2.655.764-.764a.36.36,0,1,1,.509.509l-.764.764a.352.352,0,0,1-.509,0A.352.352,0,0,1,13.111,13.475Z" transform="translate(-5 -5)"/>
</svg>
