<svg xmlns="http://www.w3.org/2000/svg" width="27.399" height="24.081" viewBox="0 0 27.399 24.081">
  <g id="feeling" transform="translate(0 -31)" opacity="0.25">
    <path fill="#A858E1" id="Path_923" data-name="Path 923" d="M8.081,197.054a8,8,0,0,0,7.926-7.021,9.637,9.637,0,0,1-6.312-8.871,8.033,8.033,0,1,0-1.614,15.892Zm2.408-11.238a.8.8,0,1,1-.8.8A.8.8,0,0,1,10.489,185.816Zm-4.816,0a.8.8,0,1,1-.8.8A.8.8,0,0,1,5.673,185.816Zm-1.442,5.136a4.812,4.812,0,0,1,7.7,0,.8.8,0,1,1-1.282.966,3.3,3.3,0,0,0-5.135,0,.8.8,0,1,1-1.282-.966Z" transform="translate(0 -141.973)"/>
    <path fill="#A858E1" id="Path_924" data-name="Path 924" d="M219.027,31a8.027,8.027,0,1,0,8.081,8.027A8.037,8.037,0,0,0,219.027,31Zm2.408,4.816a.8.8,0,1,1-.8.8A.8.8,0,0,1,221.435,35.816Zm-4.816,0a.8.8,0,1,1-.8.8A.8.8,0,0,1,216.619,35.816Zm6.258,4.5a4.812,4.812,0,0,1-7.7,0,.8.8,0,0,1,1.283-.966,3.3,3.3,0,0,0,5.135,0,.8.8,0,1,1,1.282.966Z" transform="translate(-199.708 0)"/>
  </g>
</svg>
