<svg xmlns="http://www.w3.org/2000/svg" width="33" height="33" viewBox="0 0 33 33">
  <g id="Group_467" data-name="Group 467" transform="translate(-18 -183)">
    <circle id="Ellipse_73" data-name="Ellipse 73" cx="16.5" cy="16.5" r="16.5" transform="translate(18 183)" fill="#a858e1"/>
    <g id="clock" transform="translate(26.848 192)">
      <path id="Path_978" data-name="Path 978" d="M7.653,0a7.653,7.653,0,1,0,7.653,7.653A7.682,7.682,0,0,0,7.653,0ZM11.14,3.531a.448.448,0,1,1,0,.634A.448.448,0,0,1,11.14,3.531ZM7.2,2.272a.448.448,0,0,1,.9,0v.9a.448.448,0,0,1-.9,0ZM2.272,8.1a.448.448,0,0,1,0-.9h.9a.448.448,0,0,1,0,.9Zm1.893,3.673a.448.448,0,1,1,0-.634A.448.448,0,0,1,4.165,11.774Zm0-7.61a.448.448,0,1,1,0-.634A.448.448,0,0,1,4.165,4.165ZM8.1,13.033a.448.448,0,0,1-.9,0v-.9a.448.448,0,1,1,.9,0ZM10.66,10.66a.448.448,0,0,1-.634,0L7.336,7.97A.448.448,0,0,1,7.2,7.653V4.962a.448.448,0,0,1,.9,0v2.5l2.559,2.559A.448.448,0,0,1,10.66,10.66Zm1.114,1.114a.448.448,0,1,1,0-.634A.448.448,0,0,1,11.774,11.774Zm1.707-4.122a.448.448,0,0,1-.448.448h-.9a.448.448,0,1,1,0-.9h.9A.448.448,0,0,1,13.482,7.653Z" fill="#fff"/>
    </g>
  </g>
</svg>
