<svg xmlns="http://www.w3.org/2000/svg" width="33" height="33" viewBox="0 0 33 33">
  <g id="Group_469" data-name="Group 469" transform="translate(-18 -324)">
    <circle id="Ellipse_73" data-name="Ellipse 73" cx="16.5" cy="16.5" r="16.5" transform="translate(18 324)" fill="#a800be"/>
    <g id="_57_Pop_Up_" data-name="57 Pop Up " transform="translate(25 330.849)">
      <path id="Path_959" data-name="Path 959" d="M16.537,2H5.826a.765.765,0,0,0-.765.765v2.3h-2.3A.765.765,0,0,0,2,5.826V16.537a.765.765,0,0,0,.765.765H13.477a.765.765,0,0,0,.765-.765v-2.3h2.3a.765.765,0,0,0,.765-.765V2.765A.765.765,0,0,0,16.537,2ZM12.711,15.772H3.53V6.591H5.06v6.886a.765.765,0,0,0,.765.765h6.886Zm3.06-3.06H6.591V3.53h9.181ZM8.886,5.826a.765.765,0,0,1,.765-.765h3.826a.765.765,0,0,1,.765.765V9.651a.765.765,0,0,1-1.53,0V6.591H9.651A.765.765,0,0,1,8.886,5.826Z" fill="#fff"/>
    </g>
  </g>
</svg>
