<svg xmlns="http://www.w3.org/2000/svg" width="31.56" height="31.56" viewBox="0 0 31.56 31.56">
  <path id="ne1sceptic" d="M15.446,0a15.28,15.28,0,1,0,15.28,15.28A15.3,15.3,0,0,0,15.446,0Zm8.088,11.789a.955.955,0,0,1-.955.954H18.133a.956.956,0,0,1-.827-1.433L19.53,7.461a.955.955,0,1,1,1.654.955l-1.4,2.415h2.791a.955.955,0,0,1,.955.957Zm-15.308.955a.956.956,0,1,1,0-1.912h2.791l-1.4-2.416a.955.955,0,1,1,1.654-.954L13.5,11.31a.956.956,0,0,1-.827,1.433Zm14.547,8.579A.955.955,0,1,1,21,22.04a6,6,0,0,0-11.114,0,.955.955,0,1,1-1.77-.718,7.908,7.908,0,0,1,14.653,0Z" transform="translate(0.334 0.5)" fill="#A858E1" stroke="rgba(0,0,0,0)" stroke-miterlimit="10" stroke-width="1" fill-rule="evenodd"/>
</svg>
