<svg xmlns="http://www.w3.org/2000/svg" width="30.509" height="30.56" viewBox="0 0 30.509 30.56">
  <path id="new1smile" d="M27.395,1.22a3.2,3.2,0,0,0-1.97.686,3.2,3.2,0,0,0-1.97-.686,3.342,3.342,0,0,0-1.462.343,15.263,15.263,0,0,0-20.441,20.4A2.941,2.941,0,0,0,0,24.535c0,2.555,3.776,5.314,4.538,5.848a.928.928,0,0,0,1.093,0,19.69,19.69,0,0,0,2.2-1.805A15.249,15.249,0,0,0,30.509,15.255a15.124,15.124,0,0,0-1.932-7.424A5.923,5.923,0,0,0,30.509,4.2,3.051,3.051,0,0,0,27.395,1.22ZM6.165,27.5c-.356.331-.725.636-1.081.915-1.436-1.106-3.178-2.86-3.178-3.877a1.035,1.035,0,0,1,.6-.915,1.208,1.208,0,0,1,.61-.153,1.022,1.022,0,0,1,.521.127,1.1,1.1,0,0,1,.585.534.992.992,0,0,0,1.4.356.817.817,0,0,0,.331-.356,1.224,1.224,0,0,1,1.106-.661,1.143,1.143,0,0,1,1.208,1.068A2.877,2.877,0,0,1,7.488,26.1a5.265,5.265,0,0,1-.623.725c-.216.229-.458.458-.7.674ZM9.534,10.17a3.179,3.179,0,0,1,3.178,3.178.953.953,0,1,1-1.907,0,1.271,1.271,0,0,0-2.542,0,.953.953,0,1,1-1.907,0A3.179,3.179,0,0,1,9.534,10.17ZM7.907,19.844a.975.975,0,0,1,0-1.36.959.959,0,0,1,1.347,0,7.882,7.882,0,0,0,.775.686,8.464,8.464,0,0,0,10.449,0,7.882,7.882,0,0,0,.775-.686.959.959,0,0,1,1.347,0,.975.975,0,0,1,0,1.36,10.4,10.4,0,0,1-14.7,0ZM23.2,14.3a.96.96,0,0,1-.953-.953,1.271,1.271,0,0,0-2.542,0,.953.953,0,1,1-1.907,0,3.178,3.178,0,1,1,6.356,0A.96.96,0,0,1,23.2,14.3Zm3.623-7.437c-.229.216-.47.432-.712.636s-.458.394-.686.572c-1.436-1.106-3.178-2.86-3.178-3.877a.684.684,0,0,1,.051-.28,1.112,1.112,0,0,1,.674-.7h.013a1.149,1.149,0,0,1,.47-.089,1.224,1.224,0,0,1,1.106.661.985.985,0,0,0,1.22.445.877.877,0,0,0,.508-.445,1.224,1.224,0,0,1,1.106-.661A1.143,1.143,0,0,1,28.6,4.2,3.606,3.606,0,0,1,27.5,6.165c-.2.229-.432.47-.674.7Z" />
</svg>
