<svg xmlns="http://www.w3.org/2000/svg" width="31.56" height="31.56" viewBox="0 0 31.56 31.56">
  <path id="new3sceptic" d="M23.159,20.292a.953.953,0,0,1-.955.954H8.356a.955.955,0,1,1,0-1.909H22.2A.955.955,0,0,1,23.159,20.292Zm7.4-5.012A15.28,15.28,0,1,0,15.28,30.56,15.3,15.3,0,0,0,30.56,15.28ZM7.749,13.047a.953.953,0,0,1,0-1.349l1.434-1.436L7.749,8.83A.955.955,0,1,1,9.1,7.478l1.434,1.433,1.434-1.433A.955.955,0,0,1,13.319,8.83l-1.434,1.433L13.319,11.7a.954.954,0,0,1-1.351,1.349l-1.434-1.433L9.1,13.048a.951.951,0,0,1-1.351,0Zm9.492,0a.953.953,0,0,1,0-1.349l1.434-1.436L17.241,8.83a.955.955,0,1,1,1.351-1.351l1.434,1.433L21.46,7.478A.955.955,0,1,1,22.811,8.83l-1.434,1.433L22.811,11.7a.954.954,0,0,1-1.351,1.349l-1.434-1.433-1.434,1.433a.951.951,0,0,1-1.351,0Z" transform="translate(0.5 0.5)" fill="#A858E1" stroke="rgba(0,0,0,0)" stroke-miterlimit="10" stroke-width="1" fill-rule="evenodd"/>
</svg>
