<svg xmlns="http://www.w3.org/2000/svg" width="31.56" height="31.56" viewBox="0 0 31.56 31.56">
  <path id="new3sad" d="M15.28,0A15.28,15.28,0,1,0,30.56,15.28,15.3,15.3,0,0,0,15.28,0Zm7.326,21.323a.954.954,0,0,1-1.768.719,6,6,0,0,0-11.116,0,.954.954,0,0,1-1.768-.719,7.907,7.907,0,0,1,14.652,0Zm-10.26-11.2-4.6-1.233a.955.955,0,1,1,.5-1.845l4.6,1.233a.955.955,0,1,1-.493,1.845Zm11.147-2.4a.956.956,0,0,1-.676,1.17l-4.6,1.233a.955.955,0,1,1-.493-1.845l4.6-1.233A.957.957,0,0,1,23.493,7.724ZM12.915,12.964a2.238,2.238,0,1,1-2.238-2.238,2.238,2.238,0,0,1,2.238,2.238ZM19.884,15.2a2.238,2.238,0,1,1,2.238-2.238A2.238,2.238,0,0,1,19.884,15.2Z" transform="translate(0.5 0.5)" fill="#A858E1" stroke="rgba(0,0,0,0)" stroke-miterlimit="10" stroke-width="1" fill-rule="evenodd"/>
</svg>
