<svg xmlns="http://www.w3.org/2000/svg" width="53.468" height="53.468" viewBox="0 0 53.468 53.468">
  <path id="new4happy" d="M26.734,0A26.734,26.734,0,1,0,53.468,26.734,26.766,26.766,0,0,0,26.734,0ZM13.467,19.212a3.916,3.916,0,1,1,3.916,3.916A3.916,3.916,0,0,1,13.467,19.212Zm18.7,0a3.916,3.916,0,1,1,3.916,3.916,3.916,3.916,0,0,1-3.916-3.916Zm6.56,12.162a1.672,1.672,0,0,1,1.648,1.946,13.833,13.833,0,0,1-27.285,0,1.671,1.671,0,0,1,1.648-1.946ZM26.734,41.522a10.448,10.448,0,0,1-9.829-6.8H36.563a10.447,10.447,0,0,1-9.829,6.8Z" fill="#A858E1" fill-rule="evenodd"/>
</svg>
