<svg xmlns="http://www.w3.org/2000/svg" width="13.538" height="17.2" viewBox="0 0 13.538 17.2">
  <path fill="#A858E1" id="Path_864" data-name="Path 864" d="M18.372,2.2a.615.615,0,0,0-.455-.2H5.614A.621.621,0,0,0,5,2.671L5.46,7.537l1.046,11.1a.615.615,0,0,0,.615.56h9.3a.615.615,0,0,0,.615-.56l1.5-15.97a.615.615,0,0,0-.16-.468ZM17.24,3.23l-.412,4.423a33.613,33.613,0,0,1-3.6-1.3,7.379,7.379,0,0,0-6.619.258L6.291,3.23ZM15.85,17.994H7.681L6.727,7.912c1.784-.837,3.347-1.538,6.035-.424A32.456,32.456,0,0,0,16.687,8.9ZM9.3,9.382l.615,6.705a.615.615,0,0,1-.554.677H9.3a.615.615,0,0,1-.615-.554L8.074,9.505A.618.618,0,0,1,9.3,9.382Z" transform="translate(-4.996 -2)"/>
</svg>
