<svg id="Layer_1" height="512" viewBox="0 0 512 512" width="512" xmlns="http://www.w3.org/2000/svg" data-name="Layer 1"><path fill="#A858E1" d="m256 0c141.385 0 256 114.615 256 256s-114.615 256-256 256-256-114.615-256-256 114.615-256 256-256zm59.555 235.391-36.414-5.377-16.359-32.97a7.57 7.57 0 0 0 -13.562 0l-16.361 32.97-36.413 5.377a7.566 7.566 0 0 0 -4.191 12.9l26.3 25.75-6.145 36.287a7.569 7.569 0 0 0 10.973 7.973l32.617-17.065 32.616 17.06a7.569 7.569 0 0 0 10.973-7.973l-6.146-36.287 26.3-25.75a7.568 7.568 0 0 0 -4.192-12.9zm-59.555 115.321a94.712 94.712 0 1 0 -94.709-94.712 94.82 94.82 0 0 0 94.709 94.712zm124.683-182.577a36.868 36.868 0 1 0 -30.809-16.7l-21.674 21.847a109.633 109.633 0 0 0 -144.3-.09l-21.766-21.765a36.849 36.849 0 1 0 -10.705 10.709l21.764 21.764a109.64 109.64 0 0 0 .074 144.288l-21.83 21.684a36.888 36.888 0 1 0 10.7 10.714l21.842-21.7a109.637 109.637 0 0 0 144.121-.072l21.764 21.761a36.868 36.868 0 1 0 10.707-10.705l-21.762-21.77a109.632 109.632 0 0 0 .091-144.1l21.689-21.86a36.58 36.58 0 0 0 20.094 5.995z" fill="#A858E1" fill-rule="evenodd"/></svg>