<svg id="weight-scale" xmlns="http://www.w3.org/2000/svg" width="16.367" height="16.367" viewBox="0 0 16.367 16.367">
  <path fill="#A858E1" id="Path_865" data-name="Path 865" d="M14.929,0H1.439A1.44,1.44,0,0,0,0,1.439v13.49a1.44,1.44,0,0,0,1.439,1.439h13.49a1.44,1.44,0,0,0,1.439-1.439V1.439A1.44,1.44,0,0,0,14.929,0Zm.48,14.929a.48.48,0,0,1-.48.48H1.439a.48.48,0,0,1-.48-.48V1.439a.48.48,0,0,1,.48-.48h13.49a.48.48,0,0,1,.48.48Zm0,0"/>
  <path fill="#A858E1" id="Path_866" data-name="Path 866" d="M88.252,63.843a9.219,9.219,0,0,0-11.061,0,.48.48,0,0,0-.1.672l2.531,3.368a.48.48,0,0,0,.671.1,4.04,4.04,0,0,1,4.847,0,.479.479,0,0,0,.671-.1l2.531-3.368a.48.48,0,0,0-.1-.672Zm-2.928,3.1a4.943,4.943,0,0,0-2.123-.707V64.773a.48.48,0,0,0-.959,0v1.462a4.943,4.943,0,0,0-2.123.707l-1.96-2.608a8.262,8.262,0,0,1,9.126,0Zm0,0" transform="translate(-74.538 -60.018)"/>
</svg>
