<svg width="30" height="30" viewBox="0 0 30 30" fill="none" xmlns="http://www.w3.org/2000/svg">
<circle cx="15" cy="15" r="15" fill="#0092FF"/>
<path d="M22 11.9385V18.1184C22 19.1868 21.1342 20.0526 20.0658 20.0526H9.93421C9.42123 20.0526 8.92925 19.8488 8.56652 19.4861C8.20378 19.1234 8 18.6314 8 18.1184V11.9385L14.7782 15.6669C14.9164 15.7428 15.084 15.7428 15.2218 15.6669L22 11.9382V11.9385ZM20.0658 9C20.5707 9.00005 21.0556 9.19753 21.4169 9.55026C21.7781 9.903 21.9871 10.383 21.9993 10.8878L15 14.7378L8.00074 10.8874L8.00147 10.8543C8.02211 10.3555 8.23476 9.88406 8.59497 9.53848C8.95517 9.19289 9.43504 8.99995 9.93421 9H20.0658Z" fill="white"/>
</svg>
