<svg width="30" height="30" viewBox="0 0 30 30" fill="none" xmlns="http://www.w3.org/2000/svg">
<circle cx="15" cy="15" r="15" fill="#0092FF"/>
<path d="M15.001 24C15.8711 24 16.583 23.2154 16.583 22.2564H13.419C13.419 22.7188 13.5856 23.1623 13.8823 23.4893C14.179 23.8163 14.5814 24 15.001 24ZM19.747 18.7692V14.4103C19.747 11.7338 18.4498 9.49333 16.1875 8.90051V8.30769C16.1875 7.5841 15.6575 7 15.001 7C14.3444 7 13.8145 7.5841 13.8145 8.30769V8.90051C11.5443 9.49333 10.2549 11.7251 10.2549 14.4103V18.7692L9.23452 19.8938C8.73618 20.4431 9.08422 21.3846 9.78822 21.3846H20.2058C20.9098 21.3846 21.2658 20.4431 20.7674 19.8938L19.747 18.7692Z" fill="white"/>
</svg>
