<svg width="30" height="30" viewBox="0 0 30 30" fill="none" xmlns="http://www.w3.org/2000/svg">
<circle cx="15" cy="15" r="15" fill="#0092FF"/>
<path d="M15 6C10.0299 6 6 10.0299 6 15C6 19.9701 10.0299 24 15 24C19.9701 24 24 19.9701 24 15C24 10.0299 19.9701 6 15 6ZM15 20.2232C14.556 20.2232 14.1964 19.8636 14.1964 19.4196C14.1964 18.9757 14.556 18.6161 15 18.6161C15.444 18.6161 15.8036 18.9757 15.8036 19.4196C15.8036 19.8636 15.444 20.2232 15 20.2232ZM16.2636 15.8136C16.0817 15.8839 15.9251 16.0073 15.8144 16.1679C15.7037 16.3284 15.6439 16.5186 15.6429 16.7136V17.1696C15.6429 17.258 15.5705 17.3304 15.4821 17.3304H14.5179C14.4295 17.3304 14.3571 17.258 14.3571 17.1696V16.7377C14.3571 16.2737 14.4917 15.8156 14.7569 15.4339C15.0161 15.0603 15.3777 14.775 15.8036 14.6123C16.4866 14.3491 16.9286 13.7766 16.9286 13.1518C16.9286 12.2658 16.0627 11.5446 15 11.5446C13.9373 11.5446 13.0714 12.2658 13.0714 13.1518V13.3045C13.0714 13.3929 12.9991 13.4652 12.9107 13.4652H11.9464C11.858 13.4652 11.7857 13.3929 11.7857 13.3045V13.1518C11.7857 12.3623 12.1312 11.625 12.758 11.0766C13.3607 10.5482 14.1562 10.2589 15 10.2589C15.8438 10.2589 16.6393 10.5502 17.242 11.0766C17.8687 11.625 18.2143 12.3623 18.2143 13.1518C18.2143 14.3129 17.4489 15.3576 16.2636 15.8136Z" fill="white"/>
</svg>
