<svg width="30" height="30" viewBox="0 0 30 30" fill="none" xmlns="http://www.w3.org/2000/svg">
<circle cx="15" cy="15" r="15" fill="#0092FF"/>
<circle cx="15" cy="15" r="9" fill="white"/>
<path d="M16.226 10L16.002 16.762H14.35L14.112 10H16.226ZM15.218 20.038C14.8633 20.038 14.5693 19.9307 14.336 19.716C14.112 19.492 14 19.2167 14 18.89C14 18.5633 14.112 18.2927 14.336 18.078C14.5693 17.854 14.8633 17.742 15.218 17.742C15.5633 17.742 15.848 17.854 16.072 18.078C16.296 18.2927 16.408 18.5633 16.408 18.89C16.408 19.2167 16.296 19.492 16.072 19.716C15.848 19.9307 15.5633 20.038 15.218 20.038Z" fill="#0092FF"/>
</svg>
