<svg width="30" height="30" viewBox="0 0 30 30" fill="none" xmlns="http://www.w3.org/2000/svg">
<circle cx="15" cy="15" r="15" fill="#D30A0A"/>
<path fill-rule="evenodd" clip-rule="evenodd" d="M13.7827 14.7602C13.4623 14.7602 13.2089 15.0093 13.2089 15.3242C13.2089 15.6318 13.4623 15.8882 13.7827 15.8882H18.2539V19.3891C18.2539 21.1835 16.7709 22.6484 14.9378 22.6484H11.3087C9.48294 22.6484 8 21.1909 8 19.3964V11.2593C8 9.45751 9.49039 8 11.3161 8H14.9527C16.7709 8 18.2539 9.45751 18.2539 11.2519V14.7602H13.7827ZM20.9127 12.7902L23.0513 14.9215C23.1612 15.0314 23.2198 15.1706 23.2198 15.3244C23.2198 15.4709 23.1612 15.6173 23.0513 15.7199L20.9127 17.8512C20.8028 17.9611 20.6563 18.0197 20.5172 18.0197C20.3707 18.0197 20.2242 17.9611 20.1143 17.8512C19.8946 17.6315 19.8946 17.2726 20.1143 17.0529L21.2862 15.8883H18.254V14.7604H21.2862L20.1143 13.5959C19.8946 13.3761 19.8946 13.0173 20.1143 12.7975C20.3341 12.5705 20.6929 12.5705 20.9127 12.7902Z" fill="white"/>
</svg>
