<svg width="29" height="29" viewBox="0 0 29 29" fill="none" xmlns="http://www.w3.org/2000/svg">
<path d="M14.5005 6.59091C16.5981 6.59091 18.6098 7.42419 20.0931 8.90743C21.5763 10.3907 22.4096 12.4024 22.4096 14.5C22.4096 17.4264 20.8146 19.9836 18.455 21.3545V23.7273C18.455 24.0769 18.3162 24.4122 18.0689 24.6594C17.8217 24.9066 17.4865 25.0455 17.1369 25.0455H11.8641C11.5145 25.0455 11.1792 24.9066 10.932 24.6594C10.6848 24.4122 10.5459 24.0769 10.5459 23.7273V21.3545C8.1864 19.9836 6.5914 17.4264 6.5914 14.5C6.5914 12.4024 7.42467 10.3907 8.90792 8.90743C10.3912 7.42419 12.4029 6.59091 14.5005 6.59091ZM17.1369 26.3636V27.6818C17.1369 28.0314 16.998 28.3667 16.7508 28.6139C16.5036 28.8611 16.1683 29 15.8187 29H13.1823C12.8327 29 12.4974 28.8611 12.2502 28.6139C12.003 28.3667 11.8641 28.0314 11.8641 27.6818V26.3636H17.1369ZM25.0459 13.1818H29.0005V15.8182H25.0459V13.1818ZM0.000488281 13.1818H3.95503V15.8182H0.000488281V13.1818ZM15.8187 0V3.95455H13.1823V0H15.8187ZM5.16776 3.29545L7.97549 6.11636L6.10367 7.975L3.29594 5.18045L5.16776 3.29545ZM21.0255 6.10318L23.82 3.29545L25.705 5.18045L22.8973 7.975L21.0255 6.10318Z" fill="url(#paint0_linear_32_805)"/>
<defs>
<linearGradient id="paint0_linear_32_805" x1="0.000488388" y1="14" x2="17.5005" y2="14" gradientUnits="userSpaceOnUse">
<stop stop-color="#0092FF"/>
<stop offset="1" stop-color="#A858E1"/>
</linearGradient>
</defs>
</svg>
