<svg width="16" height="18" viewBox="0 0 16 18" fill="none" xmlns="http://www.w3.org/2000/svg">
<path d="M15.08 1.93385C13.86 0.671775 11.8942 0.641702 10.4534 1.98214C10.626 2.04292 10.7969 2.11003 10.9658 2.18396C11.8724 2.58062 12.6864 3.14839 13.3854 3.87142C14.0843 4.59445 14.6331 5.43655 15.0165 6.37442C15.0505 6.45747 15.0825 6.5411 15.1135 6.625C16.3274 5.14407 16.2743 3.1693 15.08 1.93385Z" fill="#A858E1"/>
<path d="M14.9618 9.43996C14.9618 5.46386 11.846 2.2406 8.00244 2.2406C4.15888 2.2406 1.04303 5.46386 1.04303 9.43996C1.04303 11.7927 2.13408 13.8816 3.82121 15.1953C2.89922 16.2983 2.38268 17.2411 2.61505 17.4815L2.61508 17.4815C2.86715 17.7421 3.91734 17.0919 5.09766 15.9837C5.98176 16.4043 6.96551 16.6393 8.00241 16.6393C9.0393 16.6393 10.0231 16.4043 10.9072 15.9837C12.0875 17.0919 13.1377 17.7421 13.3898 17.4815L13.3898 17.4815C13.6222 17.2411 13.1056 16.2983 12.1836 15.1953C13.8707 13.8816 14.9618 11.7927 14.9618 9.43996ZM11.5101 14.4394C11.2856 14.6101 11.049 14.765 10.8019 14.9022C9.96805 15.3651 9.01497 15.6279 8.00244 15.6279C6.98988 15.6279 6.03676 15.3651 5.20296 14.9022C4.95583 14.765 4.71932 14.6101 4.49473 14.4394C3.02661 13.323 2.07352 11.5241 2.07352 9.49463C2.07352 6.10725 4.72797 3.36123 8.00244 3.36123C11.2769 3.36123 13.9314 6.10725 13.9314 9.49463C13.9314 11.524 12.9783 13.323 11.5101 14.4394Z" fill="#A858E1"/>
<path d="M5.03902 2.18393C5.20684 2.1105 5.37663 2.0438 5.54801 1.98335C4.10713 0.641668 2.14048 0.671369 0.920075 1.93385C-0.275239 3.17042 -0.327337 5.14758 0.889764 6.62892C0.921284 6.54367 0.953751 6.45872 0.988244 6.37439C1.37171 5.43652 1.92052 4.59441 2.61942 3.87138C3.31838 3.14835 4.13242 2.58062 5.03902 2.18393Z" fill="#A858E1"/>
<path d="M11.7329 5.63552C10.7364 4.60473 9.41159 4.03703 8.00239 4.03703C6.5932 4.03703 5.26838 4.60473 4.27195 5.63552C3.27552 6.66631 2.72675 8.03681 2.72675 9.4946C2.72675 10.9524 3.27549 12.3229 4.27195 13.3536C5.26838 14.3844 6.5932 14.9521 8.00239 14.9521C9.41159 14.9521 10.7364 14.3844 11.7329 13.3536C12.7293 12.3229 13.2781 10.9524 13.2781 9.4946C13.2781 8.03681 12.7293 6.66631 11.7329 5.63552ZM11.1974 9.79864H8.71168C8.56946 10.0621 8.29744 10.2403 7.98502 10.2403C7.52561 10.2403 7.15315 9.85504 7.15315 9.37975C7.15315 9.00229 7.38819 8.68179 7.71505 8.56579V5.48303C7.71505 5.32881 7.83591 5.20376 7.98502 5.20376C8.13409 5.20376 8.25498 5.32878 8.25498 5.48303V8.56576C8.45014 8.63503 8.61248 8.77711 8.71168 8.96083H11.1974C11.421 8.96083 11.6023 9.14836 11.6023 9.37972C11.6023 9.61107 11.421 9.79864 11.1974 9.79864Z" fill="#A858E1"/>
</svg>
