<svg width="15" height="15" viewBox="0 0 15 15" fill="none" xmlns="http://www.w3.org/2000/svg">
<path d="M6.58907 2.5611H9.38907C9.38907 2.17298 9.24157 1.80075 8.97902 1.52631C8.71647 1.25186 8.36038 1.09768 7.98907 1.09768C7.61777 1.09768 7.26168 1.25186 6.99913 1.52631C6.73657 1.80075 6.58907 2.17298 6.58907 2.5611ZM5.53907 2.5611C5.53907 2.22479 5.60245 1.89177 5.72557 1.58106C5.84869 1.27034 6.02916 0.988023 6.25666 0.750215C6.48417 0.512406 6.75425 0.323766 7.0515 0.195065C7.34875 0.0663637 7.66734 0.00012207 7.98907 0.00012207C8.31081 0.00012207 8.6294 0.0663637 8.92665 0.195065C9.2239 0.323766 9.49398 0.512406 9.72149 0.750215C9.94899 0.988023 10.1295 1.27034 10.2526 1.58106C10.3757 1.89177 10.4391 2.22479 10.4391 2.5611H14.4641C14.6033 2.5611 14.7368 2.61892 14.8353 2.72183C14.9338 2.82475 14.9891 2.96433 14.9891 3.10988C14.9891 3.25542 14.9338 3.39501 14.8353 3.49792C14.7368 3.60084 14.6033 3.65866 14.4641 3.65866H13.5401L12.7211 12.5204C12.6582 13.1994 12.3557 13.8296 11.8725 14.288C11.3892 14.7465 10.7599 15.0004 10.1073 15.0001H5.87087C5.21838 15.0002 4.58925 14.7463 4.10614 14.2878C3.62303 13.8293 3.32059 13.1992 3.25777 12.5204L2.43807 3.65866H1.51407C1.37484 3.65866 1.2413 3.60084 1.14284 3.49792C1.04439 3.39501 0.989075 3.25542 0.989075 3.10988C0.989075 2.96433 1.04439 2.82475 1.14284 2.72183C1.2413 2.61892 1.37484 2.5611 1.51407 2.5611H5.53907ZM6.93907 6.03671C6.93907 5.89116 6.88376 5.75158 6.78531 5.64866C6.68685 5.54575 6.55331 5.48793 6.41407 5.48793C6.27484 5.48793 6.1413 5.54575 6.04284 5.64866C5.94439 5.75158 5.88907 5.89116 5.88907 6.03671V11.5245C5.88907 11.6701 5.94439 11.8096 6.04284 11.9126C6.1413 12.0155 6.27484 12.0733 6.41407 12.0733C6.55331 12.0733 6.68685 12.0155 6.78531 11.9126C6.88376 11.8096 6.93907 11.6701 6.93907 11.5245V6.03671ZM9.56407 5.48793C9.42484 5.48793 9.2913 5.54575 9.19284 5.64866C9.09439 5.75158 9.03907 5.89116 9.03907 6.03671V11.5245C9.03907 11.6701 9.09439 11.8096 9.19284 11.9126C9.2913 12.0155 9.42484 12.0733 9.56407 12.0733C9.70331 12.0733 9.83685 12.0155 9.93531 11.9126C10.0338 11.8096 10.0891 11.6701 10.0891 11.5245V6.03671C10.0891 5.89116 10.0338 5.75158 9.93531 5.64866C9.83685 5.54575 9.70331 5.48793 9.56407 5.48793Z" fill="#D30A0A"/>
</svg>
