<svg width="29" height="30" viewBox="0 0 29 30" fill="none" xmlns="http://www.w3.org/2000/svg">
<path d="M11.6 5.12195H17.4C17.4 4.34571 17.0945 3.60126 16.5506 3.05237C16.0068 2.50348 15.2691 2.19512 14.5 2.19512C13.7309 2.19512 12.9932 2.50348 12.4494 3.05237C11.9055 3.60126 11.6 4.34571 11.6 5.12195ZM9.425 5.12195C9.425 4.44933 9.55627 3.78329 9.81131 3.16187C10.0664 2.54044 10.4402 1.9758 10.9114 1.50018C11.3827 1.02457 11.9422 0.647288 12.5579 0.389885C13.1736 0.132483 13.8335 0 14.5 0C15.1665 0 15.8264 0.132483 16.4421 0.389885C17.0578 0.647288 17.6173 1.02457 18.0886 1.50018C18.5598 1.9758 18.9336 2.54044 19.1887 3.16187C19.4437 3.78329 19.575 4.44933 19.575 5.12195H27.9125C28.2009 5.12195 28.4775 5.23759 28.6815 5.44342C28.8854 5.64925 29 5.92842 29 6.21951C29 6.5106 28.8854 6.78977 28.6815 6.99561C28.4775 7.20144 28.2009 7.31707 27.9125 7.31707H25.9985L24.302 25.0405C24.1719 26.3985 23.5452 27.6589 22.5441 28.5758C21.5431 29.4928 20.2395 30.0005 18.8877 30H10.1123C8.7607 30.0002 7.4575 29.4923 6.45678 28.5754C5.45606 27.6584 4.82956 26.3983 4.69945 25.0405L3.0015 7.31707H1.0875C0.799077 7.31707 0.522467 7.20144 0.318521 6.99561C0.114575 6.78977 0 6.5106 0 6.21951C0 5.92842 0.114575 5.64925 0.318521 5.44342C0.522467 5.23759 0.799077 5.12195 1.0875 5.12195H9.425ZM12.325 12.0732C12.325 11.7821 12.2104 11.5029 12.0065 11.2971C11.8025 11.0912 11.5259 10.9756 11.2375 10.9756C10.9491 10.9756 10.6725 11.0912 10.4685 11.2971C10.2646 11.5029 10.15 11.7821 10.15 12.0732V23.0488C10.15 23.3399 10.2646 23.619 10.4685 23.8249C10.6725 24.0307 10.9491 24.1463 11.2375 24.1463C11.5259 24.1463 11.8025 24.0307 12.0065 23.8249C12.2104 23.619 12.325 23.3399 12.325 23.0488V12.0732ZM17.7625 10.9756C17.4741 10.9756 17.1975 11.0912 16.9935 11.2971C16.7896 11.5029 16.675 11.7821 16.675 12.0732V23.0488C16.675 23.3399 16.7896 23.619 16.9935 23.8249C17.1975 24.0307 17.4741 24.1463 17.7625 24.1463C18.0509 24.1463 18.3275 24.0307 18.5315 23.8249C18.7354 23.619 18.85 23.3399 18.85 23.0488V12.0732C18.85 11.7821 18.7354 11.5029 18.5315 11.2971C18.3275 11.0912 18.0509 10.9756 17.7625 10.9756Z" fill="#D30A0A"/>
</svg>
