<svg width="4" height="15" viewBox="0 0 4 15" fill="none" xmlns="http://www.w3.org/2000/svg">
<g opacity="0.21">
<path d="M-8.74227e-08 7.5C-1.04713e-07 7.89556 0.117298 8.28224 0.337061 8.61114C0.556824 8.94004 0.869181 9.19638 1.23463 9.34776C1.60009 9.49913 2.00222 9.53874 2.39018 9.46157C2.77814 9.3844 3.13451 9.19392 3.41421 8.91421C3.69392 8.63451 3.8844 8.27814 3.96157 7.89018C4.03874 7.50222 3.99913 7.10009 3.84776 6.73463C3.69638 6.36918 3.44004 6.05682 3.11114 5.83706C2.78224 5.6173 2.39556 5.5 2 5.5C1.4698 5.50075 0.961526 5.71171 0.586616 6.08662C0.211706 6.46153 0.000751109 6.9698 -8.74227e-08 7.5Z" fill="#172239"/>
<path d="M-8.74228e-08 13C-1.04713e-07 13.3956 0.117298 13.7822 0.337061 14.1111C0.556824 14.44 0.869181 14.6964 1.23463 14.8478C1.60009 14.9991 2.00222 15.0387 2.39018 14.9616C2.77814 14.8844 3.13451 14.6939 3.41421 14.4142C3.69392 14.1345 3.8844 13.7781 3.96157 13.3902C4.03874 13.0022 3.99913 12.6001 3.84776 12.2346C3.69638 11.8692 3.44004 11.5568 3.11114 11.3371C2.78224 11.1173 2.39556 11 2 11C1.4698 11.0008 0.961526 11.2117 0.586616 11.5866C0.211706 11.9615 0.000751109 12.4698 -8.74228e-08 13Z" fill="#172239"/>
<path d="M-8.74227e-08 2C-1.04713e-07 2.39556 0.117298 2.78224 0.337061 3.11114C0.556824 3.44004 0.869181 3.69638 1.23463 3.84776C1.60009 3.99913 2.00222 4.03874 2.39018 3.96157C2.77814 3.8844 3.13451 3.69392 3.41421 3.41421C3.69392 3.13451 3.8844 2.77814 3.96157 2.39018C4.03874 2.00222 3.99913 1.60009 3.84776 1.23463C3.69638 0.869181 3.44004 0.556823 3.11114 0.337061C2.78224 0.117298 2.39556 1.04713e-07 2 8.74228e-08C1.4698 0.000751237 0.961526 0.211706 0.586616 0.586616C0.211706 0.961526 0.000751109 1.4698 -8.74227e-08 2Z" fill="#172239"/>
</g>
</svg>
