<svg width="14" height="15" viewBox="0 0 14 15" fill="none" xmlns="http://www.w3.org/2000/svg">
<g clip-path="url(#clip0_71_76)">
<path d="M11.6667 9.67167H10.1582L14 13.646V0.869776L10.1582 4.84411H11.6667C11.9892 4.84411 12.25 5.11444 12.25 5.44754C12.25 5.78065 11.9892 6.05098 11.6667 6.05098H8.75C8.67418 6.05098 8.59832 6.03469 8.52718 6.00451C8.38425 5.94355 8.2705 5.82588 8.2116 5.67805C8.18243 5.60442 8.16668 5.52598 8.16668 5.44754V2.43029C8.16668 2.09719 8.42743 1.82685 8.75 1.82685C9.07257 1.82685 9.33332 2.09719 9.33332 2.43029V3.99081L13.1752 0.01651H0.824824L4.66665 3.99081V2.43029C4.66668 2.09719 4.92743 1.82685 5.25 1.82685C5.57257 1.82685 5.83332 2.09719 5.83332 2.43029V5.44754C5.83332 5.52598 5.81815 5.60445 5.7884 5.67805C5.72947 5.82591 5.61572 5.94358 5.47282 6.00451C5.40165 6.03469 5.32582 6.05098 5.25 6.05098H2.33332C2.01075 6.05098 1.75 5.78065 1.75 5.44754C1.75 5.11444 2.01075 4.84411 2.33332 4.84411H3.84182L0 0.869776V13.646L3.84182 9.67167H2.33332C2.01075 9.67167 1.75 9.40134 1.75 9.06823C1.75 8.73513 2.01075 8.4648 2.33332 8.4648H5.25C5.32582 8.4648 5.40168 8.48109 5.47282 8.51127C5.61575 8.57223 5.7295 8.6899 5.7884 8.83773C5.81815 8.91136 5.83332 8.9898 5.83332 9.06823V12.0855C5.83332 12.4186 5.57257 12.6889 5.25 12.6889C4.92743 12.6889 4.66668 12.4186 4.66668 12.0855V10.525L0.824824 14.4993H13.1751L9.33332 10.525V12.0855C9.33332 12.4186 9.07257 12.6889 8.75 12.6889C8.42743 12.6889 8.16668 12.4186 8.16668 12.0855V9.06823C8.16668 8.9898 8.18243 8.91133 8.2116 8.83773C8.27053 8.68987 8.38428 8.5722 8.52718 8.51127C8.59835 8.48109 8.67418 8.4648 8.75 8.4648H11.6667C11.9892 8.4648 12.25 8.73513 12.25 9.06823C12.25 9.40134 11.9892 9.67167 11.6667 9.67167ZM8.16668 7.86133C8.16668 8.19443 7.90535 8.46477 7.58335 8.46477H6.41668C6.09468 8.46477 5.83335 8.19443 5.83335 7.86133V6.65442C5.83335 6.32132 6.09468 6.05098 6.41668 6.05098H7.58335C7.90535 6.05098 8.16668 6.32132 8.16668 6.65442V7.86133V7.86133Z" fill="#A858E1"/>
</g>
<defs>
<clipPath id="clip0_71_76">
<rect width="14" height="14.4828" fill="white" transform="translate(0 0.01651)"/>
</clipPath>
</defs>
</svg>
