<svg width="13" height="16" viewBox="0 0 13 16" fill="none" xmlns="http://www.w3.org/2000/svg">
<path d="M6.5 5.62531C7.88071 5.62531 9 4.50602 9 3.12531C9 1.74459 7.88071 0.625305 6.5 0.625305C5.11929 0.625305 4 1.74459 4 3.12531C4 4.50602 5.11929 5.62531 6.5 5.62531Z" fill="#A858E1"/>
<path d="M12.987 13.3113C12.8842 12.6123 12.2638 12.3461 11.2184 12.2143C10.4853 12.7674 9.25506 13.1898 7.20506 13.1898C6.9213 13.1898 6.64726 13.1304 6.40151 13.0164C6.15576 13.1304 5.88172 13.1898 5.59766 13.1898C3.56667 13.1898 2.34027 12.7749 1.60493 12.2294C0.664941 12.3818 0.1092 12.6604 0.0128439 13.3112C-0.0484468 13.7301 0.109937 14.141 0.459116 14.4686C1.44301 15.3918 4.13523 15.5448 5.65217 15.5537C5.65527 15.5537 5.65851 15.5537 5.66145 15.5537C5.98323 15.5537 6.27628 15.4538 6.49978 15.29C6.72314 15.4538 7.01633 15.5537 7.33796 15.5537C7.34105 15.5537 7.34415 15.5537 7.34724 15.5537C8.86433 15.5448 11.5566 15.3918 12.5407 14.4684C12.8904 14.1411 13.0483 13.7304 12.987 13.3113Z" fill="#A858E1"/>
<path d="M5.64283 12.8836C5.96343 12.8836 6.25014 12.7668 6.44654 12.5825C6.64293 12.7668 6.92979 12.8836 7.25009 12.8836C10.3304 12.8836 11.3196 11.8814 11.6073 11.0401C12.2803 9.07187 9.5784 6.77164 8.3383 6.14405C8.2552 6.10173 8.1665 6.07376 8.07663 6.05224C7.76944 5.88284 7.42395 5.7582 7.07226 5.68694L6.38466 6.25811L5.71783 5.68062C5.71576 5.6811 5.71355 5.68123 5.7112 5.68183C5.25859 5.77109 4.81762 5.94936 4.45282 6.19767C3.17382 6.89324 0.630408 9.1238 1.28545 11.0401C1.57319 11.8813 2.56254 12.8836 5.64283 12.8836ZM3.56028 9.69339V10.447C3.63232 10.4741 3.7829 10.5536 3.78408 10.5622C3.9099 10.6378 4.40951 10.7998 5.52408 10.7998C5.80814 10.7998 6.08218 10.8592 6.32793 10.9731C6.57368 10.8592 6.84772 10.7998 7.13149 10.7998C8.0591 10.7998 8.55959 10.6877 8.7747 10.6064C8.91997 10.5818 9.06524 10.5515 9.20889 10.5176V9.49177C9.48558 9.91191 9.63262 10.304 9.54496 10.5597C9.42812 10.902 8.54854 11.1148 7.24994 11.1148C6.92964 11.1148 6.64293 11.2315 6.44639 11.4159C6.24999 11.2315 5.96328 11.1148 5.64269 11.1148C4.34424 11.1148 3.46451 10.902 3.34768 10.5597C3.2746 10.3457 3.36594 10.0356 3.56028 9.69339Z" fill="#A858E1"/>
</svg>
