<svg width="15" height="18" viewBox="0 0 15 18" fill="none" xmlns="http://www.w3.org/2000/svg">
<path d="M13.5402 10.603C14.3463 10.603 14.9999 9.92691 14.9999 9.09293C14.9999 8.25895 14.3463 7.58287 13.5402 7.58287C12.734 7.58287 12.0804 8.25895 12.0804 9.09293C12.0804 9.92691 12.734 10.603 13.5402 10.603Z" fill="#A858E1"/>
<path d="M10.9348 0.790237C10.5657 0.790237 10.2664 1.09982 10.2664 1.48174V7.16797C10.2357 7.1679 7.79522 7.17286 5.90317 7.17661C5.19125 7.17801 4.53755 7.58524 4.20241 8.23503L0.100631 16.188C-0.121335 16.6186 0.0361631 17.1538 0.452416 17.3834C0.868826 17.613 1.38605 17.4499 1.60796 17.0194L5.01332 10.413L7.41674 16.9191C7.58524 17.3752 8.07914 17.6031 8.51947 17.429C8.9601 17.2548 9.1808 16.7441 9.01246 16.2883L7.06647 11.027H10.2664V16.796C10.2664 17.1779 10.5657 17.4875 10.9349 17.4875C11.304 17.4875 11.6033 17.1779 11.6033 16.796V1.48174C11.6033 1.09982 11.304 0.790237 10.9348 0.790237Z" fill="#A858E1"/>
</svg>
