<svg width="16" height="20" viewBox="0 0 16 20" fill="none" xmlns="http://www.w3.org/2000/svg">
<path d="M12.9721 5.38357L14.1204 4.20637C14.2185 4.1028 14.2729 3.96382 14.2718 3.81945C14.2708 3.67508 14.2144 3.53693 14.1148 3.43484C14.0153 3.33275 13.8805 3.27493 13.7397 3.27388C13.5989 3.27282 13.4634 3.32862 13.3623 3.4292L12.2141 4.6064C12.116 4.70997 12.0616 4.84895 12.0626 4.99332C12.0637 5.13769 12.1201 5.27584 12.2196 5.37793C12.3192 5.48002 12.4539 5.53784 12.5948 5.53889C12.7356 5.53995 12.8711 5.48415 12.9721 5.38357Z" fill="#A858E1"/>
<path d="M15.464 8.56523H14.3158C14.1736 8.56523 14.0373 8.62314 13.9367 8.72621C13.8362 8.82928 13.7797 8.96906 13.7797 9.11482C13.7797 9.26059 13.8362 9.40038 13.9367 9.50345C14.0373 9.60652 14.1736 9.66443 14.3158 9.66443H15.464C15.6062 9.66443 15.7425 9.60652 15.843 9.50345C15.9436 9.40038 16 9.26059 16 9.11482C16 8.96906 15.9436 8.82928 15.843 8.72621C15.7425 8.62314 15.6062 8.56523 15.464 8.56523Z" fill="#A858E1"/>
<path d="M8.5336 1.46267C8.5336 1.31691 8.47713 1.17711 8.3766 1.07404C8.27607 0.970975 8.13972 0.913071 7.99755 0.913071C7.85538 0.913071 7.71903 0.970975 7.6185 1.07404C7.51797 1.17711 7.46149 1.31691 7.46149 1.46267V2.63987C7.46149 2.78563 7.51797 2.92543 7.6185 3.0285C7.71903 3.13157 7.85538 3.18947 7.99755 3.18947C8.13972 3.18947 8.27607 3.13157 8.3766 3.0285C8.47713 2.92543 8.5336 2.78563 8.5336 2.63987V1.46267Z" fill="#A858E1"/>
<path d="M3.02785 5.38357C3.07735 5.43583 3.1365 5.47748 3.20184 5.50609C3.26719 5.53471 3.33743 5.54972 3.40848 5.55025C3.47954 5.55078 3.54998 5.53683 3.61573 5.50919C3.68147 5.48156 3.74121 5.44081 3.79145 5.38929C3.84169 5.33778 3.88145 5.27654 3.9084 5.20913C3.93535 5.14172 3.94896 5.0695 3.94844 4.99665C3.94792 4.9238 3.93328 4.85179 3.90537 4.78479C3.87746 4.7178 3.83684 4.65716 3.78587 4.6064L2.63768 3.4292C2.53666 3.32862 2.4011 3.27282 2.26029 3.27388C2.11948 3.27493 1.98473 3.33275 1.88516 3.43484C1.78559 3.53693 1.72919 3.67508 1.72816 3.81945C1.72713 3.96382 1.78155 4.1028 1.87966 4.20637L3.02785 5.38357Z" fill="#A858E1"/>
<path d="M2.22031 9.11482C2.22031 8.96906 2.16383 8.82928 2.0633 8.72621C1.96277 8.62314 1.82642 8.56523 1.68425 8.56523H0.536057C0.393885 8.56523 0.257537 8.62314 0.157007 8.72621C0.0564772 8.82928 0 8.96906 0 9.11482C0 9.26059 0.0564772 9.40038 0.157007 9.50345C0.257537 9.60652 0.393885 9.66443 0.536057 9.66443H1.68425C1.82642 9.66443 1.96277 9.60652 2.0633 9.50345C2.16383 9.40038 2.22031 9.26059 2.22031 9.11482Z" fill="#A858E1"/>
<path d="M5.16579 12.0288C5.16733 11.5572 5.27405 11.0921 5.47779 10.6692L7.15925 7.22558C7.35766 6.81588 7.46132 6.36481 7.46218 5.9074C7.46364 5.46397 7.29666 5.03739 6.99662 4.71803L6.54781 4.25788C6.50777 4.21683 6.45879 4.18611 6.40491 4.16827C6.35102 4.15043 6.29377 4.14598 6.23787 4.15527C6.18197 4.16457 6.12903 4.18734 6.08341 4.22173C6.03779 4.25612 6.00078 4.30114 5.97546 4.35306L2.92524 10.6076C2.88807 10.6838 2.86871 10.7679 2.8687 10.8531V15.0402L1.56346 16.3784C1.46296 16.4815 1.40649 16.6213 1.40649 16.767C1.40649 16.9127 1.46296 17.0525 1.56346 17.1556L3.85985 19.51C3.96038 19.613 4.09671 19.6709 4.23886 19.6709C4.38101 19.6709 4.51734 19.613 4.61787 19.51L6.77815 17.2915C6.99565 17.07 7.16807 16.8064 7.28537 16.516C7.40268 16.2256 7.46254 15.9141 7.46148 15.5998V10.974C7.46157 10.9535 7.4577 10.9331 7.4501 10.9141C7.44249 10.8951 7.4313 10.8778 7.41716 10.8632C7.40302 10.8487 7.38622 10.8371 7.36771 10.8292C7.3492 10.8214 7.32936 10.8173 7.30932 10.8173C7.02497 10.8173 6.75228 10.9331 6.55122 11.1392C6.35016 11.3454 6.2372 11.625 6.2372 11.9165V13.8279C6.23719 13.9023 6.22245 13.9759 6.19387 14.0443C6.16529 14.1127 6.12346 14.1744 6.07092 14.2257C6.01839 14.2771 5.95624 14.3169 5.88824 14.3429C5.82024 14.3688 5.7478 14.3804 5.67532 14.3768C5.53597 14.3675 5.4054 14.3037 5.31049 14.1987C5.21558 14.0937 5.16354 13.9553 5.16509 13.8122V12.0288H5.16579Z" fill="#A858E1"/>
<path d="M13.1292 15.0402V10.8531C13.1292 10.7679 13.1098 10.6838 13.0726 10.6076L10.0245 4.35306C9.99918 4.30114 9.96218 4.25612 9.91656 4.22173C9.87093 4.18734 9.81799 4.16457 9.76209 4.15527C9.7062 4.14598 9.64895 4.15043 9.59506 4.16827C9.54118 4.18611 9.49219 4.21683 9.45215 4.25788L9.00335 4.71803C8.70337 5.03743 8.5364 5.46399 8.53779 5.9074C8.53865 6.36481 8.64231 6.81588 8.84072 7.22558L10.5222 10.6692C10.7258 11.0921 10.8326 11.5572 10.8342 12.0288V13.8093C10.8357 13.9525 10.7837 14.0908 10.6888 14.1958C10.5939 14.3009 10.4633 14.3646 10.324 14.3739C10.2518 14.377 10.1797 14.3651 10.1121 14.3389C10.0445 14.3127 9.98279 14.2728 9.93063 14.2215C9.87847 14.1703 9.83696 14.1087 9.80859 14.0406C9.78023 13.9725 9.76559 13.8991 9.76556 13.8251V11.9136C9.76556 11.6221 9.65261 11.3425 9.45155 11.1364C9.25049 10.9302 8.97779 10.8144 8.69345 10.8144C8.65291 10.8144 8.61402 10.8309 8.58535 10.8603C8.55669 10.8897 8.54058 10.9296 8.54058 10.9712V15.6041C8.53965 15.9185 8.59964 16.2299 8.71707 16.5203C8.83449 16.8107 9.00702 17.0743 9.22462 17.2958L11.3849 19.5143C11.4854 19.6173 11.6218 19.6752 11.7639 19.6752C11.9061 19.6752 12.0424 19.6173 12.1429 19.5143L14.4393 17.1599C14.5398 17.0568 14.5963 16.917 14.5963 16.7713C14.5963 16.6255 14.5398 16.4858 14.4393 16.3827L13.1292 15.0402Z" fill="#A858E1"/>
</svg>
