<svg width="17" height="16" viewBox="0 0 17 16" fill="none" xmlns="http://www.w3.org/2000/svg">
<path d="M9.985 8.98786L16.0025 8.99486C16.2663 8.99486 16.5193 8.89006 16.7059 8.70351C16.8925 8.51696 16.9973 8.26394 16.9973 8.00012C16.9973 7.7363 16.8925 7.48328 16.7059 7.29673C16.5193 7.11018 16.2663 7.00537 16.0025 7.00537L9.985 7.01238L9.992 0.994868C9.992 0.731045 9.8872 0.478027 9.70065 0.291476C9.5141 0.104925 9.26108 0.00012207 8.99726 0.00012207C8.73343 0.00012207 8.48042 0.104925 8.29387 0.291476C8.10731 0.478027 8.00251 0.731045 8.00251 0.994868L8.00952 7.01238L1.99201 7.00537C1.86122 7.00484 1.73163 7.0302 1.6107 7.08C1.48977 7.1298 1.3799 7.20305 1.28742 7.29553C1.19494 7.38801 1.12169 7.49788 1.07189 7.61881C1.02209 7.73974 0.996726 7.86934 0.997262 8.00012C0.996726 8.1309 1.02209 8.26049 1.07189 8.38142C1.12169 8.50235 1.19494 8.61223 1.28742 8.70471C1.3799 8.79718 1.48977 8.87043 1.6107 8.92024C1.73163 8.97004 1.86123 8.9954 1.99201 8.99486L8.00952 8.98786L8.00251 15.0054C8.00198 15.1362 8.02734 15.2657 8.07714 15.3867C8.12694 15.5076 8.20019 15.6175 8.29267 15.71C8.38515 15.8024 8.49502 15.8757 8.61595 15.9255C8.73688 15.9753 8.86648 16.0006 8.99726 16.0001C9.12804 16.0006 9.25763 15.9753 9.37856 15.9255C9.49949 15.8757 9.60937 15.8024 9.70184 15.71C9.79432 15.6175 9.86757 15.5076 9.91738 15.3867C9.96718 15.2657 9.99254 15.1362 9.992 15.0054L9.985 8.98786Z" fill="#A858E1"/>
</svg>
