<svg width="13" height="16" viewBox="0 0 13 16" fill="none" xmlns="http://www.w3.org/2000/svg">
<path d="M7.93447 12.0036C8.90576 12.2992 9.76341 12.4875 10.9957 12.8239C10.5223 18.1392 4.86596 16.0283 7.93447 12.0036ZM12.9847 7.12093C12.9209 5.52499 12.6046 3.43147 10.0847 3.75951C8.90349 4.03344 8.03071 5.18618 7.62022 7.17503C7.39477 8.26855 7.52587 9.80346 7.79181 10.7236C8.03462 11.372 7.95204 11.3321 8.21302 11.4552C9.22312 11.6574 10.2231 11.8813 11.2414 12.1095C12.2759 11.4604 13.1255 8.01405 12.9847 7.12093ZM5.2083 6.99844C5.47402 6.07822 5.60512 4.54331 5.37978 3.44991C4.9696 1.46097 4.09672 0.308041 2.91528 0.0342958C0.395447 -0.293738 0.0791018 1.79975 0.0153156 3.39578C-0.125496 4.28875 0.724229 7.73528 1.75881 8.3843C2.77705 8.15606 3.77688 7.93242 4.78729 7.73003C5.04796 7.60702 4.96538 7.64685 5.2083 6.99844ZM2.00421 9.09891C2.47744 14.4141 8.13376 12.3032 5.06532 8.27861C4.09403 8.57421 3.23645 8.76243 2.00421 9.09891Z" fill="#A858E1"/>
</svg>
