<svg width="14" height="16" viewBox="0 0 14 16" fill="none" xmlns="http://www.w3.org/2000/svg">
<path d="M11.5388 5.28272V1.10322C11.5388 0.764692 11.2735 0.49025 10.9462 0.49025H0.592533C0.265294 0.49025 0 0.764692 0 1.10322V14.8863C0 15.2248 0.265294 15.4993 0.592533 15.4993H10.9463C11.2735 15.4993 11.5388 15.2248 11.5388 14.8863V9.5952L13.0564 8.02527L13.0565 8.02524C14.1968 6.84545 13.0915 4.86828 11.5388 5.28272ZM2.40975 2.78754H9.12909C9.45633 2.78754 9.72165 3.06198 9.72165 3.40053C9.72165 3.73908 9.45636 4.0135 9.12909 4.0135H2.40975C2.08251 4.0135 1.81722 3.73905 1.81722 3.40053C1.81722 3.06201 2.08251 2.78754 2.40975 2.78754ZM2.40975 4.889H7.55022C7.87746 4.889 8.14275 5.16344 8.14275 5.50197C8.14275 5.84049 7.87746 6.11496 7.55022 6.11496H2.40975C2.08251 6.11496 1.81722 5.84052 1.81722 5.50197C1.81722 5.16341 2.08251 4.889 2.40975 4.889ZM2.40975 6.99044H7.55022C7.87746 6.99044 8.14275 7.26488 8.14275 7.6034C8.14275 7.94193 7.87746 8.21637 7.55022 8.21637H2.40975C2.08251 8.21637 1.81722 7.94193 1.81722 7.6034C1.81722 7.26488 2.08251 6.99044 2.40975 6.99044ZM2.40975 10.3179C2.08251 10.3179 1.81722 10.0434 1.81722 9.7049C1.81722 9.36638 2.08251 9.09193 2.40975 9.09193H4.90349C5.23073 9.09193 5.49602 9.36638 5.49602 9.7049C5.49602 10.0434 5.23073 10.3179 4.90349 10.3179H2.40975ZM6.90101 13.6539L5.87013 13.8622C5.45726 13.9455 5.09459 13.569 5.17505 13.1431L5.37632 12.0767C5.40662 11.9161 5.59801 11.8557 5.70986 11.9714L7.00286 13.309C7.11468 13.4246 7.05625 13.6226 6.90101 13.6539ZM12.2185 7.15835C11.2284 8.18251 8.50686 10.9979 7.61985 11.9155L7.05664 11.3328C7.26135 11.1211 11.2559 6.98871 11.655 6.57593C12.0269 6.19165 12.5916 6.77234 12.2185 7.15835Z" fill="#A858E1"/>
</svg>
