<svg width="12" height="12" viewBox="0 0 12 12" fill="none" xmlns="http://www.w3.org/2000/svg">
<path fill-rule="evenodd" clip-rule="evenodd" d="M6.00009 12.0002C2.68804 12.0002 0 9.31814 0 6.00009C0 2.68804 2.68804 0 6.00009 0C9.31814 0 12.0002 2.68804 12.0002 6.00009C12.0002 9.31814 9.31814 12.0002 6.00009 12.0002ZM7.91397 8.22612C7.98597 8.26812 8.06397 8.29212 8.14797 8.29212C8.29798 8.29212 8.44798 8.21412 8.53198 8.07012C8.65798 7.86012 8.59198 7.58411 8.37598 7.45211L6.23995 6.18009V3.40805C6.23995 3.15604 6.03594 2.95804 5.78994 2.95804C5.54393 2.95804 5.33993 3.15604 5.33993 3.40805V6.43809C5.33993 6.5941 5.42393 6.7381 5.56193 6.8221L7.91397 8.22612Z" fill="#0092FF"/>
</svg>
