<svg width="16" height="16" viewBox="0 0 16 16" fill="none" xmlns="http://www.w3.org/2000/svg">
<path d="M9.275 0.275986C8.2174 0.275986 7.1648 1.682 6.9 1.682H5.325C4.5986 1.682 4 2.32498 4 3.11357C4 3.50787 4.1374 3.87844 4.375 4.13612C4.6126 4.39462 4.9626 4.54514 5.325 4.54514H6.9C7.1648 4.54514 8.2174 5.97672 9.275 5.97672H13.375C14.8262 5.97672 16 4.69076 16 3.11357C16.0008 2.32498 15.7002 1.61021 15.225 1.09403C14.749 0.577025 14.1006 0.275986 13.375 0.275986H9.275ZM9.2 1.88651H9.6V2.70455H8.075C8.2398 2.22927 8.6784 1.88651 9.2 1.88651ZM10.4 1.88651H11.2V2.70455H10.4V1.88651ZM12 1.88651H13.2C13.8624 1.88651 14.4 2.43623 14.4 3.11357C14.4 3.79091 13.8624 4.34063 13.2 4.34063H9.2C8.6784 4.34063 8.2398 3.99787 8.075 3.52259H12.8V2.70455H12V1.88651ZM0.8 4.34063C0.3584 4.34063 0 4.70712 0 5.15868V15.7932H1.6V14.9752C1.6 14.5236 1.9584 14.1571 2.4 14.1571H13.6C14.0416 14.1571 14.4 14.5236 14.4 14.9752V15.7932H16V11.703H1.6V5.15868C1.6 4.70712 1.2416 4.34063 0.8 4.34063ZM4.05 7.6128C3.1666 7.5912 2.42113 8.29443 2.4 9.19776C2.37887 10.1011 3.0666 10.8634 3.95 10.885C4.8334 10.9066 5.57887 10.2033 5.6 9.30002C5.62113 8.39669 4.9334 7.63441 4.05 7.6128ZM6.4 7.6128V10.885H16V9.24889C16 8.34495 15.284 7.6128 14.4 7.6128H6.4Z" fill="#0092FF"/>
</svg>
