<svg width="13" height="12" viewBox="0 0 13 12" fill="none" xmlns="http://www.w3.org/2000/svg">
<path d="M6.5 8.98941C5.98283 8.98941 5.48684 8.77085 5.12114 8.38181C4.75545 7.99276 4.55 7.46511 4.55 6.91493C4.55 6.14046 4.9465 5.46279 5.525 5.11013L11.8365 1.22394L8.242 7.84844C7.917 8.52611 7.2605 8.98941 6.5 8.98941ZM6.5 0C7.6765 0 8.775 0.345746 9.7305 0.912771L8.3655 1.74948C7.8 1.51437 7.15 1.38299 6.5 1.38299C5.12088 1.38299 3.79824 1.96581 2.82305 3.00325C1.84786 4.04069 1.3 5.44776 1.3 6.91493C1.3 8.44313 1.8785 9.82611 2.821 10.8219H2.8275C3.081 11.0915 3.081 11.5272 2.8275 11.7969C2.574 12.0665 2.158 12.0665 1.9045 11.8038C1.29999 11.1625 0.820537 10.4005 0.493701 9.56152C0.166866 8.72253 -0.000913729 7.82311 3.7425e-06 6.91493C3.7425e-06 5.08097 0.684823 3.32214 1.90381 2.02534C3.1228 0.728535 4.77609 0 6.5 0ZM13 6.91493C13 8.82345 12.272 10.5522 11.0955 11.8038C10.842 12.0665 10.4325 12.0665 10.179 11.7969C10.1187 11.7329 10.0709 11.6569 10.0383 11.5733C10.0057 11.4896 9.98891 11.3999 9.98891 11.3094C9.98891 11.2188 10.0057 11.1291 10.0383 11.0455C10.0709 10.9618 10.1187 10.8858 10.179 10.8219C10.6624 10.3097 11.0457 9.70077 11.3068 9.0302C11.5678 8.35964 11.7015 7.64072 11.7 6.91493C11.7 6.22343 11.5765 5.53194 11.349 4.9096L12.1355 3.45746C12.675 4.4947 13 5.65641 13 6.91493Z" fill="#A858E1"/>
</svg>
