<svg width="16" height="17" viewBox="0 0 16 17" fill="none" xmlns="http://www.w3.org/2000/svg">
<path d="M15.4881 0.432877H6.98271C6.69975 0.432877 6.47089 0.670371 6.47089 0.962657V4.6994L6.84095 4.2518C7.01668 4.039 7.24835 3.90777 7.49457 3.85294V1.49223H14.9762V8.40979H7.49461V7.2518L7.26411 7.53063C7.06268 7.77377 6.77834 7.92465 6.47089 7.95438V8.9394C6.47089 9.23168 6.69975 9.46887 6.98271 9.46887H9.74501L8.34165 16.0599C8.27877 16.3555 8.45934 16.6478 8.74529 16.713C9.02865 16.7774 9.31358 16.5912 9.37586 16.296L10.8293 9.46891H11.6743L13.1278 16.296C13.1822 16.5515 13.4014 16.726 13.6444 16.7257C13.6822 16.7257 13.7207 16.7217 13.7589 16.713C14.0449 16.6478 14.2254 16.3555 14.162 16.0599L12.7588 9.46887H15.4881C15.7708 9.46887 15.9999 9.23168 15.9999 8.9394V0.962657C15.9999 0.670371 15.7708 0.432877 15.4881 0.432877Z" fill="#0092FF"/>
<path d="M11.4223 3.52622C11.382 3.42103 11.2676 3.36939 11.166 3.41102L8.1505 4.51208C7.87374 4.29041 7.47445 4.33002 7.24366 4.60769L6.2868 5.76365L5.43835 5.01129C5.44395 5.07342 5.45666 5.13379 5.45666 5.19754V6.83082L5.9287 7.24922C6.20882 7.49741 6.62787 7.45905 6.86209 7.17488L8.00122 5.79689L8.91992 5.2409L11.3377 3.77754C11.4213 3.72769 11.4583 3.62115 11.4223 3.52622Z" fill="#0092FF"/>
<path d="M3.59402 3.81911H3.02576C2.59067 3.81911 2.20808 4.03786 1.9649 4.37131L0.220602 6.03262C-0.0511845 6.28307 -0.0758359 6.7169 0.168912 6.99975L1.59202 8.64297C1.83465 8.92399 2.25464 8.94885 2.52639 8.69627C2.79886 8.44366 2.82188 8.01098 2.57772 7.72945L1.5968 6.59629L2.99009 5.30654L2.17862 6.44704L2.9724 7.36384C3.41103 7.87089 3.36967 8.64997 2.87975 9.10406C2.54525 9.41427 2.08878 9.48705 1.69305 9.34399C1.69305 9.34399 1.69919 12.5117 1.69919 15.9041C1.69919 16.3578 2.05471 16.7256 2.49337 16.7256C2.93157 16.7256 3.28754 16.3578 3.28754 15.9041C3.28754 12.5127 3.28754 14.448 3.28754 11.0077H3.81729C3.81729 14.4455 3.81729 12.5117 3.81729 15.9041C3.81729 16.141 3.75343 16.3603 3.65162 16.5545C3.78489 16.6605 3.95071 16.7256 4.13144 16.7256C4.57033 16.7256 4.92585 16.3578 4.92585 15.9041C4.92585 12.5127 4.92686 13.9344 4.92686 5.1975C4.92693 4.43621 4.33035 3.81911 3.59402 3.81911Z" fill="#0092FF"/>
<path d="M2.60218 3.32605C2.81452 3.44023 3.05293 3.51109 3.30902 3.51109C3.56577 3.51109 3.80418 3.44023 4.01715 3.32585C4.51423 3.05943 4.85686 2.52904 4.85686 1.91001C4.85686 1.02571 4.16388 0.309067 3.30899 0.309067C2.45424 0.309067 1.76141 1.02571 1.76141 1.91001C1.76145 2.52938 2.10444 3.05997 2.60218 3.32605Z" fill="#0092FF"/>
</svg>
