<svg xmlns="http://www.w3.org/2000/svg" width="33" height="33" viewBox="0 0 33 33">
  <g id="Group_458" data-name="Group 458" transform="translate(-18 -183)">
    <circle id="Ellipse_71" data-name="Ellipse 71" cx="16.5" cy="16.5" r="16.5" transform="translate(18 183)" fill="#dd1a75"/>
    <path id="ask" d="M8.651,1A7.651,7.651,0,1,0,16.3,8.651,7.651,7.651,0,0,0,8.651,1Zm0,12.52a.7.7,0,1,1,.7-.7A.7.7,0,0,1,8.651,13.52Zm1.628-4.7a2.078,2.078,0,0,0-.932,1.655v.262a.7.7,0,1,1-1.391,0v-.262A3.448,3.448,0,0,1,9.464,7.693a1.392,1.392,0,1,0-2.2-1.129.7.7,0,1,1-1.391,0,2.782,2.782,0,1,1,4.41,2.256Z" transform="translate(26 191)" fill="#fff"/>
  </g>
</svg>
