<svg xmlns="http://www.w3.org/2000/svg" width="33" height="33" viewBox="0 0 33 33">
  <g id="Group_465" data-name="Group 465" transform="translate(-18 -694)">
    <g id="Group_266" data-name="Group 266" transform="translate(-20 -25)">
      <circle id="Ellipse_74" data-name="Ellipse 74" cx="16.5" cy="16.5" r="16.5" transform="translate(38 719)" fill="#a800be"/>
      <g id="translate" transform="translate(45.199 726.199)">
        <path id="Path_925" data-name="Path 925" d="M163.689,208.867h-7.005a2.007,2.007,0,0,0-2,2v3.806l-1.815,1.3a.545.545,0,0,0,0,.887l1.837,1.312a2.007,2.007,0,0,0,1.982,1.708h7.005a2.007,2.007,0,0,0,2-2v-7.005A2.007,2.007,0,0,0,163.689,208.867Zm-2.355,7.658c-.128,0-.228-.041-.257-.152l-.222-.776h-1.337l-.222.776c-.029.111-.128.152-.257.152-.2,0-.479-.128-.479-.315a.338.338,0,0,1,.012-.058l1.127-3.672a.474.474,0,0,1,.485-.257c.222,0,.438.082.49.257l1.127,3.672a.259.259,0,0,1,.012.058C161.813,216.391,161.538,216.525,161.334,216.525Zm0,0" transform="translate(-147.091 -201.278)" fill="#fff"/>
        <path id="Path_926" data-name="Path 926" d="M346.375,330.171h1.016l-.508-1.792Zm0,0" transform="translate(-333.79 -316.448)" fill="#fff"/>
        <path id="Path_927" data-name="Path 927" d="M6.5,9.593a3.079,3.079,0,0,1,.682-1.935,2.924,2.924,0,0,1-1.674-.525,2.923,2.923,0,0,1-1.674.525.307.307,0,0,1,0-.615,2.314,2.314,0,0,0,1.192-.33,2.932,2.932,0,0,1-.769-1.69H3.832a.307.307,0,1,1,0-.615H5.2V3.663a.307.307,0,1,1,.615,0v.746H7.181a.307.307,0,1,1,0,.615H6.758a2.931,2.931,0,0,1-.769,1.69,2.311,2.311,0,0,0,1.192.33.307.307,0,0,1,.306.285A3.082,3.082,0,0,1,9.593,6.5h1.42V5.2l1.815-1.3a.545.545,0,0,0,0-.887L10.992,1.708A2.008,2.008,0,0,0,9.009,0H2A2.007,2.007,0,0,0,0,2V9.009a2.007,2.007,0,0,0,2,2H6.5Zm0,0" fill="#fff"/>
        <path id="Path_928" data-name="Path 928" d="M134.815,139.583a2.32,2.32,0,0,0,.632-1.306h-1.263A2.322,2.322,0,0,0,134.815,139.583Zm0,0" transform="translate(-129.308 -133.253)" fill="#fff"/>
      </g>
    </g>
  </g>
</svg>
