<svg xmlns="http://www.w3.org/2000/svg" width="33" height="33" viewBox="0 0 33 33">
  <g id="Group_457" data-name="Group 457" transform="translate(-70 -34)">
    <g id="Group_456" data-name="Group 456">
      <g id="Group_455" data-name="Group 455">
        <circle id="Ellipse_70" data-name="Ellipse 70" cx="16.5" cy="16.5" r="16.5" transform="translate(70 34)" fill="#2c3481"/>
        <path id="Path_920" data-name="Path 920" d="M21.748,9.579,20.3,8.45a5.687,5.687,0,0,0,.034-.593,5.515,5.515,0,0,0-.034-.593l1.446-1.13a.708.708,0,0,0,.171-.9l-1.5-2.6a.7.7,0,0,0-.869-.312L17.845,3a5.843,5.843,0,0,0-1.023-.594L16.562.6a.7.7,0,0,0-.694-.6H12.856a.693.693,0,0,0-.693.6L11.9,2.411a6.024,6.024,0,0,0-1.021.594L9.173,2.319a.71.71,0,0,0-.862.307l-1.5,2.6a.7.7,0,0,0,.17.907L8.421,7.265a5.181,5.181,0,0,0,0,1.186L6.976,9.58a.708.708,0,0,0-.17.9l1.5,2.6a.7.7,0,0,0,.869.312l1.7-.684A5.9,5.9,0,0,0,11.9,13.3l.259,1.807a.7.7,0,0,0,.694.6h3.012a.694.694,0,0,0,.693-.6l.26-1.814a6.052,6.052,0,0,0,1.021-.595l1.709.686a.7.7,0,0,0,.257.048.691.691,0,0,0,.606-.355l1.509-2.612A.707.707,0,0,0,21.748,9.579Zm-7.386.9a2.619,2.619,0,1,1,2.619-2.619A2.622,2.622,0,0,1,14.362,10.476Z" transform="translate(72.499 42.442)" fill="#fff"/>
      </g>
    </g>
  </g>
</svg>
