<svg xmlns="http://www.w3.org/2000/svg" width="33" height="33" viewBox="0 0 33 33">
  <g id="Group_460" data-name="Group 460" transform="translate(-18 -402)">
    <circle id="Ellipse_76" data-name="Ellipse 76" cx="16.5" cy="16.5" r="16.5" transform="translate(18 402)" fill="#6dd915"/>
    <g id="rating" transform="translate(27 410.849)">
      <g id="Group_234" data-name="Group 234" transform="translate(0 0.152)">
        <g id="Group_233" data-name="Group 233" transform="translate(0)">
          <path id="Path_917" data-name="Path 917" d="M5.085,1.981a.313.313,0,0,0-.22-.207l-1.3-.357L2.818.285a.335.335,0,0,0-.536,0L1.54,1.417l-1.3.357a.313.313,0,0,0-.22.207.317.317,0,0,0,.054.3L.918,3.336.851,4.688a.322.322,0,0,0,.134.274.315.315,0,0,0,.3.041l1.266-.481L3.816,5a.361.361,0,0,0,.115.019.306.306,0,0,0,.185-.061.321.321,0,0,0,.134-.274L4.183,3.336l.848-1.055A.317.317,0,0,0,5.085,1.981Z" transform="translate(0 -0.152)" fill="#fff"/>
        </g>
      </g>
      <g id="Group_236" data-name="Group 236" transform="translate(6.376 1.735)">
        <g id="Group_235" data-name="Group 235">
          <rect id="Rectangle_289" data-name="Rectangle 289" width="5.419" height="0.638" fill="#fff"/>
        </g>
      </g>
      <g id="Group_238" data-name="Group 238" transform="translate(6.376 3.329)">
        <g id="Group_237" data-name="Group 237">
          <rect id="Rectangle_290" data-name="Rectangle 290" width="8.926" height="0.638" fill="#fff"/>
        </g>
      </g>
      <g id="Group_240" data-name="Group 240" transform="translate(0 5.361)">
        <g id="Group_239" data-name="Group 239" transform="translate(0)">
          <path id="Path_918" data-name="Path 918" d="M5.085,162.871a.317.317,0,0,0-.22-.21l-1.3-.357-.743-1.132a.335.335,0,0,0-.536,0L1.54,162.3l-1.3.357a.317.317,0,0,0-.22.21.311.311,0,0,0,.054.3l.848,1.055-.067,1.355a.323.323,0,0,0,.434.312l1.266-.478,1.266.478a.366.366,0,0,0,.115.022.309.309,0,0,0,.185-.064.316.316,0,0,0,.134-.271l-.067-1.355.848-1.055A.311.311,0,0,0,5.085,162.871Z" transform="translate(0 -161.038)" fill="#fff"/>
        </g>
      </g>
      <g id="Group_242" data-name="Group 242" transform="translate(6.376 6.836)">
        <g id="Group_241" data-name="Group 241">
          <rect id="Rectangle_291" data-name="Rectangle 291" width="5.419" height="0.638" fill="#fff"/>
        </g>
      </g>
      <g id="Group_244" data-name="Group 244" transform="translate(6.376 8.43)">
        <g id="Group_243" data-name="Group 243">
          <rect id="Rectangle_292" data-name="Rectangle 292" width="8.926" height="0.638" fill="#fff"/>
        </g>
      </g>
      <g id="Group_246" data-name="Group 246" transform="translate(0 10.57)">
        <g id="Group_245" data-name="Group 245" transform="translate(0)">
          <path id="Path_919" data-name="Path 919" d="M5.085,323.758a.317.317,0,0,0-.22-.21l-1.3-.354-.743-1.135a.335.335,0,0,0-.536,0l-.743,1.135-1.3.354a.317.317,0,0,0-.22.21.311.311,0,0,0,.054.3l.848,1.058-.067,1.352a.32.32,0,0,0,.434.312l1.266-.478,1.266.478a.294.294,0,0,0,.115.022.328.328,0,0,0,.185-.061.321.321,0,0,0,.134-.274l-.067-1.352.848-1.058A.311.311,0,0,0,5.085,323.758Z" transform="translate(0 -321.924)" fill="#fff"/>
        </g>
      </g>
      <g id="Group_248" data-name="Group 248" transform="translate(6.376 12.255)">
        <g id="Group_247" data-name="Group 247">
          <rect id="Rectangle_293" data-name="Rectangle 293" width="5.419" height="0.638" fill="#fff"/>
        </g>
      </g>
      <g id="Group_250" data-name="Group 250" transform="translate(6.376 13.849)">
        <g id="Group_249" data-name="Group 249">
          <rect id="Rectangle_294" data-name="Rectangle 294" width="8.926" height="0.638" fill="#fff"/>
        </g>
      </g>
    </g>
  </g>
</svg>
